%TF.GenerationSoftware,KiCad,Pcbnew,6.0.11-2627ca5db0~126~ubuntu22.04.1*%
%TF.CreationDate,2023-02-28T23:03:16-05:00*%
%TF.ProjectId,canbus-linbus-bridge,63616e62-7573-42d6-9c69-6e6275732d62,1.0*%
%TF.SameCoordinates,Original*%
%TF.FileFunction,Legend,Bot*%
%TF.FilePolarity,Positive*%
%FSLAX46Y46*%
G04 Gerber Fmt 4.6, Leading zero omitted, Abs format (unit mm)*
G04 Created by KiCad (PCBNEW 6.0.11-2627ca5db0~126~ubuntu22.04.1) date 2023-02-28 23:03:16*
%MOMM*%
%LPD*%
G01*
G04 APERTURE LIST*
%ADD10C,0.150000*%
%ADD11C,0.120000*%
%ADD12C,0.010000*%
G04 APERTURE END LIST*
D10*
%TO.C,R9*%
X101372380Y-84093333D02*
X100896190Y-83760000D01*
X101372380Y-83521904D02*
X100372380Y-83521904D01*
X100372380Y-83902857D01*
X100420000Y-83998095D01*
X100467619Y-84045714D01*
X100562857Y-84093333D01*
X100705714Y-84093333D01*
X100800952Y-84045714D01*
X100848571Y-83998095D01*
X100896190Y-83902857D01*
X100896190Y-83521904D01*
X101372380Y-84569523D02*
X101372380Y-84760000D01*
X101324761Y-84855238D01*
X101277142Y-84902857D01*
X101134285Y-84998095D01*
X100943809Y-85045714D01*
X100562857Y-85045714D01*
X100467619Y-84998095D01*
X100420000Y-84950476D01*
X100372380Y-84855238D01*
X100372380Y-84664761D01*
X100420000Y-84569523D01*
X100467619Y-84521904D01*
X100562857Y-84474285D01*
X100800952Y-84474285D01*
X100896190Y-84521904D01*
X100943809Y-84569523D01*
X100991428Y-84664761D01*
X100991428Y-84855238D01*
X100943809Y-84950476D01*
X100896190Y-84998095D01*
X100800952Y-85045714D01*
%TO.C,R7*%
X84942380Y-82013333D02*
X84466190Y-81680000D01*
X84942380Y-81441904D02*
X83942380Y-81441904D01*
X83942380Y-81822857D01*
X83990000Y-81918095D01*
X84037619Y-81965714D01*
X84132857Y-82013333D01*
X84275714Y-82013333D01*
X84370952Y-81965714D01*
X84418571Y-81918095D01*
X84466190Y-81822857D01*
X84466190Y-81441904D01*
X83942380Y-82346666D02*
X83942380Y-83013333D01*
X84942380Y-82584761D01*
%TO.C,R6*%
X91242380Y-81753333D02*
X90766190Y-81420000D01*
X91242380Y-81181904D02*
X90242380Y-81181904D01*
X90242380Y-81562857D01*
X90290000Y-81658095D01*
X90337619Y-81705714D01*
X90432857Y-81753333D01*
X90575714Y-81753333D01*
X90670952Y-81705714D01*
X90718571Y-81658095D01*
X90766190Y-81562857D01*
X90766190Y-81181904D01*
X90242380Y-82610476D02*
X90242380Y-82420000D01*
X90290000Y-82324761D01*
X90337619Y-82277142D01*
X90480476Y-82181904D01*
X90670952Y-82134285D01*
X91051904Y-82134285D01*
X91147142Y-82181904D01*
X91194761Y-82229523D01*
X91242380Y-82324761D01*
X91242380Y-82515238D01*
X91194761Y-82610476D01*
X91147142Y-82658095D01*
X91051904Y-82705714D01*
X90813809Y-82705714D01*
X90718571Y-82658095D01*
X90670952Y-82610476D01*
X90623333Y-82515238D01*
X90623333Y-82324761D01*
X90670952Y-82229523D01*
X90718571Y-82181904D01*
X90813809Y-82134285D01*
%TO.C,R5*%
X91416666Y-78422380D02*
X91750000Y-77946190D01*
X91988095Y-78422380D02*
X91988095Y-77422380D01*
X91607142Y-77422380D01*
X91511904Y-77470000D01*
X91464285Y-77517619D01*
X91416666Y-77612857D01*
X91416666Y-77755714D01*
X91464285Y-77850952D01*
X91511904Y-77898571D01*
X91607142Y-77946190D01*
X91988095Y-77946190D01*
X90511904Y-77422380D02*
X90988095Y-77422380D01*
X91035714Y-77898571D01*
X90988095Y-77850952D01*
X90892857Y-77803333D01*
X90654761Y-77803333D01*
X90559523Y-77850952D01*
X90511904Y-77898571D01*
X90464285Y-77993809D01*
X90464285Y-78231904D01*
X90511904Y-78327142D01*
X90559523Y-78374761D01*
X90654761Y-78422380D01*
X90892857Y-78422380D01*
X90988095Y-78374761D01*
X91035714Y-78327142D01*
%TO.C,R4*%
X92456666Y-72142380D02*
X92790000Y-71666190D01*
X93028095Y-72142380D02*
X93028095Y-71142380D01*
X92647142Y-71142380D01*
X92551904Y-71190000D01*
X92504285Y-71237619D01*
X92456666Y-71332857D01*
X92456666Y-71475714D01*
X92504285Y-71570952D01*
X92551904Y-71618571D01*
X92647142Y-71666190D01*
X93028095Y-71666190D01*
X91599523Y-71475714D02*
X91599523Y-72142380D01*
X91837619Y-71094761D02*
X92075714Y-71809047D01*
X91456666Y-71809047D01*
%TO.C,D1*%
X108188095Y-81752380D02*
X108188095Y-80752380D01*
X107950000Y-80752380D01*
X107807142Y-80800000D01*
X107711904Y-80895238D01*
X107664285Y-80990476D01*
X107616666Y-81180952D01*
X107616666Y-81323809D01*
X107664285Y-81514285D01*
X107711904Y-81609523D01*
X107807142Y-81704761D01*
X107950000Y-81752380D01*
X108188095Y-81752380D01*
X106664285Y-81752380D02*
X107235714Y-81752380D01*
X106950000Y-81752380D02*
X106950000Y-80752380D01*
X107045238Y-80895238D01*
X107140476Y-80990476D01*
X107235714Y-81038095D01*
%TO.C,C8*%
X109437142Y-88703333D02*
X109484761Y-88655714D01*
X109532380Y-88512857D01*
X109532380Y-88417619D01*
X109484761Y-88274761D01*
X109389523Y-88179523D01*
X109294285Y-88131904D01*
X109103809Y-88084285D01*
X108960952Y-88084285D01*
X108770476Y-88131904D01*
X108675238Y-88179523D01*
X108580000Y-88274761D01*
X108532380Y-88417619D01*
X108532380Y-88512857D01*
X108580000Y-88655714D01*
X108627619Y-88703333D01*
X108960952Y-89274761D02*
X108913333Y-89179523D01*
X108865714Y-89131904D01*
X108770476Y-89084285D01*
X108722857Y-89084285D01*
X108627619Y-89131904D01*
X108580000Y-89179523D01*
X108532380Y-89274761D01*
X108532380Y-89465238D01*
X108580000Y-89560476D01*
X108627619Y-89608095D01*
X108722857Y-89655714D01*
X108770476Y-89655714D01*
X108865714Y-89608095D01*
X108913333Y-89560476D01*
X108960952Y-89465238D01*
X108960952Y-89274761D01*
X109008571Y-89179523D01*
X109056190Y-89131904D01*
X109151428Y-89084285D01*
X109341904Y-89084285D01*
X109437142Y-89131904D01*
X109484761Y-89179523D01*
X109532380Y-89274761D01*
X109532380Y-89465238D01*
X109484761Y-89560476D01*
X109437142Y-89608095D01*
X109341904Y-89655714D01*
X109151428Y-89655714D01*
X109056190Y-89608095D01*
X109008571Y-89560476D01*
X108960952Y-89465238D01*
%TO.C,C7*%
X78991666Y-84337142D02*
X79039285Y-84384761D01*
X79182142Y-84432380D01*
X79277380Y-84432380D01*
X79420238Y-84384761D01*
X79515476Y-84289523D01*
X79563095Y-84194285D01*
X79610714Y-84003809D01*
X79610714Y-83860952D01*
X79563095Y-83670476D01*
X79515476Y-83575238D01*
X79420238Y-83480000D01*
X79277380Y-83432380D01*
X79182142Y-83432380D01*
X79039285Y-83480000D01*
X78991666Y-83527619D01*
X78658333Y-83432380D02*
X77991666Y-83432380D01*
X78420238Y-84432380D01*
%TO.C,U1*%
X67436904Y-79727380D02*
X67436904Y-80536904D01*
X67389285Y-80632142D01*
X67341666Y-80679761D01*
X67246428Y-80727380D01*
X67055952Y-80727380D01*
X66960714Y-80679761D01*
X66913095Y-80632142D01*
X66865476Y-80536904D01*
X66865476Y-79727380D01*
X65865476Y-80727380D02*
X66436904Y-80727380D01*
X66151190Y-80727380D02*
X66151190Y-79727380D01*
X66246428Y-79870238D01*
X66341666Y-79965476D01*
X66436904Y-80013095D01*
%TO.C,R1*%
X87916666Y-92052380D02*
X88250000Y-91576190D01*
X88488095Y-92052380D02*
X88488095Y-91052380D01*
X88107142Y-91052380D01*
X88011904Y-91100000D01*
X87964285Y-91147619D01*
X87916666Y-91242857D01*
X87916666Y-91385714D01*
X87964285Y-91480952D01*
X88011904Y-91528571D01*
X88107142Y-91576190D01*
X88488095Y-91576190D01*
X86964285Y-92052380D02*
X87535714Y-92052380D01*
X87250000Y-92052380D02*
X87250000Y-91052380D01*
X87345238Y-91195238D01*
X87440476Y-91290476D01*
X87535714Y-91338095D01*
%TO.C,C2*%
X83491666Y-93157142D02*
X83539285Y-93204761D01*
X83682142Y-93252380D01*
X83777380Y-93252380D01*
X83920238Y-93204761D01*
X84015476Y-93109523D01*
X84063095Y-93014285D01*
X84110714Y-92823809D01*
X84110714Y-92680952D01*
X84063095Y-92490476D01*
X84015476Y-92395238D01*
X83920238Y-92300000D01*
X83777380Y-92252380D01*
X83682142Y-92252380D01*
X83539285Y-92300000D01*
X83491666Y-92347619D01*
X83110714Y-92347619D02*
X83063095Y-92300000D01*
X82967857Y-92252380D01*
X82729761Y-92252380D01*
X82634523Y-92300000D01*
X82586904Y-92347619D01*
X82539285Y-92442857D01*
X82539285Y-92538095D01*
X82586904Y-92680952D01*
X83158333Y-93252380D01*
X82539285Y-93252380D01*
%TO.C,C3*%
X72266666Y-76857142D02*
X72314285Y-76904761D01*
X72457142Y-76952380D01*
X72552380Y-76952380D01*
X72695238Y-76904761D01*
X72790476Y-76809523D01*
X72838095Y-76714285D01*
X72885714Y-76523809D01*
X72885714Y-76380952D01*
X72838095Y-76190476D01*
X72790476Y-76095238D01*
X72695238Y-76000000D01*
X72552380Y-75952380D01*
X72457142Y-75952380D01*
X72314285Y-76000000D01*
X72266666Y-76047619D01*
X71933333Y-75952380D02*
X71314285Y-75952380D01*
X71647619Y-76333333D01*
X71504761Y-76333333D01*
X71409523Y-76380952D01*
X71361904Y-76428571D01*
X71314285Y-76523809D01*
X71314285Y-76761904D01*
X71361904Y-76857142D01*
X71409523Y-76904761D01*
X71504761Y-76952380D01*
X71790476Y-76952380D01*
X71885714Y-76904761D01*
X71933333Y-76857142D01*
%TO.C,C1*%
X67032142Y-85833333D02*
X67079761Y-85785714D01*
X67127380Y-85642857D01*
X67127380Y-85547619D01*
X67079761Y-85404761D01*
X66984523Y-85309523D01*
X66889285Y-85261904D01*
X66698809Y-85214285D01*
X66555952Y-85214285D01*
X66365476Y-85261904D01*
X66270238Y-85309523D01*
X66175000Y-85404761D01*
X66127380Y-85547619D01*
X66127380Y-85642857D01*
X66175000Y-85785714D01*
X66222619Y-85833333D01*
X67127380Y-86785714D02*
X67127380Y-86214285D01*
X67127380Y-86500000D02*
X66127380Y-86500000D01*
X66270238Y-86404761D01*
X66365476Y-86309523D01*
X66413095Y-86214285D01*
%TO.C,Q2*%
X63045238Y-82672619D02*
X63140476Y-82625000D01*
X63235714Y-82529761D01*
X63378571Y-82386904D01*
X63473809Y-82339285D01*
X63569047Y-82339285D01*
X63521428Y-82577380D02*
X63616666Y-82529761D01*
X63711904Y-82434523D01*
X63759523Y-82244047D01*
X63759523Y-81910714D01*
X63711904Y-81720238D01*
X63616666Y-81625000D01*
X63521428Y-81577380D01*
X63330952Y-81577380D01*
X63235714Y-81625000D01*
X63140476Y-81720238D01*
X63092857Y-81910714D01*
X63092857Y-82244047D01*
X63140476Y-82434523D01*
X63235714Y-82529761D01*
X63330952Y-82577380D01*
X63521428Y-82577380D01*
X62711904Y-81672619D02*
X62664285Y-81625000D01*
X62569047Y-81577380D01*
X62330952Y-81577380D01*
X62235714Y-81625000D01*
X62188095Y-81672619D01*
X62140476Y-81767857D01*
X62140476Y-81863095D01*
X62188095Y-82005952D01*
X62759523Y-82577380D01*
X62140476Y-82577380D01*
%TO.C,Q1*%
X71770238Y-79722619D02*
X71865476Y-79675000D01*
X71960714Y-79579761D01*
X72103571Y-79436904D01*
X72198809Y-79389285D01*
X72294047Y-79389285D01*
X72246428Y-79627380D02*
X72341666Y-79579761D01*
X72436904Y-79484523D01*
X72484523Y-79294047D01*
X72484523Y-78960714D01*
X72436904Y-78770238D01*
X72341666Y-78675000D01*
X72246428Y-78627380D01*
X72055952Y-78627380D01*
X71960714Y-78675000D01*
X71865476Y-78770238D01*
X71817857Y-78960714D01*
X71817857Y-79294047D01*
X71865476Y-79484523D01*
X71960714Y-79579761D01*
X72055952Y-79627380D01*
X72246428Y-79627380D01*
X70865476Y-79627380D02*
X71436904Y-79627380D01*
X71151190Y-79627380D02*
X71151190Y-78627380D01*
X71246428Y-78770238D01*
X71341666Y-78865476D01*
X71436904Y-78913095D01*
%TO.C,JP1*%
X91127380Y-78591666D02*
X91841666Y-78591666D01*
X91984523Y-78544047D01*
X92079761Y-78448809D01*
X92127380Y-78305952D01*
X92127380Y-78210714D01*
X92127380Y-79067857D02*
X91127380Y-79067857D01*
X91127380Y-79448809D01*
X91175000Y-79544047D01*
X91222619Y-79591666D01*
X91317857Y-79639285D01*
X91460714Y-79639285D01*
X91555952Y-79591666D01*
X91603571Y-79544047D01*
X91651190Y-79448809D01*
X91651190Y-79067857D01*
X92127380Y-80591666D02*
X92127380Y-80020238D01*
X92127380Y-80305952D02*
X91127380Y-80305952D01*
X91270238Y-80210714D01*
X91365476Y-80115476D01*
X91413095Y-80020238D01*
%TO.C,R2*%
X94691666Y-92502380D02*
X95025000Y-92026190D01*
X95263095Y-92502380D02*
X95263095Y-91502380D01*
X94882142Y-91502380D01*
X94786904Y-91550000D01*
X94739285Y-91597619D01*
X94691666Y-91692857D01*
X94691666Y-91835714D01*
X94739285Y-91930952D01*
X94786904Y-91978571D01*
X94882142Y-92026190D01*
X95263095Y-92026190D01*
X94310714Y-91597619D02*
X94263095Y-91550000D01*
X94167857Y-91502380D01*
X93929761Y-91502380D01*
X93834523Y-91550000D01*
X93786904Y-91597619D01*
X93739285Y-91692857D01*
X93739285Y-91788095D01*
X93786904Y-91930952D01*
X94358333Y-92502380D01*
X93739285Y-92502380D01*
D11*
%TO.C,R9*%
X101835000Y-84032936D02*
X101835000Y-84487064D01*
X103305000Y-84032936D02*
X103305000Y-84487064D01*
%TO.C,R7*%
X85405000Y-81952936D02*
X85405000Y-82407064D01*
X86875000Y-81952936D02*
X86875000Y-82407064D01*
%TO.C,R6*%
X88215000Y-81972936D02*
X88215000Y-82427064D01*
X89685000Y-81972936D02*
X89685000Y-82427064D01*
%TO.C,R5*%
X92672936Y-76865000D02*
X93127064Y-76865000D01*
X92672936Y-75395000D02*
X93127064Y-75395000D01*
%TO.C,R4*%
X92652936Y-74175000D02*
X93107064Y-74175000D01*
X92652936Y-72705000D02*
X93107064Y-72705000D01*
%TO.C,D1*%
X103800000Y-84240000D02*
X107700000Y-84240000D01*
X103800000Y-84240000D02*
X103800000Y-82240000D01*
X103800000Y-82240000D02*
X107700000Y-82240000D01*
%TO.C,C8*%
X107615000Y-87346248D02*
X107615000Y-87868752D01*
X106145000Y-87346248D02*
X106145000Y-87868752D01*
%TO.C,C7*%
X78563748Y-81565000D02*
X79086252Y-81565000D01*
X78563748Y-83035000D02*
X79086252Y-83035000D01*
%TO.C,U1*%
X68285000Y-82925000D02*
X68285000Y-82275000D01*
X65165000Y-82925000D02*
X65165000Y-83575000D01*
X65165000Y-82925000D02*
X65165000Y-81250000D01*
X68285000Y-82925000D02*
X68285000Y-83575000D01*
%TO.C,R1*%
X87977064Y-93985000D02*
X87522936Y-93985000D01*
X87977064Y-92515000D02*
X87522936Y-92515000D01*
%TO.C,C2*%
X82715000Y-90111252D02*
X82715000Y-89588748D01*
X84185000Y-90111252D02*
X84185000Y-89588748D01*
%TO.C,C3*%
X69165000Y-77936252D02*
X69165000Y-77413748D01*
X70635000Y-77936252D02*
X70635000Y-77413748D01*
%TO.C,C1*%
X69160000Y-84726248D02*
X69160000Y-85248752D01*
X67690000Y-84726248D02*
X67690000Y-85248752D01*
%TO.C,Q2*%
X62375000Y-86135000D02*
X60700000Y-86135000D01*
X62375000Y-83015000D02*
X63025000Y-83015000D01*
X62375000Y-86135000D02*
X63025000Y-86135000D01*
X62375000Y-83015000D02*
X61725000Y-83015000D01*
%TO.C,Q1*%
X73110000Y-81937500D02*
X73110000Y-81287500D01*
X73110000Y-81937500D02*
X73110000Y-82587500D01*
X69990000Y-81937500D02*
X69990000Y-80262500D01*
X69990000Y-81937500D02*
X69990000Y-82587500D01*
%TO.C,REF\u002A\u002A*%
G36*
X85425701Y-77190935D02*
G01*
X85424914Y-77261119D01*
X85422210Y-77310022D01*
X85416606Y-77344178D01*
X85407119Y-77370124D01*
X85392768Y-77394397D01*
X85389237Y-77399433D01*
X85351878Y-77439143D01*
X85309311Y-77469092D01*
X85287452Y-77478810D01*
X85208908Y-77495020D01*
X85131231Y-77484535D01*
X85059645Y-77448707D01*
X84999374Y-77388887D01*
X84994286Y-77380873D01*
X84977730Y-77334342D01*
X84966573Y-77269552D01*
X84961160Y-77194727D01*
X84961768Y-77125513D01*
X85108248Y-77125513D01*
X85109402Y-77221399D01*
X85109866Y-77227569D01*
X85116629Y-77280478D01*
X85128671Y-77314029D01*
X85149005Y-77337016D01*
X85183097Y-77358548D01*
X85216814Y-77359680D01*
X85251543Y-77334857D01*
X85257584Y-77328325D01*
X85269417Y-77308779D01*
X85276404Y-77280386D01*
X85279727Y-77236430D01*
X85280571Y-77170192D01*
X85279125Y-77108150D01*
X85271907Y-77049042D01*
X85257006Y-77011686D01*
X85232636Y-76992152D01*
X85197008Y-76986514D01*
X85183440Y-76987635D01*
X85145430Y-77008194D01*
X85120312Y-77054299D01*
X85108248Y-77125513D01*
X84961768Y-77125513D01*
X84961833Y-77118096D01*
X84968937Y-77047882D01*
X84982815Y-76992312D01*
X85000649Y-76955301D01*
X85050855Y-76897733D01*
X85118885Y-76861962D01*
X85202158Y-76849665D01*
X85224398Y-76850331D01*
X85289891Y-76863947D01*
X85343687Y-76898249D01*
X85393057Y-76957338D01*
X85395995Y-76961722D01*
X85409287Y-76985299D01*
X85417932Y-77011949D01*
X85422904Y-77048159D01*
X85425174Y-77100413D01*
X85425678Y-77170192D01*
X85425714Y-77175200D01*
X85425701Y-77190935D01*
G37*
D12*
X85425701Y-77190935D02*
X85424914Y-77261119D01*
X85422210Y-77310022D01*
X85416606Y-77344178D01*
X85407119Y-77370124D01*
X85392768Y-77394397D01*
X85389237Y-77399433D01*
X85351878Y-77439143D01*
X85309311Y-77469092D01*
X85287452Y-77478810D01*
X85208908Y-77495020D01*
X85131231Y-77484535D01*
X85059645Y-77448707D01*
X84999374Y-77388887D01*
X84994286Y-77380873D01*
X84977730Y-77334342D01*
X84966573Y-77269552D01*
X84961160Y-77194727D01*
X84961768Y-77125513D01*
X85108248Y-77125513D01*
X85109402Y-77221399D01*
X85109866Y-77227569D01*
X85116629Y-77280478D01*
X85128671Y-77314029D01*
X85149005Y-77337016D01*
X85183097Y-77358548D01*
X85216814Y-77359680D01*
X85251543Y-77334857D01*
X85257584Y-77328325D01*
X85269417Y-77308779D01*
X85276404Y-77280386D01*
X85279727Y-77236430D01*
X85280571Y-77170192D01*
X85279125Y-77108150D01*
X85271907Y-77049042D01*
X85257006Y-77011686D01*
X85232636Y-76992152D01*
X85197008Y-76986514D01*
X85183440Y-76987635D01*
X85145430Y-77008194D01*
X85120312Y-77054299D01*
X85108248Y-77125513D01*
X84961768Y-77125513D01*
X84961833Y-77118096D01*
X84968937Y-77047882D01*
X84982815Y-76992312D01*
X85000649Y-76955301D01*
X85050855Y-76897733D01*
X85118885Y-76861962D01*
X85202158Y-76849665D01*
X85224398Y-76850331D01*
X85289891Y-76863947D01*
X85343687Y-76898249D01*
X85393057Y-76957338D01*
X85395995Y-76961722D01*
X85409287Y-76985299D01*
X85417932Y-77011949D01*
X85422904Y-77048159D01*
X85425174Y-77100413D01*
X85425678Y-77170192D01*
X85425714Y-77175200D01*
X85425701Y-77190935D01*
G36*
X84871252Y-77353000D02*
G01*
X84871651Y-77385339D01*
X84872929Y-77493455D01*
X84873185Y-77576186D01*
X84871634Y-77636426D01*
X84867490Y-77677073D01*
X84859964Y-77701023D01*
X84848271Y-77711171D01*
X84831624Y-77710414D01*
X84809236Y-77701648D01*
X84780321Y-77687769D01*
X84774142Y-77684808D01*
X84748413Y-77670311D01*
X84734976Y-77653065D01*
X84729834Y-77624308D01*
X84728990Y-77575283D01*
X84728952Y-77487257D01*
X84638276Y-77487257D01*
X84582498Y-77484815D01*
X84538640Y-77474908D01*
X84502218Y-77454886D01*
X84499503Y-77452929D01*
X84462546Y-77419869D01*
X84436826Y-77379931D01*
X84420606Y-77327657D01*
X84412148Y-77257588D01*
X84410083Y-77178430D01*
X84554857Y-77178430D01*
X84554882Y-77191697D01*
X84556261Y-77251584D01*
X84560687Y-77290732D01*
X84569461Y-77316153D01*
X84583886Y-77334857D01*
X84584784Y-77335750D01*
X84620237Y-77359952D01*
X84654596Y-77357567D01*
X84693403Y-77328260D01*
X84702895Y-77318244D01*
X84716876Y-77297708D01*
X84724760Y-77270997D01*
X84728245Y-77230499D01*
X84729029Y-77168603D01*
X84728350Y-77131130D01*
X84720983Y-77062980D01*
X84704168Y-77018330D01*
X84676234Y-76993926D01*
X84635509Y-76986514D01*
X84618350Y-76988094D01*
X84588660Y-77003766D01*
X84569031Y-77038691D01*
X84558188Y-77095901D01*
X84554857Y-77178430D01*
X84410083Y-77178430D01*
X84409714Y-77164267D01*
X84410253Y-77096169D01*
X84412707Y-77044587D01*
X84418158Y-77008816D01*
X84427686Y-76982015D01*
X84442371Y-76957338D01*
X84455852Y-76938480D01*
X84504799Y-76887568D01*
X84560256Y-76859918D01*
X84629928Y-76851165D01*
X84709664Y-76859890D01*
X84778595Y-76891185D01*
X84833113Y-76946381D01*
X84837223Y-76952224D01*
X84846808Y-76967753D01*
X84854151Y-76985498D01*
X84859612Y-77009290D01*
X84863550Y-77042958D01*
X84866323Y-77090333D01*
X84868292Y-77155245D01*
X84868528Y-77168603D01*
X84869815Y-77241524D01*
X84871252Y-77353000D01*
G37*
X84871252Y-77353000D02*
X84871651Y-77385339D01*
X84872929Y-77493455D01*
X84873185Y-77576186D01*
X84871634Y-77636426D01*
X84867490Y-77677073D01*
X84859964Y-77701023D01*
X84848271Y-77711171D01*
X84831624Y-77710414D01*
X84809236Y-77701648D01*
X84780321Y-77687769D01*
X84774142Y-77684808D01*
X84748413Y-77670311D01*
X84734976Y-77653065D01*
X84729834Y-77624308D01*
X84728990Y-77575283D01*
X84728952Y-77487257D01*
X84638276Y-77487257D01*
X84582498Y-77484815D01*
X84538640Y-77474908D01*
X84502218Y-77454886D01*
X84499503Y-77452929D01*
X84462546Y-77419869D01*
X84436826Y-77379931D01*
X84420606Y-77327657D01*
X84412148Y-77257588D01*
X84410083Y-77178430D01*
X84554857Y-77178430D01*
X84554882Y-77191697D01*
X84556261Y-77251584D01*
X84560687Y-77290732D01*
X84569461Y-77316153D01*
X84583886Y-77334857D01*
X84584784Y-77335750D01*
X84620237Y-77359952D01*
X84654596Y-77357567D01*
X84693403Y-77328260D01*
X84702895Y-77318244D01*
X84716876Y-77297708D01*
X84724760Y-77270997D01*
X84728245Y-77230499D01*
X84729029Y-77168603D01*
X84728350Y-77131130D01*
X84720983Y-77062980D01*
X84704168Y-77018330D01*
X84676234Y-76993926D01*
X84635509Y-76986514D01*
X84618350Y-76988094D01*
X84588660Y-77003766D01*
X84569031Y-77038691D01*
X84558188Y-77095901D01*
X84554857Y-77178430D01*
X84410083Y-77178430D01*
X84409714Y-77164267D01*
X84410253Y-77096169D01*
X84412707Y-77044587D01*
X84418158Y-77008816D01*
X84427686Y-76982015D01*
X84442371Y-76957338D01*
X84455852Y-76938480D01*
X84504799Y-76887568D01*
X84560256Y-76859918D01*
X84629928Y-76851165D01*
X84709664Y-76859890D01*
X84778595Y-76891185D01*
X84833113Y-76946381D01*
X84837223Y-76952224D01*
X84846808Y-76967753D01*
X84854151Y-76985498D01*
X84859612Y-77009290D01*
X84863550Y-77042958D01*
X84866323Y-77090333D01*
X84868292Y-77155245D01*
X84868528Y-77168603D01*
X84869815Y-77241524D01*
X84871252Y-77353000D01*
G36*
X82838543Y-76689444D02*
G01*
X82885714Y-76709342D01*
X82885714Y-77106509D01*
X82885519Y-77209498D01*
X82884998Y-77302141D01*
X82884199Y-77380700D01*
X82883172Y-77441439D01*
X82881963Y-77480623D01*
X82880623Y-77494514D01*
X82880099Y-77494468D01*
X82862287Y-77489420D01*
X82829823Y-77478580D01*
X82784114Y-77462646D01*
X82784114Y-77258173D01*
X82783824Y-77177832D01*
X82782474Y-77119562D01*
X82779369Y-77079909D01*
X82773812Y-77053618D01*
X82765107Y-77035436D01*
X82752556Y-77020107D01*
X82743999Y-77011955D01*
X82697728Y-76989375D01*
X82646728Y-76991375D01*
X82599993Y-77018073D01*
X82593189Y-77024698D01*
X82582293Y-77038456D01*
X82574836Y-77056642D01*
X82570169Y-77084177D01*
X82567642Y-77125981D01*
X82566602Y-77186973D01*
X82566400Y-77272073D01*
X82566303Y-77315234D01*
X82565674Y-77386224D01*
X82564556Y-77443076D01*
X82563063Y-77480828D01*
X82561309Y-77494514D01*
X82560785Y-77494468D01*
X82542973Y-77489420D01*
X82510509Y-77478580D01*
X82464800Y-77462646D01*
X82464823Y-77257237D01*
X82464857Y-77238951D01*
X82466778Y-77143626D01*
X82472678Y-77071543D01*
X82484001Y-77017813D01*
X82502187Y-76977549D01*
X82528679Y-76945861D01*
X82564918Y-76917861D01*
X82600263Y-76900333D01*
X82656773Y-76886785D01*
X82712356Y-76886015D01*
X82755086Y-76899195D01*
X82758298Y-76901015D01*
X82768205Y-76900820D01*
X82774975Y-76885572D01*
X82779861Y-76850613D01*
X82784114Y-76791289D01*
X82791371Y-76669547D01*
X82838543Y-76689444D01*
G37*
X82838543Y-76689444D02*
X82885714Y-76709342D01*
X82885714Y-77106509D01*
X82885519Y-77209498D01*
X82884998Y-77302141D01*
X82884199Y-77380700D01*
X82883172Y-77441439D01*
X82881963Y-77480623D01*
X82880623Y-77494514D01*
X82880099Y-77494468D01*
X82862287Y-77489420D01*
X82829823Y-77478580D01*
X82784114Y-77462646D01*
X82784114Y-77258173D01*
X82783824Y-77177832D01*
X82782474Y-77119562D01*
X82779369Y-77079909D01*
X82773812Y-77053618D01*
X82765107Y-77035436D01*
X82752556Y-77020107D01*
X82743999Y-77011955D01*
X82697728Y-76989375D01*
X82646728Y-76991375D01*
X82599993Y-77018073D01*
X82593189Y-77024698D01*
X82582293Y-77038456D01*
X82574836Y-77056642D01*
X82570169Y-77084177D01*
X82567642Y-77125981D01*
X82566602Y-77186973D01*
X82566400Y-77272073D01*
X82566303Y-77315234D01*
X82565674Y-77386224D01*
X82564556Y-77443076D01*
X82563063Y-77480828D01*
X82561309Y-77494514D01*
X82560785Y-77494468D01*
X82542973Y-77489420D01*
X82510509Y-77478580D01*
X82464800Y-77462646D01*
X82464823Y-77257237D01*
X82464857Y-77238951D01*
X82466778Y-77143626D01*
X82472678Y-77071543D01*
X82484001Y-77017813D01*
X82502187Y-76977549D01*
X82528679Y-76945861D01*
X82564918Y-76917861D01*
X82600263Y-76900333D01*
X82656773Y-76886785D01*
X82712356Y-76886015D01*
X82755086Y-76899195D01*
X82758298Y-76901015D01*
X82768205Y-76900820D01*
X82774975Y-76885572D01*
X82779861Y-76850613D01*
X82784114Y-76791289D01*
X82791371Y-76669547D01*
X82838543Y-76689444D01*
G36*
X80813941Y-76889282D02*
G01*
X80845774Y-76901758D01*
X80882743Y-76918602D01*
X80882743Y-77405196D01*
X80836812Y-77451127D01*
X80826320Y-77461427D01*
X80797255Y-77484320D01*
X80767943Y-77491735D01*
X80724326Y-77488321D01*
X80706568Y-77486114D01*
X80660767Y-77481445D01*
X80628743Y-77479585D01*
X80619244Y-77479869D01*
X80580274Y-77482948D01*
X80533160Y-77488321D01*
X80518085Y-77490168D01*
X80480110Y-77490893D01*
X80452325Y-77479429D01*
X80420674Y-77451127D01*
X80374743Y-77405196D01*
X80374743Y-77145055D01*
X80375101Y-77068180D01*
X80376216Y-76994886D01*
X80377952Y-76936850D01*
X80380167Y-76898663D01*
X80382721Y-76884914D01*
X80383256Y-76884951D01*
X80401808Y-76891793D01*
X80433153Y-76906868D01*
X80475608Y-76928822D01*
X80479604Y-77157240D01*
X80483600Y-77385657D01*
X80570686Y-77385657D01*
X80574657Y-77135286D01*
X80575916Y-77067227D01*
X80577718Y-76994482D01*
X80579671Y-76936730D01*
X80581612Y-76898648D01*
X80583377Y-76884914D01*
X80583885Y-76884962D01*
X80601482Y-76890015D01*
X80633834Y-76900849D01*
X80679543Y-76916783D01*
X80679765Y-77136706D01*
X80679988Y-77174909D01*
X80681531Y-77249146D01*
X80684292Y-77311145D01*
X80687977Y-77355308D01*
X80692292Y-77376041D01*
X80707732Y-77387131D01*
X80739241Y-77390556D01*
X80773886Y-77385657D01*
X80777857Y-77135286D01*
X80779278Y-77071663D01*
X80782225Y-76996356D01*
X80786079Y-76937286D01*
X80790542Y-76898718D01*
X80795317Y-76884914D01*
X80813941Y-76889282D01*
G37*
X80813941Y-76889282D02*
X80845774Y-76901758D01*
X80882743Y-76918602D01*
X80882743Y-77405196D01*
X80836812Y-77451127D01*
X80826320Y-77461427D01*
X80797255Y-77484320D01*
X80767943Y-77491735D01*
X80724326Y-77488321D01*
X80706568Y-77486114D01*
X80660767Y-77481445D01*
X80628743Y-77479585D01*
X80619244Y-77479869D01*
X80580274Y-77482948D01*
X80533160Y-77488321D01*
X80518085Y-77490168D01*
X80480110Y-77490893D01*
X80452325Y-77479429D01*
X80420674Y-77451127D01*
X80374743Y-77405196D01*
X80374743Y-77145055D01*
X80375101Y-77068180D01*
X80376216Y-76994886D01*
X80377952Y-76936850D01*
X80380167Y-76898663D01*
X80382721Y-76884914D01*
X80383256Y-76884951D01*
X80401808Y-76891793D01*
X80433153Y-76906868D01*
X80475608Y-76928822D01*
X80479604Y-77157240D01*
X80483600Y-77385657D01*
X80570686Y-77385657D01*
X80574657Y-77135286D01*
X80575916Y-77067227D01*
X80577718Y-76994482D01*
X80579671Y-76936730D01*
X80581612Y-76898648D01*
X80583377Y-76884914D01*
X80583885Y-76884962D01*
X80601482Y-76890015D01*
X80633834Y-76900849D01*
X80679543Y-76916783D01*
X80679765Y-77136706D01*
X80679988Y-77174909D01*
X80681531Y-77249146D01*
X80684292Y-77311145D01*
X80687977Y-77355308D01*
X80692292Y-77376041D01*
X80707732Y-77387131D01*
X80739241Y-77390556D01*
X80773886Y-77385657D01*
X80777857Y-77135286D01*
X80779278Y-77071663D01*
X80782225Y-76996356D01*
X80786079Y-76937286D01*
X80790542Y-76898718D01*
X80795317Y-76884914D01*
X80813941Y-76889282D01*
G36*
X83591020Y-76857822D02*
G01*
X83658810Y-76889680D01*
X83714366Y-76944770D01*
X83725881Y-76962016D01*
X83735432Y-76981562D01*
X83742206Y-77006198D01*
X83746819Y-77040711D01*
X83749888Y-77089889D01*
X83752029Y-77158519D01*
X83753859Y-77251389D01*
X83758404Y-77509007D01*
X83720225Y-77494491D01*
X83685268Y-77481156D01*
X83659097Y-77468323D01*
X83642013Y-77451780D01*
X83632086Y-77426465D01*
X83627386Y-77387316D01*
X83625982Y-77329268D01*
X83625943Y-77247261D01*
X83625744Y-77181895D01*
X83624559Y-77119173D01*
X83621729Y-77076334D01*
X83616609Y-77048220D01*
X83608553Y-77029675D01*
X83596914Y-77015543D01*
X83568303Y-76995600D01*
X83520239Y-76988083D01*
X83472688Y-77007079D01*
X83469550Y-77009511D01*
X83459769Y-77020748D01*
X83452553Y-77038770D01*
X83447299Y-77068026D01*
X83443402Y-77112962D01*
X83440256Y-77178028D01*
X83437257Y-77267670D01*
X83430000Y-77507697D01*
X83368314Y-77480044D01*
X83306629Y-77452391D01*
X83306629Y-77233246D01*
X83306884Y-77173711D01*
X83309086Y-77090892D01*
X83314661Y-77029227D01*
X83324941Y-76983748D01*
X83341258Y-76949484D01*
X83364943Y-76921466D01*
X83397328Y-76894723D01*
X83443907Y-76867780D01*
X83517287Y-76850191D01*
X83591020Y-76857822D01*
G37*
X83591020Y-76857822D02*
X83658810Y-76889680D01*
X83714366Y-76944770D01*
X83725881Y-76962016D01*
X83735432Y-76981562D01*
X83742206Y-77006198D01*
X83746819Y-77040711D01*
X83749888Y-77089889D01*
X83752029Y-77158519D01*
X83753859Y-77251389D01*
X83758404Y-77509007D01*
X83720225Y-77494491D01*
X83685268Y-77481156D01*
X83659097Y-77468323D01*
X83642013Y-77451780D01*
X83632086Y-77426465D01*
X83627386Y-77387316D01*
X83625982Y-77329268D01*
X83625943Y-77247261D01*
X83625744Y-77181895D01*
X83624559Y-77119173D01*
X83621729Y-77076334D01*
X83616609Y-77048220D01*
X83608553Y-77029675D01*
X83596914Y-77015543D01*
X83568303Y-76995600D01*
X83520239Y-76988083D01*
X83472688Y-77007079D01*
X83469550Y-77009511D01*
X83459769Y-77020748D01*
X83452553Y-77038770D01*
X83447299Y-77068026D01*
X83443402Y-77112962D01*
X83440256Y-77178028D01*
X83437257Y-77267670D01*
X83430000Y-77507697D01*
X83368314Y-77480044D01*
X83306629Y-77452391D01*
X83306629Y-77233246D01*
X83306884Y-77173711D01*
X83309086Y-77090892D01*
X83314661Y-77029227D01*
X83324941Y-76983748D01*
X83341258Y-76949484D01*
X83364943Y-76921466D01*
X83397328Y-76894723D01*
X83443907Y-76867780D01*
X83517287Y-76850191D01*
X83591020Y-76857822D01*
G36*
X81389537Y-77246313D02*
G01*
X81381345Y-77323462D01*
X81363519Y-77381276D01*
X81333975Y-77425422D01*
X81290625Y-77461568D01*
X81249332Y-77482463D01*
X81179987Y-77494090D01*
X81110736Y-77481377D01*
X81048145Y-77445945D01*
X80998779Y-77389418D01*
X80992818Y-77378995D01*
X80984945Y-77360733D01*
X80979106Y-77337429D01*
X80974999Y-77305085D01*
X80972325Y-77259704D01*
X80970781Y-77197287D01*
X80970734Y-77191748D01*
X81071429Y-77191748D01*
X81071772Y-77244577D01*
X81073942Y-77292362D01*
X81079307Y-77323209D01*
X81089217Y-77343935D01*
X81105021Y-77361356D01*
X81108724Y-77364705D01*
X81156299Y-77389419D01*
X81206635Y-77386890D01*
X81253517Y-77357288D01*
X81267477Y-77341953D01*
X81279160Y-77321622D01*
X81285686Y-77293514D01*
X81288524Y-77250550D01*
X81289143Y-77185647D01*
X81288837Y-77136122D01*
X81286722Y-77087782D01*
X81281390Y-77056587D01*
X81271460Y-77035647D01*
X81255550Y-77018073D01*
X81246204Y-77010159D01*
X81197776Y-76988843D01*
X81147040Y-76992198D01*
X81102987Y-77020107D01*
X81093504Y-77031173D01*
X81081939Y-77052009D01*
X81075252Y-77081106D01*
X81072173Y-77125381D01*
X81071429Y-77191748D01*
X80970734Y-77191748D01*
X80970067Y-77113837D01*
X80969883Y-77005358D01*
X80969829Y-76668601D01*
X81017000Y-76688362D01*
X81029472Y-76693770D01*
X81049324Y-76705985D01*
X81060687Y-76724482D01*
X81066933Y-76756829D01*
X81071429Y-76810593D01*
X81075535Y-76858866D01*
X81080963Y-76890557D01*
X81088739Y-76902383D01*
X81100457Y-76899212D01*
X81130318Y-76888067D01*
X81183684Y-76885304D01*
X81241093Y-76895625D01*
X81290625Y-76917861D01*
X81317876Y-76938443D01*
X81352865Y-76978600D01*
X81375274Y-77030086D01*
X81387190Y-77098568D01*
X81390542Y-77185647D01*
X81390698Y-77189714D01*
X81389537Y-77246313D01*
G37*
X81389537Y-77246313D02*
X81381345Y-77323462D01*
X81363519Y-77381276D01*
X81333975Y-77425422D01*
X81290625Y-77461568D01*
X81249332Y-77482463D01*
X81179987Y-77494090D01*
X81110736Y-77481377D01*
X81048145Y-77445945D01*
X80998779Y-77389418D01*
X80992818Y-77378995D01*
X80984945Y-77360733D01*
X80979106Y-77337429D01*
X80974999Y-77305085D01*
X80972325Y-77259704D01*
X80970781Y-77197287D01*
X80970734Y-77191748D01*
X81071429Y-77191748D01*
X81071772Y-77244577D01*
X81073942Y-77292362D01*
X81079307Y-77323209D01*
X81089217Y-77343935D01*
X81105021Y-77361356D01*
X81108724Y-77364705D01*
X81156299Y-77389419D01*
X81206635Y-77386890D01*
X81253517Y-77357288D01*
X81267477Y-77341953D01*
X81279160Y-77321622D01*
X81285686Y-77293514D01*
X81288524Y-77250550D01*
X81289143Y-77185647D01*
X81288837Y-77136122D01*
X81286722Y-77087782D01*
X81281390Y-77056587D01*
X81271460Y-77035647D01*
X81255550Y-77018073D01*
X81246204Y-77010159D01*
X81197776Y-76988843D01*
X81147040Y-76992198D01*
X81102987Y-77020107D01*
X81093504Y-77031173D01*
X81081939Y-77052009D01*
X81075252Y-77081106D01*
X81072173Y-77125381D01*
X81071429Y-77191748D01*
X80970734Y-77191748D01*
X80970067Y-77113837D01*
X80969883Y-77005358D01*
X80969829Y-76668601D01*
X81017000Y-76688362D01*
X81029472Y-76693770D01*
X81049324Y-76705985D01*
X81060687Y-76724482D01*
X81066933Y-76756829D01*
X81071429Y-76810593D01*
X81075535Y-76858866D01*
X81080963Y-76890557D01*
X81088739Y-76902383D01*
X81100457Y-76899212D01*
X81130318Y-76888067D01*
X81183684Y-76885304D01*
X81241093Y-76895625D01*
X81290625Y-76917861D01*
X81317876Y-76938443D01*
X81352865Y-76978600D01*
X81375274Y-77030086D01*
X81387190Y-77098568D01*
X81390542Y-77185647D01*
X81390698Y-77189714D01*
X81389537Y-77246313D01*
G36*
X79300307Y-77231305D02*
G01*
X79296762Y-77307521D01*
X79287483Y-77363294D01*
X79270375Y-77404613D01*
X79243344Y-77437467D01*
X79204292Y-77467846D01*
X79179445Y-77481660D01*
X79139615Y-77490965D01*
X79083665Y-77490230D01*
X79052385Y-77487283D01*
X79014653Y-77478283D01*
X78984494Y-77458720D01*
X78949408Y-77422267D01*
X78944720Y-77416943D01*
X78913177Y-77375969D01*
X78898128Y-77340283D01*
X78894286Y-77297966D01*
X78894286Y-77235779D01*
X78937742Y-77252182D01*
X78969424Y-77271356D01*
X78996962Y-77316347D01*
X79002711Y-77330752D01*
X79034855Y-77371546D01*
X79078611Y-77392081D01*
X79126254Y-77390235D01*
X79170057Y-77363886D01*
X79185111Y-77347455D01*
X79198763Y-77322667D01*
X79194493Y-77300144D01*
X79169916Y-77276964D01*
X79122651Y-77250202D01*
X79050314Y-77216934D01*
X78901543Y-77151816D01*
X78897595Y-77087308D01*
X78899079Y-77046220D01*
X78996010Y-77046220D01*
X79003368Y-77071657D01*
X79036848Y-77098814D01*
X79097614Y-77129714D01*
X79107669Y-77134190D01*
X79155751Y-77155017D01*
X79191726Y-77169665D01*
X79208444Y-77175200D01*
X79210977Y-77171126D01*
X79211993Y-77146247D01*
X79208369Y-77106257D01*
X79199242Y-77067152D01*
X79170773Y-77017884D01*
X79129678Y-76990122D01*
X79080590Y-76986364D01*
X79028144Y-77009109D01*
X79013609Y-77020481D01*
X78996010Y-77046220D01*
X78899079Y-77046220D01*
X78899338Y-77039064D01*
X78921281Y-76978096D01*
X78948979Y-76944497D01*
X79006405Y-76906966D01*
X79074527Y-76888006D01*
X79144947Y-76889507D01*
X79209267Y-76913355D01*
X79223426Y-76922513D01*
X79255904Y-76950849D01*
X79278116Y-76986695D01*
X79291804Y-77035384D01*
X79298715Y-77102249D01*
X79299628Y-77146247D01*
X79300590Y-77192622D01*
X79300307Y-77231305D01*
G37*
X79300307Y-77231305D02*
X79296762Y-77307521D01*
X79287483Y-77363294D01*
X79270375Y-77404613D01*
X79243344Y-77437467D01*
X79204292Y-77467846D01*
X79179445Y-77481660D01*
X79139615Y-77490965D01*
X79083665Y-77490230D01*
X79052385Y-77487283D01*
X79014653Y-77478283D01*
X78984494Y-77458720D01*
X78949408Y-77422267D01*
X78944720Y-77416943D01*
X78913177Y-77375969D01*
X78898128Y-77340283D01*
X78894286Y-77297966D01*
X78894286Y-77235779D01*
X78937742Y-77252182D01*
X78969424Y-77271356D01*
X78996962Y-77316347D01*
X79002711Y-77330752D01*
X79034855Y-77371546D01*
X79078611Y-77392081D01*
X79126254Y-77390235D01*
X79170057Y-77363886D01*
X79185111Y-77347455D01*
X79198763Y-77322667D01*
X79194493Y-77300144D01*
X79169916Y-77276964D01*
X79122651Y-77250202D01*
X79050314Y-77216934D01*
X78901543Y-77151816D01*
X78897595Y-77087308D01*
X78899079Y-77046220D01*
X78996010Y-77046220D01*
X79003368Y-77071657D01*
X79036848Y-77098814D01*
X79097614Y-77129714D01*
X79107669Y-77134190D01*
X79155751Y-77155017D01*
X79191726Y-77169665D01*
X79208444Y-77175200D01*
X79210977Y-77171126D01*
X79211993Y-77146247D01*
X79208369Y-77106257D01*
X79199242Y-77067152D01*
X79170773Y-77017884D01*
X79129678Y-76990122D01*
X79080590Y-76986364D01*
X79028144Y-77009109D01*
X79013609Y-77020481D01*
X78996010Y-77046220D01*
X78899079Y-77046220D01*
X78899338Y-77039064D01*
X78921281Y-76978096D01*
X78948979Y-76944497D01*
X79006405Y-76906966D01*
X79074527Y-76888006D01*
X79144947Y-76889507D01*
X79209267Y-76913355D01*
X79223426Y-76922513D01*
X79255904Y-76950849D01*
X79278116Y-76986695D01*
X79291804Y-77035384D01*
X79298715Y-77102249D01*
X79299628Y-77146247D01*
X79300590Y-77192622D01*
X79300307Y-77231305D01*
G36*
X81767691Y-76906467D02*
G01*
X81772273Y-76909003D01*
X81809704Y-76938057D01*
X81843170Y-76975410D01*
X81849007Y-76983852D01*
X81860165Y-77003553D01*
X81868136Y-77026935D01*
X81873618Y-77059067D01*
X81877307Y-77105019D01*
X81879899Y-77169859D01*
X81882092Y-77258657D01*
X81882402Y-77273669D01*
X81883400Y-77370999D01*
X81881994Y-77439934D01*
X81878164Y-77480948D01*
X81871889Y-77494514D01*
X81852898Y-77490452D01*
X81820638Y-77478144D01*
X81813041Y-77474545D01*
X81801176Y-77466398D01*
X81792994Y-77453004D01*
X81787643Y-77429608D01*
X81784269Y-77391455D01*
X81782019Y-77333790D01*
X81780040Y-77251857D01*
X81779498Y-77227907D01*
X81777403Y-77152266D01*
X81774683Y-77099328D01*
X81770515Y-77064075D01*
X81764079Y-77041487D01*
X81754550Y-77026544D01*
X81741106Y-77014227D01*
X81701305Y-76992634D01*
X81652341Y-76988476D01*
X81608529Y-77004999D01*
X81577008Y-77039210D01*
X81564914Y-77088114D01*
X81564578Y-77101407D01*
X81557972Y-77125472D01*
X81538470Y-77129144D01*
X81500283Y-77114813D01*
X81491438Y-77110217D01*
X81467534Y-77083186D01*
X81467061Y-77042994D01*
X81489836Y-76987409D01*
X81510727Y-76957117D01*
X81564142Y-76914084D01*
X81630074Y-76889755D01*
X81700574Y-76886443D01*
X81767691Y-76906467D01*
G37*
X81767691Y-76906467D02*
X81772273Y-76909003D01*
X81809704Y-76938057D01*
X81843170Y-76975410D01*
X81849007Y-76983852D01*
X81860165Y-77003553D01*
X81868136Y-77026935D01*
X81873618Y-77059067D01*
X81877307Y-77105019D01*
X81879899Y-77169859D01*
X81882092Y-77258657D01*
X81882402Y-77273669D01*
X81883400Y-77370999D01*
X81881994Y-77439934D01*
X81878164Y-77480948D01*
X81871889Y-77494514D01*
X81852898Y-77490452D01*
X81820638Y-77478144D01*
X81813041Y-77474545D01*
X81801176Y-77466398D01*
X81792994Y-77453004D01*
X81787643Y-77429608D01*
X81784269Y-77391455D01*
X81782019Y-77333790D01*
X81780040Y-77251857D01*
X81779498Y-77227907D01*
X81777403Y-77152266D01*
X81774683Y-77099328D01*
X81770515Y-77064075D01*
X81764079Y-77041487D01*
X81754550Y-77026544D01*
X81741106Y-77014227D01*
X81701305Y-76992634D01*
X81652341Y-76988476D01*
X81608529Y-77004999D01*
X81577008Y-77039210D01*
X81564914Y-77088114D01*
X81564578Y-77101407D01*
X81557972Y-77125472D01*
X81538470Y-77129144D01*
X81500283Y-77114813D01*
X81491438Y-77110217D01*
X81467534Y-77083186D01*
X81467061Y-77042994D01*
X81489836Y-76987409D01*
X81510727Y-76957117D01*
X81564142Y-76914084D01*
X81630074Y-76889755D01*
X81700574Y-76886443D01*
X81767691Y-76906467D01*
G36*
X82249483Y-76900569D02*
G01*
X82299376Y-76929661D01*
X82321325Y-76952327D01*
X82363504Y-77020082D01*
X82377714Y-77093950D01*
X82377714Y-77144770D01*
X82330999Y-77125128D01*
X82298692Y-77105308D01*
X82273231Y-77064160D01*
X82270616Y-77055675D01*
X82242478Y-77012451D01*
X82200067Y-76989103D01*
X82151370Y-76988100D01*
X82104373Y-77011914D01*
X82097357Y-77018056D01*
X82073893Y-77044745D01*
X82070019Y-77068014D01*
X82087768Y-77090862D01*
X82129179Y-77116287D01*
X82196286Y-77147288D01*
X82200824Y-77149252D01*
X82275322Y-77183990D01*
X82326203Y-77214763D01*
X82357525Y-77245488D01*
X82373343Y-77280082D01*
X82377714Y-77322462D01*
X82371986Y-77369446D01*
X82343062Y-77429585D01*
X82292178Y-77472788D01*
X82255374Y-77485759D01*
X82203434Y-77492856D01*
X82152999Y-77491340D01*
X82116983Y-77480632D01*
X82113158Y-77477966D01*
X82102998Y-77459337D01*
X82110048Y-77426505D01*
X82122297Y-77400735D01*
X82141939Y-77390006D01*
X82179191Y-77390539D01*
X82230908Y-77387462D01*
X82264701Y-77366212D01*
X82276114Y-77326877D01*
X82276104Y-77325747D01*
X82269187Y-77302913D01*
X82245659Y-77281963D01*
X82199914Y-77257815D01*
X82137704Y-77228741D01*
X82096499Y-77212925D01*
X82072712Y-77213944D01*
X82061597Y-77234837D01*
X82058408Y-77278641D01*
X82058400Y-77348393D01*
X82058044Y-77391452D01*
X82056413Y-77444626D01*
X82053761Y-77481022D01*
X82050422Y-77494514D01*
X82049530Y-77494423D01*
X82030237Y-77487110D01*
X81998284Y-77471678D01*
X81954124Y-77448842D01*
X81959371Y-77243078D01*
X81959736Y-77229432D01*
X81963904Y-77133651D01*
X81971268Y-77061462D01*
X81983330Y-77008058D01*
X82001593Y-76968633D01*
X82027560Y-76938380D01*
X82062733Y-76912493D01*
X82063384Y-76912087D01*
X82120256Y-76890968D01*
X82186033Y-76887400D01*
X82249483Y-76900569D01*
G37*
X82249483Y-76900569D02*
X82299376Y-76929661D01*
X82321325Y-76952327D01*
X82363504Y-77020082D01*
X82377714Y-77093950D01*
X82377714Y-77144770D01*
X82330999Y-77125128D01*
X82298692Y-77105308D01*
X82273231Y-77064160D01*
X82270616Y-77055675D01*
X82242478Y-77012451D01*
X82200067Y-76989103D01*
X82151370Y-76988100D01*
X82104373Y-77011914D01*
X82097357Y-77018056D01*
X82073893Y-77044745D01*
X82070019Y-77068014D01*
X82087768Y-77090862D01*
X82129179Y-77116287D01*
X82196286Y-77147288D01*
X82200824Y-77149252D01*
X82275322Y-77183990D01*
X82326203Y-77214763D01*
X82357525Y-77245488D01*
X82373343Y-77280082D01*
X82377714Y-77322462D01*
X82371986Y-77369446D01*
X82343062Y-77429585D01*
X82292178Y-77472788D01*
X82255374Y-77485759D01*
X82203434Y-77492856D01*
X82152999Y-77491340D01*
X82116983Y-77480632D01*
X82113158Y-77477966D01*
X82102998Y-77459337D01*
X82110048Y-77426505D01*
X82122297Y-77400735D01*
X82141939Y-77390006D01*
X82179191Y-77390539D01*
X82230908Y-77387462D01*
X82264701Y-77366212D01*
X82276114Y-77326877D01*
X82276104Y-77325747D01*
X82269187Y-77302913D01*
X82245659Y-77281963D01*
X82199914Y-77257815D01*
X82137704Y-77228741D01*
X82096499Y-77212925D01*
X82072712Y-77213944D01*
X82061597Y-77234837D01*
X82058408Y-77278641D01*
X82058400Y-77348393D01*
X82058044Y-77391452D01*
X82056413Y-77444626D01*
X82053761Y-77481022D01*
X82050422Y-77494514D01*
X82049530Y-77494423D01*
X82030237Y-77487110D01*
X81998284Y-77471678D01*
X81954124Y-77448842D01*
X81959371Y-77243078D01*
X81959736Y-77229432D01*
X81963904Y-77133651D01*
X81971268Y-77061462D01*
X81983330Y-77008058D01*
X82001593Y-76968633D01*
X82027560Y-76938380D01*
X82062733Y-76912493D01*
X82063384Y-76912087D01*
X82120256Y-76890968D01*
X82186033Y-76887400D01*
X82249483Y-76900569D01*
G36*
X84317684Y-77244078D02*
G01*
X84315078Y-77267387D01*
X84295660Y-77350352D01*
X84260573Y-77413448D01*
X84207212Y-77461808D01*
X84204196Y-77463804D01*
X84136362Y-77492185D01*
X84065535Y-77494711D01*
X83997289Y-77473097D01*
X83937196Y-77429062D01*
X83890829Y-77364322D01*
X83890050Y-77362761D01*
X83874643Y-77322558D01*
X83863357Y-77276866D01*
X83857370Y-77233972D01*
X83857861Y-77202160D01*
X83866007Y-77189714D01*
X83873244Y-77190471D01*
X83907851Y-77204235D01*
X83947078Y-77229546D01*
X83980448Y-77258845D01*
X83997483Y-77284572D01*
X84015192Y-77319471D01*
X84051485Y-77351212D01*
X84093630Y-77363886D01*
X84109077Y-77360221D01*
X84139569Y-77341774D01*
X84166128Y-77316166D01*
X84177486Y-77292934D01*
X84177482Y-77292848D01*
X84164596Y-77282179D01*
X84130241Y-77262933D01*
X84079593Y-77237813D01*
X84017829Y-77209524D01*
X84017489Y-77209374D01*
X83950388Y-77179498D01*
X83905411Y-77157973D01*
X83878145Y-77141437D01*
X83864178Y-77126531D01*
X83859097Y-77109893D01*
X83858490Y-77088162D01*
X83862712Y-77047013D01*
X84006000Y-77047013D01*
X84020791Y-77059949D01*
X84057644Y-77079333D01*
X84058725Y-77079881D01*
X84102205Y-77100587D01*
X84141102Y-77117105D01*
X84165778Y-77124093D01*
X84175676Y-77114753D01*
X84177486Y-77082748D01*
X84169966Y-77042915D01*
X84143897Y-77006717D01*
X84106154Y-76987950D01*
X84064077Y-76989845D01*
X84025005Y-77015632D01*
X84009647Y-77033451D01*
X84006000Y-77047013D01*
X83862712Y-77047013D01*
X83863833Y-77036086D01*
X83890251Y-76965335D01*
X83934473Y-76909735D01*
X83991697Y-76871239D01*
X84057120Y-76851797D01*
X84125937Y-76853359D01*
X84193347Y-76877878D01*
X84254544Y-76927302D01*
X84288450Y-76976212D01*
X84312806Y-77046027D01*
X84316767Y-77082748D01*
X84322299Y-77134055D01*
X84317684Y-77244078D01*
G37*
X84317684Y-77244078D02*
X84315078Y-77267387D01*
X84295660Y-77350352D01*
X84260573Y-77413448D01*
X84207212Y-77461808D01*
X84204196Y-77463804D01*
X84136362Y-77492185D01*
X84065535Y-77494711D01*
X83997289Y-77473097D01*
X83937196Y-77429062D01*
X83890829Y-77364322D01*
X83890050Y-77362761D01*
X83874643Y-77322558D01*
X83863357Y-77276866D01*
X83857370Y-77233972D01*
X83857861Y-77202160D01*
X83866007Y-77189714D01*
X83873244Y-77190471D01*
X83907851Y-77204235D01*
X83947078Y-77229546D01*
X83980448Y-77258845D01*
X83997483Y-77284572D01*
X84015192Y-77319471D01*
X84051485Y-77351212D01*
X84093630Y-77363886D01*
X84109077Y-77360221D01*
X84139569Y-77341774D01*
X84166128Y-77316166D01*
X84177486Y-77292934D01*
X84177482Y-77292848D01*
X84164596Y-77282179D01*
X84130241Y-77262933D01*
X84079593Y-77237813D01*
X84017829Y-77209524D01*
X84017489Y-77209374D01*
X83950388Y-77179498D01*
X83905411Y-77157973D01*
X83878145Y-77141437D01*
X83864178Y-77126531D01*
X83859097Y-77109893D01*
X83858490Y-77088162D01*
X83862712Y-77047013D01*
X84006000Y-77047013D01*
X84020791Y-77059949D01*
X84057644Y-77079333D01*
X84058725Y-77079881D01*
X84102205Y-77100587D01*
X84141102Y-77117105D01*
X84165778Y-77124093D01*
X84175676Y-77114753D01*
X84177486Y-77082748D01*
X84169966Y-77042915D01*
X84143897Y-77006717D01*
X84106154Y-76987950D01*
X84064077Y-76989845D01*
X84025005Y-77015632D01*
X84009647Y-77033451D01*
X84006000Y-77047013D01*
X83862712Y-77047013D01*
X83863833Y-77036086D01*
X83890251Y-76965335D01*
X83934473Y-76909735D01*
X83991697Y-76871239D01*
X84057120Y-76851797D01*
X84125937Y-76853359D01*
X84193347Y-76877878D01*
X84254544Y-76927302D01*
X84288450Y-76976212D01*
X84312806Y-77046027D01*
X84316767Y-77082748D01*
X84322299Y-77134055D01*
X84317684Y-77244078D01*
G36*
X80127495Y-76886220D02*
G01*
X80158599Y-76894121D01*
X80187559Y-76913817D01*
X80224831Y-76950484D01*
X80248801Y-76976378D01*
X80273770Y-77009997D01*
X80285031Y-77041506D01*
X80287657Y-77081485D01*
X80287657Y-77146917D01*
X80243035Y-77123842D01*
X80207673Y-77095724D01*
X80183451Y-77057848D01*
X80179291Y-77047551D01*
X80147594Y-77007637D01*
X80103554Y-76987624D01*
X80055531Y-76989572D01*
X80011886Y-77015543D01*
X79993420Y-77036635D01*
X79982663Y-77063619D01*
X79994178Y-77087634D01*
X80029981Y-77111791D01*
X80092090Y-77139199D01*
X80101515Y-77142985D01*
X80158058Y-77167759D01*
X80206580Y-77192189D01*
X80237451Y-77211486D01*
X80268371Y-77245953D01*
X80288927Y-77300957D01*
X80286744Y-77359983D01*
X80262424Y-77415845D01*
X80216568Y-77461355D01*
X80179438Y-77480727D01*
X80107711Y-77494292D01*
X80067852Y-77492462D01*
X80030953Y-77482568D01*
X80016797Y-77461806D01*
X80022091Y-77427613D01*
X80023631Y-77423092D01*
X80035842Y-77399116D01*
X80056174Y-77390042D01*
X80094908Y-77390649D01*
X80122257Y-77391474D01*
X80154257Y-77384392D01*
X80176182Y-77363219D01*
X80188670Y-77337152D01*
X80190062Y-77309845D01*
X80189998Y-77309685D01*
X80173807Y-77294930D01*
X80139155Y-77273457D01*
X80094321Y-77249458D01*
X80047582Y-77227125D01*
X80007217Y-77210652D01*
X79981504Y-77204229D01*
X79977679Y-77210518D01*
X79972864Y-77240115D01*
X79969566Y-77288447D01*
X79968343Y-77349372D01*
X79968058Y-77391542D01*
X79966718Y-77444653D01*
X79964528Y-77481025D01*
X79961769Y-77494514D01*
X79947344Y-77489981D01*
X79918226Y-77477670D01*
X79881257Y-77460826D01*
X79881257Y-77244721D01*
X79881493Y-77189327D01*
X79883729Y-77105207D01*
X79889423Y-77042800D01*
X79899903Y-76997358D01*
X79916497Y-76964133D01*
X79940531Y-76938378D01*
X79973333Y-76915344D01*
X80015124Y-76896335D01*
X80092287Y-76884914D01*
X80127495Y-76886220D01*
G37*
X80127495Y-76886220D02*
X80158599Y-76894121D01*
X80187559Y-76913817D01*
X80224831Y-76950484D01*
X80248801Y-76976378D01*
X80273770Y-77009997D01*
X80285031Y-77041506D01*
X80287657Y-77081485D01*
X80287657Y-77146917D01*
X80243035Y-77123842D01*
X80207673Y-77095724D01*
X80183451Y-77057848D01*
X80179291Y-77047551D01*
X80147594Y-77007637D01*
X80103554Y-76987624D01*
X80055531Y-76989572D01*
X80011886Y-77015543D01*
X79993420Y-77036635D01*
X79982663Y-77063619D01*
X79994178Y-77087634D01*
X80029981Y-77111791D01*
X80092090Y-77139199D01*
X80101515Y-77142985D01*
X80158058Y-77167759D01*
X80206580Y-77192189D01*
X80237451Y-77211486D01*
X80268371Y-77245953D01*
X80288927Y-77300957D01*
X80286744Y-77359983D01*
X80262424Y-77415845D01*
X80216568Y-77461355D01*
X80179438Y-77480727D01*
X80107711Y-77494292D01*
X80067852Y-77492462D01*
X80030953Y-77482568D01*
X80016797Y-77461806D01*
X80022091Y-77427613D01*
X80023631Y-77423092D01*
X80035842Y-77399116D01*
X80056174Y-77390042D01*
X80094908Y-77390649D01*
X80122257Y-77391474D01*
X80154257Y-77384392D01*
X80176182Y-77363219D01*
X80188670Y-77337152D01*
X80190062Y-77309845D01*
X80189998Y-77309685D01*
X80173807Y-77294930D01*
X80139155Y-77273457D01*
X80094321Y-77249458D01*
X80047582Y-77227125D01*
X80007217Y-77210652D01*
X79981504Y-77204229D01*
X79977679Y-77210518D01*
X79972864Y-77240115D01*
X79969566Y-77288447D01*
X79968343Y-77349372D01*
X79968058Y-77391542D01*
X79966718Y-77444653D01*
X79964528Y-77481025D01*
X79961769Y-77494514D01*
X79947344Y-77489981D01*
X79918226Y-77477670D01*
X79881257Y-77460826D01*
X79881257Y-77244721D01*
X79881493Y-77189327D01*
X79883729Y-77105207D01*
X79889423Y-77042800D01*
X79899903Y-76997358D01*
X79916497Y-76964133D01*
X79940531Y-76938378D01*
X79973333Y-76915344D01*
X80015124Y-76896335D01*
X80092287Y-76884914D01*
X80127495Y-76886220D01*
G36*
X79642829Y-76891097D02*
G01*
X79702753Y-76913355D01*
X79727673Y-76930080D01*
X79752910Y-76954043D01*
X79770912Y-76984526D01*
X79782858Y-77026023D01*
X79789930Y-77083032D01*
X79793308Y-77160047D01*
X79794171Y-77261565D01*
X79794002Y-77314027D01*
X79793153Y-77385715D01*
X79791711Y-77442925D01*
X79789814Y-77480809D01*
X79787597Y-77494514D01*
X79773172Y-77489981D01*
X79744054Y-77477670D01*
X79743181Y-77477272D01*
X79728060Y-77469356D01*
X79717891Y-77458495D01*
X79711691Y-77439471D01*
X79708478Y-77407069D01*
X79707270Y-77356071D01*
X79707086Y-77281261D01*
X79706714Y-77233804D01*
X79702750Y-77144615D01*
X79693673Y-77079287D01*
X79678524Y-77034393D01*
X79656345Y-77006507D01*
X79626175Y-76992203D01*
X79621990Y-76991206D01*
X79565480Y-76990427D01*
X79521410Y-77015744D01*
X79490972Y-77066502D01*
X79485544Y-77081175D01*
X79473171Y-77113649D01*
X79466905Y-77128572D01*
X79454036Y-77126516D01*
X79425933Y-77115357D01*
X79399721Y-77096927D01*
X79387771Y-77062098D01*
X79391336Y-77037151D01*
X79413235Y-76986547D01*
X79448644Y-76939128D01*
X79490052Y-76906334D01*
X79507400Y-76898752D01*
X79573089Y-76886076D01*
X79642829Y-76891097D01*
G37*
X79642829Y-76891097D02*
X79702753Y-76913355D01*
X79727673Y-76930080D01*
X79752910Y-76954043D01*
X79770912Y-76984526D01*
X79782858Y-77026023D01*
X79789930Y-77083032D01*
X79793308Y-77160047D01*
X79794171Y-77261565D01*
X79794002Y-77314027D01*
X79793153Y-77385715D01*
X79791711Y-77442925D01*
X79789814Y-77480809D01*
X79787597Y-77494514D01*
X79773172Y-77489981D01*
X79744054Y-77477670D01*
X79743181Y-77477272D01*
X79728060Y-77469356D01*
X79717891Y-77458495D01*
X79711691Y-77439471D01*
X79708478Y-77407069D01*
X79707270Y-77356071D01*
X79707086Y-77281261D01*
X79706714Y-77233804D01*
X79702750Y-77144615D01*
X79693673Y-77079287D01*
X79678524Y-77034393D01*
X79656345Y-77006507D01*
X79626175Y-76992203D01*
X79621990Y-76991206D01*
X79565480Y-76990427D01*
X79521410Y-77015744D01*
X79490972Y-77066502D01*
X79485544Y-77081175D01*
X79473171Y-77113649D01*
X79466905Y-77128572D01*
X79454036Y-77126516D01*
X79425933Y-77115357D01*
X79399721Y-77096927D01*
X79387771Y-77062098D01*
X79391336Y-77037151D01*
X79413235Y-76986547D01*
X79448644Y-76939128D01*
X79490052Y-76906334D01*
X79507400Y-76898752D01*
X79573089Y-76886076D01*
X79642829Y-76891097D01*
G36*
X82273933Y-72182371D02*
G01*
X82349856Y-72182865D01*
X82404491Y-72184135D01*
X82441500Y-72186547D01*
X82464547Y-72190467D01*
X82477296Y-72196262D01*
X82483411Y-72204299D01*
X82486556Y-72214943D01*
X82486646Y-72215325D01*
X82491814Y-72240347D01*
X82501209Y-72288681D01*
X82513867Y-72355260D01*
X82528825Y-72435014D01*
X82545119Y-72522875D01*
X82546448Y-72530064D01*
X82562691Y-72615340D01*
X82577805Y-72690242D01*
X82590808Y-72750219D01*
X82600715Y-72790717D01*
X82606544Y-72807184D01*
X82606575Y-72807210D01*
X82624943Y-72816320D01*
X82662640Y-72831457D01*
X82711543Y-72849358D01*
X82714297Y-72850330D01*
X82776817Y-72873959D01*
X82849543Y-72903595D01*
X82917294Y-72933062D01*
X83028703Y-72983626D01*
X83275399Y-72815160D01*
X83292775Y-72803311D01*
X83367202Y-72752947D01*
X83433614Y-72708612D01*
X83488039Y-72672916D01*
X83526506Y-72648471D01*
X83545042Y-72637889D01*
X83557743Y-72640315D01*
X83586579Y-72659110D01*
X83631143Y-72696330D01*
X83692670Y-72753020D01*
X83772398Y-72830227D01*
X83779532Y-72837255D01*
X83842796Y-72900222D01*
X83898990Y-72957268D01*
X83944677Y-73004817D01*
X83976414Y-73039297D01*
X83990764Y-73057131D01*
X83990810Y-73057217D01*
X83992633Y-73070795D01*
X83985910Y-73092820D01*
X83968946Y-73126304D01*
X83940044Y-73174261D01*
X83897508Y-73239704D01*
X83839644Y-73325645D01*
X83829783Y-73340151D01*
X83779913Y-73413635D01*
X83735905Y-73478687D01*
X83700380Y-73531417D01*
X83675959Y-73567936D01*
X83665264Y-73584356D01*
X83664458Y-73587834D01*
X83669518Y-73613785D01*
X83684677Y-73656159D01*
X83707463Y-73707728D01*
X83738429Y-73775170D01*
X83773004Y-73855195D01*
X83802366Y-73927629D01*
X83809645Y-73946377D01*
X83828710Y-73994246D01*
X83842715Y-74027596D01*
X83849041Y-74040114D01*
X83856025Y-74041050D01*
X83887413Y-74046461D01*
X83938787Y-74055806D01*
X84004802Y-74068069D01*
X84080113Y-74082232D01*
X84159375Y-74097280D01*
X84237243Y-74112195D01*
X84308370Y-74125961D01*
X84367412Y-74137562D01*
X84409022Y-74145980D01*
X84427857Y-74150199D01*
X84430980Y-74151389D01*
X84438591Y-74157805D01*
X84444254Y-74171465D01*
X84448251Y-74195999D01*
X84450866Y-74235038D01*
X84452384Y-74292213D01*
X84453086Y-74371154D01*
X84453257Y-74475492D01*
X84453257Y-74792799D01*
X84377057Y-74807839D01*
X84367840Y-74809642D01*
X84318891Y-74818980D01*
X84251205Y-74831669D01*
X84172478Y-74846273D01*
X84090400Y-74861355D01*
X84058078Y-74867422D01*
X83985855Y-74882181D01*
X83925666Y-74896137D01*
X83883040Y-74907952D01*
X83863510Y-74916287D01*
X83854660Y-74929905D01*
X83838548Y-74965938D01*
X83822065Y-75012572D01*
X83816263Y-75030034D01*
X83794906Y-75087358D01*
X83767359Y-75155201D01*
X83738107Y-75222355D01*
X83722463Y-75257430D01*
X83700174Y-75309822D01*
X83684857Y-75349058D01*
X83679162Y-75368563D01*
X83679478Y-75370036D01*
X83690281Y-75390729D01*
X83714638Y-75430665D01*
X83750081Y-75485972D01*
X83794136Y-75552781D01*
X83844332Y-75627220D01*
X84009501Y-75869623D01*
X83792503Y-76086983D01*
X83771516Y-76107899D01*
X83707342Y-76170505D01*
X83649990Y-76224495D01*
X83602820Y-76266826D01*
X83569192Y-76294457D01*
X83552467Y-76304343D01*
X83534303Y-76296821D01*
X83496265Y-76275227D01*
X83442726Y-76242151D01*
X83377884Y-76200191D01*
X83305940Y-76151943D01*
X83235275Y-76104291D01*
X83171526Y-76062328D01*
X83119513Y-76029165D01*
X83083279Y-76007378D01*
X83066867Y-75999543D01*
X83065905Y-75999614D01*
X83044103Y-76007338D01*
X83005440Y-76025323D01*
X82957612Y-76050013D01*
X82957110Y-76050284D01*
X82893587Y-76082099D01*
X82850060Y-76097642D01*
X82823052Y-76097685D01*
X82809090Y-76083000D01*
X82803180Y-76068544D01*
X82787229Y-76029831D01*
X82762660Y-75970316D01*
X82730779Y-75893165D01*
X82692893Y-75801541D01*
X82650310Y-75698607D01*
X82604337Y-75587526D01*
X82562667Y-75486472D01*
X82520268Y-75382780D01*
X82482756Y-75290119D01*
X82451388Y-75211642D01*
X82427425Y-75150500D01*
X82412123Y-75109843D01*
X82406743Y-75092825D01*
X82417018Y-75077219D01*
X82445563Y-75051162D01*
X82485971Y-75020887D01*
X82582979Y-74941684D01*
X82669793Y-74840475D01*
X82733322Y-74729116D01*
X82773177Y-74610893D01*
X82788965Y-74489095D01*
X82780296Y-74367010D01*
X82746778Y-74247925D01*
X82688021Y-74135129D01*
X82603632Y-74031911D01*
X82559631Y-73991713D01*
X82454211Y-73920638D01*
X82341410Y-73874301D01*
X82224525Y-73851599D01*
X82106853Y-73851428D01*
X81991690Y-73872687D01*
X81882335Y-73914270D01*
X81782083Y-73975076D01*
X81694233Y-74054001D01*
X81622080Y-74149941D01*
X81568922Y-74261795D01*
X81538057Y-74388457D01*
X81532392Y-74449507D01*
X81540185Y-74581776D01*
X81575284Y-74707266D01*
X81636649Y-74823759D01*
X81723243Y-74929039D01*
X81834029Y-75020887D01*
X81872931Y-75049930D01*
X81902104Y-75076272D01*
X81913257Y-75092800D01*
X81908810Y-75107209D01*
X81894378Y-75145815D01*
X81871173Y-75205201D01*
X81840452Y-75282215D01*
X81803474Y-75373703D01*
X81761496Y-75476516D01*
X81715778Y-75587502D01*
X81674178Y-75688072D01*
X81631222Y-75791947D01*
X81592829Y-75884819D01*
X81560305Y-75963525D01*
X81534958Y-76024899D01*
X81518095Y-76065779D01*
X81511025Y-76083000D01*
X81510943Y-76083204D01*
X81496798Y-76097745D01*
X81469659Y-76097579D01*
X81426023Y-76081927D01*
X81362388Y-76050013D01*
X81357379Y-76047326D01*
X81310125Y-76023150D01*
X81272811Y-76006037D01*
X81253133Y-75999543D01*
X81237005Y-76007218D01*
X81200959Y-76028871D01*
X81149092Y-76061928D01*
X81085445Y-76103810D01*
X81014060Y-76151943D01*
X80943724Y-76199131D01*
X80878670Y-76241267D01*
X80824820Y-76274578D01*
X80786374Y-76296469D01*
X80767534Y-76304343D01*
X80764325Y-76303343D01*
X80741954Y-76287584D01*
X80703733Y-76255033D01*
X80653021Y-76208733D01*
X80593181Y-76151726D01*
X80527571Y-76087058D01*
X80310648Y-75869772D01*
X80479601Y-75621253D01*
X80648553Y-75372733D01*
X80597183Y-75261595D01*
X80597031Y-75261266D01*
X80566183Y-75190418D01*
X80534661Y-75111523D01*
X80509266Y-75041600D01*
X80505423Y-75030322D01*
X80486047Y-74977967D01*
X80468574Y-74937283D01*
X80456388Y-74916287D01*
X80451426Y-74913322D01*
X80421634Y-74903375D01*
X80371047Y-74890505D01*
X80305194Y-74876053D01*
X80229600Y-74861355D01*
X80206957Y-74857210D01*
X80125038Y-74842116D01*
X80048600Y-74827899D01*
X79985337Y-74815995D01*
X79942943Y-74807839D01*
X79866743Y-74792799D01*
X79866743Y-74475492D01*
X79866760Y-74436476D01*
X79867082Y-74341292D01*
X79868033Y-74270255D01*
X79869896Y-74219734D01*
X79872955Y-74186098D01*
X79877494Y-74165718D01*
X79883795Y-74154962D01*
X79892143Y-74150199D01*
X79900224Y-74148270D01*
X79933172Y-74141445D01*
X79985736Y-74131022D01*
X80052569Y-74118018D01*
X80128328Y-74103449D01*
X80207665Y-74088333D01*
X80285237Y-74073685D01*
X80355698Y-74060523D01*
X80413702Y-74049863D01*
X80453904Y-74042721D01*
X80470959Y-74040114D01*
X80472112Y-74038541D01*
X80481385Y-74018119D01*
X80497432Y-73979045D01*
X80517635Y-73927629D01*
X80545672Y-73858353D01*
X80580186Y-73778290D01*
X80612538Y-73707728D01*
X80619952Y-73691889D01*
X80640755Y-73642293D01*
X80653219Y-73604038D01*
X80654863Y-73584356D01*
X80654015Y-73582962D01*
X80640548Y-73562420D01*
X80613850Y-73522516D01*
X80576539Y-73467140D01*
X80531234Y-73400177D01*
X80480552Y-73325517D01*
X80423445Y-73240692D01*
X80380607Y-73174800D01*
X80351460Y-73126478D01*
X80334317Y-73092733D01*
X80327495Y-73070572D01*
X80329306Y-73057002D01*
X80329915Y-73055984D01*
X80346297Y-73036210D01*
X80379695Y-73000175D01*
X80426671Y-72951451D01*
X80483786Y-72893612D01*
X80547603Y-72830227D01*
X80613802Y-72765905D01*
X80678648Y-72705447D01*
X80726299Y-72664655D01*
X80757990Y-72642484D01*
X80774958Y-72637889D01*
X80777175Y-72638921D01*
X80800524Y-72652837D01*
X80842912Y-72680030D01*
X80900369Y-72717889D01*
X80968923Y-72763803D01*
X81044601Y-72815160D01*
X81291298Y-72983626D01*
X81402706Y-72933062D01*
X81405943Y-72931597D01*
X81474343Y-72901965D01*
X81546907Y-72872493D01*
X81608457Y-72849358D01*
X81608729Y-72849262D01*
X81657595Y-72831367D01*
X81695212Y-72816253D01*
X81713457Y-72807184D01*
X81713752Y-72806855D01*
X81719946Y-72788282D01*
X81730139Y-72746045D01*
X81743348Y-72684696D01*
X81758590Y-72608789D01*
X81774881Y-72522875D01*
X81775449Y-72519796D01*
X81791713Y-72432128D01*
X81806608Y-72352741D01*
X81819171Y-72286701D01*
X81828438Y-72239079D01*
X81833444Y-72214943D01*
X81833764Y-72213605D01*
X81837060Y-72203273D01*
X81843738Y-72195506D01*
X81857462Y-72189940D01*
X81881895Y-72186207D01*
X81920702Y-72183942D01*
X81977546Y-72182778D01*
X82056090Y-72182348D01*
X82160000Y-72182286D01*
X82173056Y-72182286D01*
X82273933Y-72182371D01*
G37*
X82273933Y-72182371D02*
X82349856Y-72182865D01*
X82404491Y-72184135D01*
X82441500Y-72186547D01*
X82464547Y-72190467D01*
X82477296Y-72196262D01*
X82483411Y-72204299D01*
X82486556Y-72214943D01*
X82486646Y-72215325D01*
X82491814Y-72240347D01*
X82501209Y-72288681D01*
X82513867Y-72355260D01*
X82528825Y-72435014D01*
X82545119Y-72522875D01*
X82546448Y-72530064D01*
X82562691Y-72615340D01*
X82577805Y-72690242D01*
X82590808Y-72750219D01*
X82600715Y-72790717D01*
X82606544Y-72807184D01*
X82606575Y-72807210D01*
X82624943Y-72816320D01*
X82662640Y-72831457D01*
X82711543Y-72849358D01*
X82714297Y-72850330D01*
X82776817Y-72873959D01*
X82849543Y-72903595D01*
X82917294Y-72933062D01*
X83028703Y-72983626D01*
X83275399Y-72815160D01*
X83292775Y-72803311D01*
X83367202Y-72752947D01*
X83433614Y-72708612D01*
X83488039Y-72672916D01*
X83526506Y-72648471D01*
X83545042Y-72637889D01*
X83557743Y-72640315D01*
X83586579Y-72659110D01*
X83631143Y-72696330D01*
X83692670Y-72753020D01*
X83772398Y-72830227D01*
X83779532Y-72837255D01*
X83842796Y-72900222D01*
X83898990Y-72957268D01*
X83944677Y-73004817D01*
X83976414Y-73039297D01*
X83990764Y-73057131D01*
X83990810Y-73057217D01*
X83992633Y-73070795D01*
X83985910Y-73092820D01*
X83968946Y-73126304D01*
X83940044Y-73174261D01*
X83897508Y-73239704D01*
X83839644Y-73325645D01*
X83829783Y-73340151D01*
X83779913Y-73413635D01*
X83735905Y-73478687D01*
X83700380Y-73531417D01*
X83675959Y-73567936D01*
X83665264Y-73584356D01*
X83664458Y-73587834D01*
X83669518Y-73613785D01*
X83684677Y-73656159D01*
X83707463Y-73707728D01*
X83738429Y-73775170D01*
X83773004Y-73855195D01*
X83802366Y-73927629D01*
X83809645Y-73946377D01*
X83828710Y-73994246D01*
X83842715Y-74027596D01*
X83849041Y-74040114D01*
X83856025Y-74041050D01*
X83887413Y-74046461D01*
X83938787Y-74055806D01*
X84004802Y-74068069D01*
X84080113Y-74082232D01*
X84159375Y-74097280D01*
X84237243Y-74112195D01*
X84308370Y-74125961D01*
X84367412Y-74137562D01*
X84409022Y-74145980D01*
X84427857Y-74150199D01*
X84430980Y-74151389D01*
X84438591Y-74157805D01*
X84444254Y-74171465D01*
X84448251Y-74195999D01*
X84450866Y-74235038D01*
X84452384Y-74292213D01*
X84453086Y-74371154D01*
X84453257Y-74475492D01*
X84453257Y-74792799D01*
X84377057Y-74807839D01*
X84367840Y-74809642D01*
X84318891Y-74818980D01*
X84251205Y-74831669D01*
X84172478Y-74846273D01*
X84090400Y-74861355D01*
X84058078Y-74867422D01*
X83985855Y-74882181D01*
X83925666Y-74896137D01*
X83883040Y-74907952D01*
X83863510Y-74916287D01*
X83854660Y-74929905D01*
X83838548Y-74965938D01*
X83822065Y-75012572D01*
X83816263Y-75030034D01*
X83794906Y-75087358D01*
X83767359Y-75155201D01*
X83738107Y-75222355D01*
X83722463Y-75257430D01*
X83700174Y-75309822D01*
X83684857Y-75349058D01*
X83679162Y-75368563D01*
X83679478Y-75370036D01*
X83690281Y-75390729D01*
X83714638Y-75430665D01*
X83750081Y-75485972D01*
X83794136Y-75552781D01*
X83844332Y-75627220D01*
X84009501Y-75869623D01*
X83792503Y-76086983D01*
X83771516Y-76107899D01*
X83707342Y-76170505D01*
X83649990Y-76224495D01*
X83602820Y-76266826D01*
X83569192Y-76294457D01*
X83552467Y-76304343D01*
X83534303Y-76296821D01*
X83496265Y-76275227D01*
X83442726Y-76242151D01*
X83377884Y-76200191D01*
X83305940Y-76151943D01*
X83235275Y-76104291D01*
X83171526Y-76062328D01*
X83119513Y-76029165D01*
X83083279Y-76007378D01*
X83066867Y-75999543D01*
X83065905Y-75999614D01*
X83044103Y-76007338D01*
X83005440Y-76025323D01*
X82957612Y-76050013D01*
X82957110Y-76050284D01*
X82893587Y-76082099D01*
X82850060Y-76097642D01*
X82823052Y-76097685D01*
X82809090Y-76083000D01*
X82803180Y-76068544D01*
X82787229Y-76029831D01*
X82762660Y-75970316D01*
X82730779Y-75893165D01*
X82692893Y-75801541D01*
X82650310Y-75698607D01*
X82604337Y-75587526D01*
X82562667Y-75486472D01*
X82520268Y-75382780D01*
X82482756Y-75290119D01*
X82451388Y-75211642D01*
X82427425Y-75150500D01*
X82412123Y-75109843D01*
X82406743Y-75092825D01*
X82417018Y-75077219D01*
X82445563Y-75051162D01*
X82485971Y-75020887D01*
X82582979Y-74941684D01*
X82669793Y-74840475D01*
X82733322Y-74729116D01*
X82773177Y-74610893D01*
X82788965Y-74489095D01*
X82780296Y-74367010D01*
X82746778Y-74247925D01*
X82688021Y-74135129D01*
X82603632Y-74031911D01*
X82559631Y-73991713D01*
X82454211Y-73920638D01*
X82341410Y-73874301D01*
X82224525Y-73851599D01*
X82106853Y-73851428D01*
X81991690Y-73872687D01*
X81882335Y-73914270D01*
X81782083Y-73975076D01*
X81694233Y-74054001D01*
X81622080Y-74149941D01*
X81568922Y-74261795D01*
X81538057Y-74388457D01*
X81532392Y-74449507D01*
X81540185Y-74581776D01*
X81575284Y-74707266D01*
X81636649Y-74823759D01*
X81723243Y-74929039D01*
X81834029Y-75020887D01*
X81872931Y-75049930D01*
X81902104Y-75076272D01*
X81913257Y-75092800D01*
X81908810Y-75107209D01*
X81894378Y-75145815D01*
X81871173Y-75205201D01*
X81840452Y-75282215D01*
X81803474Y-75373703D01*
X81761496Y-75476516D01*
X81715778Y-75587502D01*
X81674178Y-75688072D01*
X81631222Y-75791947D01*
X81592829Y-75884819D01*
X81560305Y-75963525D01*
X81534958Y-76024899D01*
X81518095Y-76065779D01*
X81511025Y-76083000D01*
X81510943Y-76083204D01*
X81496798Y-76097745D01*
X81469659Y-76097579D01*
X81426023Y-76081927D01*
X81362388Y-76050013D01*
X81357379Y-76047326D01*
X81310125Y-76023150D01*
X81272811Y-76006037D01*
X81253133Y-75999543D01*
X81237005Y-76007218D01*
X81200959Y-76028871D01*
X81149092Y-76061928D01*
X81085445Y-76103810D01*
X81014060Y-76151943D01*
X80943724Y-76199131D01*
X80878670Y-76241267D01*
X80824820Y-76274578D01*
X80786374Y-76296469D01*
X80767534Y-76304343D01*
X80764325Y-76303343D01*
X80741954Y-76287584D01*
X80703733Y-76255033D01*
X80653021Y-76208733D01*
X80593181Y-76151726D01*
X80527571Y-76087058D01*
X80310648Y-75869772D01*
X80479601Y-75621253D01*
X80648553Y-75372733D01*
X80597183Y-75261595D01*
X80597031Y-75261266D01*
X80566183Y-75190418D01*
X80534661Y-75111523D01*
X80509266Y-75041600D01*
X80505423Y-75030322D01*
X80486047Y-74977967D01*
X80468574Y-74937283D01*
X80456388Y-74916287D01*
X80451426Y-74913322D01*
X80421634Y-74903375D01*
X80371047Y-74890505D01*
X80305194Y-74876053D01*
X80229600Y-74861355D01*
X80206957Y-74857210D01*
X80125038Y-74842116D01*
X80048600Y-74827899D01*
X79985337Y-74815995D01*
X79942943Y-74807839D01*
X79866743Y-74792799D01*
X79866743Y-74475492D01*
X79866760Y-74436476D01*
X79867082Y-74341292D01*
X79868033Y-74270255D01*
X79869896Y-74219734D01*
X79872955Y-74186098D01*
X79877494Y-74165718D01*
X79883795Y-74154962D01*
X79892143Y-74150199D01*
X79900224Y-74148270D01*
X79933172Y-74141445D01*
X79985736Y-74131022D01*
X80052569Y-74118018D01*
X80128328Y-74103449D01*
X80207665Y-74088333D01*
X80285237Y-74073685D01*
X80355698Y-74060523D01*
X80413702Y-74049863D01*
X80453904Y-74042721D01*
X80470959Y-74040114D01*
X80472112Y-74038541D01*
X80481385Y-74018119D01*
X80497432Y-73979045D01*
X80517635Y-73927629D01*
X80545672Y-73858353D01*
X80580186Y-73778290D01*
X80612538Y-73707728D01*
X80619952Y-73691889D01*
X80640755Y-73642293D01*
X80653219Y-73604038D01*
X80654863Y-73584356D01*
X80654015Y-73582962D01*
X80640548Y-73562420D01*
X80613850Y-73522516D01*
X80576539Y-73467140D01*
X80531234Y-73400177D01*
X80480552Y-73325517D01*
X80423445Y-73240692D01*
X80380607Y-73174800D01*
X80351460Y-73126478D01*
X80334317Y-73092733D01*
X80327495Y-73070572D01*
X80329306Y-73057002D01*
X80329915Y-73055984D01*
X80346297Y-73036210D01*
X80379695Y-73000175D01*
X80426671Y-72951451D01*
X80483786Y-72893612D01*
X80547603Y-72830227D01*
X80613802Y-72765905D01*
X80678648Y-72705447D01*
X80726299Y-72664655D01*
X80757990Y-72642484D01*
X80774958Y-72637889D01*
X80777175Y-72638921D01*
X80800524Y-72652837D01*
X80842912Y-72680030D01*
X80900369Y-72717889D01*
X80968923Y-72763803D01*
X81044601Y-72815160D01*
X81291298Y-72983626D01*
X81402706Y-72933062D01*
X81405943Y-72931597D01*
X81474343Y-72901965D01*
X81546907Y-72872493D01*
X81608457Y-72849358D01*
X81608729Y-72849262D01*
X81657595Y-72831367D01*
X81695212Y-72816253D01*
X81713457Y-72807184D01*
X81713752Y-72806855D01*
X81719946Y-72788282D01*
X81730139Y-72746045D01*
X81743348Y-72684696D01*
X81758590Y-72608789D01*
X81774881Y-72522875D01*
X81775449Y-72519796D01*
X81791713Y-72432128D01*
X81806608Y-72352741D01*
X81819171Y-72286701D01*
X81828438Y-72239079D01*
X81833444Y-72214943D01*
X81833764Y-72213605D01*
X81837060Y-72203273D01*
X81843738Y-72195506D01*
X81857462Y-72189940D01*
X81881895Y-72186207D01*
X81920702Y-72183942D01*
X81977546Y-72182778D01*
X82056090Y-72182348D01*
X82160000Y-72182286D01*
X82173056Y-72182286D01*
X82273933Y-72182371D01*
D11*
%TO.C,JP1*%
X92475000Y-80825000D02*
X94475000Y-80825000D01*
X94475000Y-80825000D02*
X94475000Y-78025000D01*
X94475000Y-78025000D02*
X92475000Y-78025000D01*
X92475000Y-78025000D02*
X92475000Y-80825000D01*
%TO.C,R2*%
X95772936Y-91060000D02*
X96227064Y-91060000D01*
X95772936Y-89590000D02*
X96227064Y-89590000D01*
%TD*%
M02*
