M48
; DRILL file {KiCad 6.0.11-2627ca5db0~126~ubuntu22.04.1} date Sun 05 Mar 2023 11:39:45 PM EST
; FORMAT={-:-/ absolute / inch / decimal}
; #@! TF.CreationDate,2023-03-05T23:39:45-05:00
; #@! TF.GenerationSoftware,Kicad,Pcbnew,6.0.11-2627ca5db0~126~ubuntu22.04.1
; #@! TF.FileFunction,Plated,1,4,PTH
FMAT,2
INCH
; #@! TA.AperFunction,Plated,PTH,ViaDrill
T1C0.0157
; #@! TA.AperFunction,Plated,PTH,ComponentDrill
T2C0.0197
; #@! TA.AperFunction,Plated,PTH,ComponentDrill
T3C0.0217
; #@! TA.AperFunction,Plated,PTH,ComponentDrill
T4C0.0394
; #@! TA.AperFunction,Plated,PTH,ComponentDrill
T5C0.0400
; #@! TA.AperFunction,Plated,PTH,ComponentDrill
T6C0.0433
%
G90
G05
T1
X2.2789Y-3.3376
X2.4823Y-3.4203
X2.5098Y-3.3789
X2.7156Y-3.2392
X2.7193Y-3.9949
X2.7776Y-3.4429
X2.7976Y-3.8858
X2.7988Y-3.6823
X2.8159Y-3.3406
X2.8632Y-2.7785
X2.8957Y-3.5909
X2.9626Y-3.7831
X2.9646Y-3.4163
X2.9654Y-3.9291
X2.9685Y-3.4862
X2.976Y-3.8732
X3.0185Y-3.8319
X3.0228Y-3.752
X3.0768Y-3.1732
X3.0799Y-3.3906
X3.0886Y-3.5909
X3.1063Y-3.5236
X3.1114Y-3.2846
X3.1266Y-3.04
X3.1358Y-3.4449
X3.1646Y-3.6571
X3.1673Y-3.7815
X3.1689Y-3.5634
X3.1748Y-3.4931
X3.2155Y-3.6685
X3.2496Y-3.322
X3.3031Y-3.3626
X3.3358Y-3.3996
X3.3504Y-3.4961
X3.3862Y-3.3169
X3.387Y-3.5469
X3.3906Y-3.5886
X3.3961Y-3.4874
X3.3981Y-3.4218
X3.4004Y-3.3791
X3.4709Y-3.6894
X3.5469Y-3.3453
X3.5574Y-3.3904
X3.5583Y-3.4335
X3.562Y-3.5551
X3.6413Y-3.4346
X3.6752Y-3.6161
X3.7594Y-3.0528
X3.8594Y-3.2378
X3.8606Y-3.3862
X3.8622Y-3.2898
X3.8622Y-3.3354
X4.1016Y-3.3886
X4.2232Y-3.3311
X4.2362Y-3.2386
T4
X2.9625Y-2.8891
X2.9625Y-2.9891
X2.9625Y-3.0891
X2.9625Y-3.1891
X3.2445Y-3.7933
X3.3445Y-3.7933
X3.4445Y-3.7933
T5
X3.6187Y-3.6614
X3.6187Y-3.9174
X3.7967Y-3.6614
X3.7967Y-3.9174
X3.9149Y-3.5561
X3.9149Y-3.8121
X4.0929Y-3.5561
X4.0929Y-3.8121
T6
X2.3474Y-3.7047
X2.3488Y-3.0738
X2.4474Y-3.7047
X2.4488Y-3.0738
X2.5474Y-3.7047
X2.5488Y-3.0738
X2.6474Y-3.7047
X2.6488Y-3.0738
X4.0343Y-2.9339
X4.0343Y-3.0339
T2
G00X2.2376Y-3.25
M15
G01X2.212Y-3.25
M16
G05
G00X2.2376Y-3.5256
M15
G01X2.212Y-3.5256
M16
G05
T3
G00X2.3311Y-3.2835
M15
G01X2.3311Y-3.2953
M16
G05
G00X2.3311Y-3.4803
M15
G01X2.3311Y-3.4921
M16
G05
T0
M30
