%TF.GenerationSoftware,KiCad,Pcbnew,6.0.11-2627ca5db0~126~ubuntu22.04.1*%
%TF.CreationDate,2023-03-06T02:01:16-05:00*%
%TF.ProjectId,canbus-kline-bridge,63616e62-7573-42d6-9b6c-696e652d6272,1.0*%
%TF.SameCoordinates,Original*%
%TF.FileFunction,Copper,L3,Inr*%
%TF.FilePolarity,Positive*%
%FSLAX46Y46*%
G04 Gerber Fmt 4.6, Leading zero omitted, Abs format (unit mm)*
G04 Created by KiCad (PCBNEW 6.0.11-2627ca5db0~126~ubuntu22.04.1) date 2023-03-06 02:01:16*
%MOMM*%
%LPD*%
G01*
G04 APERTURE LIST*
%TA.AperFunction,ComponentPad*%
%ADD10R,1.700000X1.700000*%
%TD*%
%TA.AperFunction,ComponentPad*%
%ADD11O,1.700000X1.700000*%
%TD*%
%TA.AperFunction,ComponentPad*%
%ADD12R,2.100000X2.100000*%
%TD*%
%TA.AperFunction,ComponentPad*%
%ADD13C,2.100000*%
%TD*%
%TA.AperFunction,ComponentPad*%
%ADD14C,1.879600*%
%TD*%
%TA.AperFunction,ComponentPad*%
%ADD15O,0.950000X1.250000*%
%TD*%
%TA.AperFunction,ComponentPad*%
%ADD16O,1.550000X0.890000*%
%TD*%
%TA.AperFunction,ViaPad*%
%ADD17C,0.800000*%
%TD*%
%TA.AperFunction,Conductor*%
%ADD18C,0.250000*%
%TD*%
%TA.AperFunction,Conductor*%
%ADD19C,1.500000*%
%TD*%
G04 APERTURE END LIST*
D10*
%TO.N,+5V*%
%TO.C,U3*%
X75247300Y-81002600D03*
D11*
%TO.N,GND*%
X75247300Y-78462600D03*
%TO.N,+12V*%
X75247300Y-75922600D03*
%TO.N,unconnected-(U3-Pad4)*%
X75247300Y-73382600D03*
%TD*%
D12*
%TO.N,ISO_K_LINE*%
%TO.C,J6*%
X102470000Y-74520000D03*
D13*
%TO.N,GND*%
X102470000Y-77060000D03*
%TD*%
D12*
%TO.N,+BATT*%
%TO.C,J5*%
X59625000Y-94100000D03*
D13*
%TO.N,CANH*%
X62165000Y-94100000D03*
%TO.N,CANL*%
X64705000Y-94100000D03*
%TO.N,GND*%
X67245000Y-94100000D03*
%TD*%
D10*
%TO.N,SWDIO*%
%TO.C,J2*%
X87490000Y-96350000D03*
D11*
%TO.N,GND*%
X84950000Y-96350000D03*
%TO.N,SWDCLK*%
X82410000Y-96350000D03*
%TD*%
D14*
%TO.N,+3V3*%
%TO.C,S1*%
X96435600Y-92998800D03*
X96435600Y-99501200D03*
%TO.N,Net-(R1-Pad1)*%
X91914400Y-92998800D03*
%TO.N,/Net-(R1-Pad1)*%
X91914400Y-99501200D03*
%TD*%
D12*
%TO.N,+BATT*%
%TO.C,J4*%
X59660000Y-78075000D03*
D13*
%TO.N,CANH*%
X62200000Y-78075000D03*
%TO.N,CANL*%
X64740000Y-78075000D03*
%TO.N,GND*%
X67280000Y-78075000D03*
%TD*%
D14*
%TO.N,GND*%
%TO.C,S2*%
X103960600Y-90323800D03*
X103960600Y-96826200D03*
%TO.N,~{RESET}*%
X99439400Y-90323800D03*
X99439400Y-96826200D03*
%TD*%
D15*
%TO.N,GND*%
%TO.C,J1*%
X59210000Y-83550000D03*
D16*
X56510000Y-82550000D03*
X56510000Y-89550000D03*
D15*
X59210000Y-88550000D03*
%TD*%
D17*
%TO.N,~{CAN_INT}*%
X90380000Y-87210000D03*
%TO.N,+3V3*%
X75590000Y-98380000D03*
%TO.N,~{CAN_INT}*%
X75250000Y-96090000D03*
%TO.N,MOSI*%
X84730000Y-86350000D03*
%TO.N,MISO*%
X83900000Y-85410000D03*
%TO.N,SCK*%
X82540000Y-84380000D03*
%TO.N,~{SPI_SS}*%
X88070000Y-84470000D03*
%TO.N,SCK*%
X76670000Y-97330000D03*
%TO.N,MOSI*%
X80450000Y-96050000D03*
%TO.N,MISO*%
X76780000Y-95300000D03*
%TO.N,+3V3*%
X78450000Y-91209500D03*
%TO.N,~{SPI_SS}*%
X80380000Y-92890000D03*
%TO.N,CAN_TX*%
X73550000Y-91209500D03*
%TO.N,CAN_RX*%
X71090000Y-93530000D03*
%TO.N,GND*%
X75320000Y-99800000D03*
%TO.N,+3V3*%
X69070000Y-101470000D03*
%TO.N,Net-(U7-Pad6)*%
X71060000Y-98700000D03*
%TO.N,unconnected-(U2-Pad3)*%
X86030000Y-90090000D03*
%TO.N,ISO_K_LINE*%
X107600000Y-82260000D03*
%TO.N,GND*%
X107270000Y-84610000D03*
%TO.N,/VBB*%
X95490000Y-77540000D03*
%TO.N,+3V3*%
X98100000Y-84720000D03*
%TO.N,/VBB*%
X104180000Y-86070000D03*
%TO.N,K_LINE_EN*%
X98060000Y-86010000D03*
%TO.N,K_LINE_TX*%
X98030000Y-82240000D03*
%TO.N,K_LINE_RX*%
X98100000Y-83560000D03*
%TO.N,K_LINE_EN*%
X92490000Y-87240000D03*
%TO.N,+12V*%
X79415000Y-77215000D03*
%TO.N,GND*%
X80640000Y-88725500D03*
X72725000Y-70575000D03*
X93350000Y-91850000D03*
X79030000Y-83430000D03*
X75300000Y-86775000D03*
%TO.N,+3V3*%
X78150000Y-80600000D03*
X85100000Y-88800000D03*
X78230000Y-86120000D03*
X68975000Y-82275000D03*
%TO.N,VBUS*%
X57884502Y-84775000D03*
%TO.N,USB_D-*%
X63750000Y-85825000D03*
%TO.N,USB_D+*%
X63050000Y-86875000D03*
%TO.N,CAN_RX*%
X71525000Y-84850000D03*
%TO.N,USB_D-*%
X78900000Y-89500000D03*
%TO.N,CAN_TX*%
X75400000Y-88550000D03*
%TO.N,USB_D+*%
X80490000Y-90510000D03*
%TO.N,CAN_STBY*%
X70550000Y-87450000D03*
X79650000Y-87500000D03*
%TO.N,K_LINE_TX*%
X90357299Y-86117299D03*
%TO.N,K_LINE_RX*%
X90090000Y-84970000D03*
%TO.N,~{RESET}*%
X90475000Y-90300000D03*
%TD*%
D18*
%TO.N,~{SPI_SS}*%
X88070000Y-84470000D02*
X84375000Y-88165000D01*
X84375000Y-88165000D02*
X84375000Y-88905000D01*
X84375000Y-88905000D02*
X80390000Y-92890000D01*
X80390000Y-92890000D02*
X80380000Y-92890000D01*
%TO.N,~{CAN_INT}*%
X90380000Y-87210000D02*
X90380000Y-88650000D01*
X90380000Y-88650000D02*
X84650000Y-94380000D01*
X84650000Y-94380000D02*
X79560000Y-94380000D01*
X79560000Y-94380000D02*
X77800000Y-96140000D01*
X77800000Y-96140000D02*
X75300000Y-96140000D01*
X75300000Y-96140000D02*
X75250000Y-96090000D01*
%TO.N,K_LINE_TX*%
X98030000Y-82240000D02*
X94152701Y-86117299D01*
X94152701Y-86117299D02*
X90357299Y-86117299D01*
%TO.N,CAN_TX*%
X73550000Y-91209500D02*
X73550000Y-90840000D01*
X73550000Y-90840000D02*
X75400000Y-88990000D01*
X75400000Y-88990000D02*
X75400000Y-88550000D01*
%TO.N,CAN_RX*%
X71090000Y-93530000D02*
X71060000Y-93530000D01*
X71060000Y-93530000D02*
X71525000Y-93065000D01*
X71525000Y-93065000D02*
X71525000Y-84850000D01*
%TO.N,MISO*%
X76780000Y-95300000D02*
X83900000Y-88180000D01*
X83900000Y-88180000D02*
X83900000Y-85410000D01*
D19*
%TO.N,+12V*%
X75247300Y-75922600D02*
X78122600Y-75922600D01*
X78122600Y-75922600D02*
X79415000Y-77215000D01*
D18*
%TO.N,CANH*%
X62165000Y-78110000D02*
X62200000Y-78075000D01*
X62165000Y-94100000D02*
X62165000Y-78110000D01*
%TO.N,CANL*%
X64705000Y-94100000D02*
X64705000Y-78110000D01*
X64705000Y-78110000D02*
X64740000Y-78075000D01*
%TD*%
%TA.AperFunction,Conductor*%
%TO.N,+3V3*%
G36*
X78791165Y-79820532D02*
G01*
X78838139Y-79873768D01*
X78850000Y-79927138D01*
X78850000Y-82437431D01*
X78829998Y-82505552D01*
X78776342Y-82552045D01*
X78760305Y-82557340D01*
X78760452Y-82557792D01*
X78754168Y-82559834D01*
X78747712Y-82561206D01*
X78741682Y-82563891D01*
X78741681Y-82563891D01*
X78579278Y-82636197D01*
X78579276Y-82636198D01*
X78573248Y-82638882D01*
X78418747Y-82751134D01*
X78290960Y-82893056D01*
X78195473Y-83058444D01*
X78136458Y-83240072D01*
X78116496Y-83430000D01*
X78136458Y-83619928D01*
X78195473Y-83801556D01*
X78198776Y-83807278D01*
X78198777Y-83807279D01*
X78287528Y-83961000D01*
X78304266Y-84029995D01*
X78281046Y-84097087D01*
X78225238Y-84140974D01*
X78178409Y-84150000D01*
X72148105Y-84150000D01*
X72074044Y-84125936D01*
X71987094Y-84062763D01*
X71987093Y-84062762D01*
X71981752Y-84058882D01*
X71975724Y-84056198D01*
X71975722Y-84056197D01*
X71813319Y-83983891D01*
X71813318Y-83983891D01*
X71807288Y-83981206D01*
X71712227Y-83961000D01*
X71626944Y-83942872D01*
X71626939Y-83942872D01*
X71620487Y-83941500D01*
X71429513Y-83941500D01*
X71423061Y-83942872D01*
X71423056Y-83942872D01*
X71337773Y-83961000D01*
X71242712Y-83981206D01*
X71236682Y-83983891D01*
X71236681Y-83983891D01*
X71074278Y-84056197D01*
X71074276Y-84056198D01*
X71068248Y-84058882D01*
X71062907Y-84062762D01*
X71062906Y-84062763D01*
X70975956Y-84125936D01*
X70901895Y-84150000D01*
X67851000Y-84150000D01*
X67782879Y-84129998D01*
X67736386Y-84076342D01*
X67725000Y-84024000D01*
X67725000Y-80024873D01*
X67745002Y-79956752D01*
X67798658Y-79910259D01*
X67849867Y-79898878D01*
X70256931Y-79877241D01*
X73786393Y-79845516D01*
X73854689Y-79864904D01*
X73901663Y-79918140D01*
X73912398Y-79988320D01*
X73905506Y-80015739D01*
X73895555Y-80042284D01*
X73888800Y-80104466D01*
X73888800Y-81900734D01*
X73895555Y-81962916D01*
X73946685Y-82099305D01*
X74034039Y-82215861D01*
X74150595Y-82303215D01*
X74286984Y-82354345D01*
X74349166Y-82361100D01*
X76145434Y-82361100D01*
X76207616Y-82354345D01*
X76344005Y-82303215D01*
X76460561Y-82215861D01*
X76547915Y-82099305D01*
X76599045Y-81962916D01*
X76605800Y-81900734D01*
X76605800Y-80104466D01*
X76599045Y-80042284D01*
X76579289Y-79989585D01*
X76574106Y-79918779D01*
X76608026Y-79856410D01*
X76670281Y-79822281D01*
X76696138Y-79819361D01*
X78722867Y-79801143D01*
X78791165Y-79820532D01*
G37*
%TD.AperFunction*%
%TD*%
M02*
