%TF.GenerationSoftware,KiCad,Pcbnew,6.0.11-2627ca5db0~126~ubuntu22.04.1*%
%TF.CreationDate,2023-03-05T15:50:47-05:00*%
%TF.ProjectId,canbus-kline-bridge,63616e62-7573-42d6-9b6c-696e652d6272,1.0*%
%TF.SameCoordinates,Original*%
%TF.FileFunction,Copper,L1,Top*%
%TF.FilePolarity,Positive*%
%FSLAX46Y46*%
G04 Gerber Fmt 4.6, Leading zero omitted, Abs format (unit mm)*
G04 Created by KiCad (PCBNEW 6.0.11-2627ca5db0~126~ubuntu22.04.1) date 2023-03-05 15:50:47*
%MOMM*%
%LPD*%
G01*
G04 APERTURE LIST*
G04 Aperture macros list*
%AMRoundRect*
0 Rectangle with rounded corners*
0 $1 Rounding radius*
0 $2 $3 $4 $5 $6 $7 $8 $9 X,Y pos of 4 corners*
0 Add a 4 corners polygon primitive as box body*
4,1,4,$2,$3,$4,$5,$6,$7,$8,$9,$2,$3,0*
0 Add four circle primitives for the rounded corners*
1,1,$1+$1,$2,$3*
1,1,$1+$1,$4,$5*
1,1,$1+$1,$6,$7*
1,1,$1+$1,$8,$9*
0 Add four rect primitives between the rounded corners*
20,1,$1+$1,$2,$3,$4,$5,0*
20,1,$1+$1,$4,$5,$6,$7,0*
20,1,$1+$1,$6,$7,$8,$9,0*
20,1,$1+$1,$8,$9,$2,$3,0*%
G04 Aperture macros list end*
%TA.AperFunction,SMDPad,CuDef*%
%ADD10R,1.460500X0.533400*%
%TD*%
%TA.AperFunction,ComponentPad*%
%ADD11R,1.700000X1.700000*%
%TD*%
%TA.AperFunction,ComponentPad*%
%ADD12O,1.700000X1.700000*%
%TD*%
%TA.AperFunction,ComponentPad*%
%ADD13R,2.100000X2.100000*%
%TD*%
%TA.AperFunction,ComponentPad*%
%ADD14C,2.100000*%
%TD*%
%TA.AperFunction,SMDPad,CuDef*%
%ADD15RoundRect,0.250000X0.450000X-0.350000X0.450000X0.350000X-0.450000X0.350000X-0.450000X-0.350000X0*%
%TD*%
%TA.AperFunction,SMDPad,CuDef*%
%ADD16RoundRect,0.250000X-0.475000X0.337500X-0.475000X-0.337500X0.475000X-0.337500X0.475000X0.337500X0*%
%TD*%
%TA.AperFunction,ComponentPad*%
%ADD17C,1.879600*%
%TD*%
%TA.AperFunction,SMDPad,CuDef*%
%ADD18RoundRect,0.250000X-0.350000X-0.450000X0.350000X-0.450000X0.350000X0.450000X-0.350000X0.450000X0*%
%TD*%
%TA.AperFunction,SMDPad,CuDef*%
%ADD19RoundRect,0.250000X-0.400000X-1.450000X0.400000X-1.450000X0.400000X1.450000X-0.400000X1.450000X0*%
%TD*%
%TA.AperFunction,SMDPad,CuDef*%
%ADD20RoundRect,0.250000X-0.537500X-0.425000X0.537500X-0.425000X0.537500X0.425000X-0.537500X0.425000X0*%
%TD*%
%TA.AperFunction,SMDPad,CuDef*%
%ADD21RoundRect,0.250000X1.100000X-0.412500X1.100000X0.412500X-1.100000X0.412500X-1.100000X-0.412500X0*%
%TD*%
%TA.AperFunction,SMDPad,CuDef*%
%ADD22RoundRect,0.100000X0.637500X0.100000X-0.637500X0.100000X-0.637500X-0.100000X0.637500X-0.100000X0*%
%TD*%
%TA.AperFunction,SMDPad,CuDef*%
%ADD23R,1.350000X0.400000*%
%TD*%
%TA.AperFunction,SMDPad,CuDef*%
%ADD24R,1.550000X1.500000*%
%TD*%
%TA.AperFunction,SMDPad,CuDef*%
%ADD25R,1.550000X1.200000*%
%TD*%
%TA.AperFunction,ComponentPad*%
%ADD26O,0.950000X1.250000*%
%TD*%
%TA.AperFunction,ComponentPad*%
%ADD27O,1.550000X0.890000*%
%TD*%
%TA.AperFunction,SMDPad,CuDef*%
%ADD28RoundRect,0.250000X-0.325000X-0.450000X0.325000X-0.450000X0.325000X0.450000X-0.325000X0.450000X0*%
%TD*%
%TA.AperFunction,SMDPad,CuDef*%
%ADD29RoundRect,0.150000X0.825000X0.150000X-0.825000X0.150000X-0.825000X-0.150000X0.825000X-0.150000X0*%
%TD*%
%TA.AperFunction,ViaPad*%
%ADD30C,0.800000*%
%TD*%
%TA.AperFunction,Conductor*%
%ADD31C,0.250000*%
%TD*%
%TA.AperFunction,Conductor*%
%ADD32C,0.800000*%
%TD*%
%TA.AperFunction,Conductor*%
%ADD33C,1.100000*%
%TD*%
%TA.AperFunction,Conductor*%
%ADD34C,1.500000*%
%TD*%
%TA.AperFunction,Conductor*%
%ADD35C,0.200000*%
%TD*%
G04 APERTURE END LIST*
D10*
%TO.P,U5,1,VBB*%
%TO.N,/VBB*%
X105484150Y-86015000D03*
%TO.P,U5,2,NC*%
%TO.N,unconnected-(U5-Pad2)*%
X105484150Y-84745000D03*
%TO.P,U5,3,GND*%
%TO.N,GND*%
X105484150Y-83475000D03*
%TO.P,U5,4,ISO*%
%TO.N,ISO_K_LINE*%
X105484150Y-82205000D03*
%TO.P,U5,5,TX*%
%TO.N,K_LINE_TX*%
X100035850Y-82205000D03*
%TO.P,U5,6,RX*%
%TO.N,K_LINE_RX*%
X100035850Y-83475000D03*
%TO.P,U5,7,VDD*%
%TO.N,+3V3*%
X100035850Y-84745000D03*
%TO.P,U5,8,CEN*%
%TO.N,K_LINE_EN*%
X100035850Y-86015000D03*
%TD*%
D11*
%TO.P,U3,1,Vout*%
%TO.N,+5V*%
X75247300Y-81002600D03*
D12*
%TO.P,U3,2,GND*%
%TO.N,GND*%
X75247300Y-78462600D03*
%TO.P,U3,3,Vin*%
%TO.N,+12V*%
X75247300Y-75922600D03*
%TO.P,U3,4,EN*%
%TO.N,unconnected-(U3-Pad4)*%
X75247300Y-73382600D03*
%TD*%
D13*
%TO.P,J6,1,Pin_1*%
%TO.N,ISO_K_LINE*%
X102470000Y-74520000D03*
D14*
%TO.P,J6,2,Pin_2*%
%TO.N,GND*%
X102470000Y-77060000D03*
%TD*%
D11*
%TO.P,JP1,1,A*%
%TO.N,CAN_RX*%
X73400000Y-97140000D03*
D12*
%TO.P,JP1,2,C*%
%TO.N,Net-(JP1-Pad2)*%
X73400000Y-94600000D03*
%TO.P,JP1,3,B*%
%TO.N,USB_D-*%
X73400000Y-92060000D03*
%TD*%
D13*
%TO.P,J5,1,Pin_1*%
%TO.N,+BATT*%
X59625000Y-94100000D03*
D14*
%TO.P,J5,2,Pin_2*%
%TO.N,CANH*%
X62165000Y-94100000D03*
%TO.P,J5,3,Pin_3*%
%TO.N,CANL*%
X64705000Y-94100000D03*
%TO.P,J5,4,Pin_4*%
%TO.N,GND*%
X67245000Y-94100000D03*
%TD*%
D11*
%TO.P,J2,1,Pin_1*%
%TO.N,SWDIO*%
X87490000Y-96350000D03*
D12*
%TO.P,J2,2,Pin_2*%
%TO.N,GND*%
X84950000Y-96350000D03*
%TO.P,J2,3,Pin_3*%
%TO.N,SWDCLK*%
X82410000Y-96350000D03*
%TD*%
D15*
%TO.P,R10,1*%
%TO.N,CANH*%
X65700000Y-87200000D03*
%TO.P,R10,2*%
%TO.N,CANL*%
X65700000Y-85200000D03*
%TD*%
D16*
%TO.P,C3,1*%
%TO.N,/VDDA*%
X92325000Y-88762500D03*
%TO.P,C3,2*%
%TO.N,GND*%
X92325000Y-90837500D03*
%TD*%
D17*
%TO.P,S1,1,1*%
%TO.N,+3V3*%
X96435600Y-92998800D03*
%TO.P,S1,2,1*%
%TO.N,unconnected-(S1-Pad2)*%
X96435600Y-99501200D03*
%TO.P,S1,3,2*%
%TO.N,Net-(R1-Pad1)*%
X91914400Y-92998800D03*
%TO.P,S1,4,2*%
%TO.N,unconnected-(S1-Pad4)*%
X91914400Y-99501200D03*
%TD*%
D18*
%TO.P,R3,1*%
%TO.N,+3V3*%
X76475000Y-87525000D03*
%TO.P,R3,2*%
%TO.N,CAN_STBY*%
X78475000Y-87525000D03*
%TD*%
D19*
%TO.P,F1,1*%
%TO.N,+BATT*%
X63000000Y-71775000D03*
%TO.P,F1,2*%
%TO.N,+12V*%
X67450000Y-71775000D03*
%TD*%
D20*
%TO.P,C6,1*%
%TO.N,+5V*%
X76100000Y-84725000D03*
%TO.P,C6,2*%
%TO.N,GND*%
X78975000Y-84725000D03*
%TD*%
D13*
%TO.P,J4,1,Pin_1*%
%TO.N,+BATT*%
X59660000Y-78075000D03*
D14*
%TO.P,J4,2,Pin_2*%
%TO.N,CANH*%
X62200000Y-78075000D03*
%TO.P,J4,3,Pin_3*%
%TO.N,CANL*%
X64740000Y-78075000D03*
%TO.P,J4,4,Pin_4*%
%TO.N,GND*%
X67280000Y-78075000D03*
%TD*%
D21*
%TO.P,C5,1*%
%TO.N,+12V*%
X70225000Y-73175000D03*
%TO.P,C5,2*%
%TO.N,GND*%
X70225000Y-70050000D03*
%TD*%
D22*
%TO.P,U2,1,PB8*%
%TO.N,Net-(R1-Pad1)*%
X88125000Y-91400000D03*
%TO.P,U2,2,PF0*%
%TO.N,SDA1*%
X88125000Y-90750000D03*
%TO.P,U2,3,PF1*%
%TO.N,SCL1*%
X88125000Y-90100000D03*
%TO.P,U2,4,NRST*%
%TO.N,~{RESET}*%
X88125000Y-89450000D03*
%TO.P,U2,5,VDDA*%
%TO.N,/VDDA*%
X88125000Y-88800000D03*
%TO.P,U2,6,PA0*%
%TO.N,K_LINE_EN*%
X88125000Y-88150000D03*
%TO.P,U2,7,PA1*%
%TO.N,unconnected-(U2-Pad7)*%
X88125000Y-87500000D03*
%TO.P,U2,8,PA2*%
%TO.N,K_LINE_TX*%
X88125000Y-86850000D03*
%TO.P,U2,9,PA3*%
%TO.N,K_LINE_RX*%
X88125000Y-86200000D03*
%TO.P,U2,10,PA4*%
%TO.N,unconnected-(U2-Pad10)*%
X88125000Y-85550000D03*
%TO.P,U2,11,PA5*%
%TO.N,unconnected-(U2-Pad11)*%
X82400000Y-85550000D03*
%TO.P,U2,12,PA6*%
%TO.N,unconnected-(U2-Pad12)*%
X82400000Y-86200000D03*
%TO.P,U2,13,PA7*%
%TO.N,unconnected-(U2-Pad13)*%
X82400000Y-86850000D03*
%TO.P,U2,14,PB1*%
%TO.N,CAN_STBY*%
X82400000Y-87500000D03*
%TO.P,U2,15,VSS*%
%TO.N,GND*%
X82400000Y-88150000D03*
%TO.P,U2,16,VDD*%
%TO.N,+3V3*%
X82400000Y-88800000D03*
%TO.P,U2,17,PA9/PA11*%
%TO.N,Net-(JP1-Pad2)*%
X82400000Y-89450000D03*
%TO.P,U2,18,PA10/PA12*%
%TO.N,Net-(JP2-Pad2)*%
X82400000Y-90100000D03*
%TO.P,U2,19,PA13*%
%TO.N,SWDIO*%
X82400000Y-90750000D03*
%TO.P,U2,20,PA14*%
%TO.N,SWDCLK*%
X82400000Y-91400000D03*
%TD*%
D17*
%TO.P,S2,1,1*%
%TO.N,GND*%
X103960600Y-90323800D03*
%TO.P,S2,2,1*%
%TO.N,unconnected-(S2-Pad2)*%
X103960600Y-96826200D03*
%TO.P,S2,3,2*%
%TO.N,~{RESET}*%
X99439400Y-90323800D03*
%TO.P,S2,4,2*%
%TO.N,unconnected-(S2-Pad4)*%
X99439400Y-96826200D03*
%TD*%
D23*
%TO.P,J1,1,VBUS*%
%TO.N,VBUS*%
X59210000Y-84750000D03*
%TO.P,J1,2,D-*%
%TO.N,USB_D-*%
X59210000Y-85400000D03*
%TO.P,J1,3,D+*%
%TO.N,USB_D+*%
X59210000Y-86050000D03*
%TO.P,J1,4,ID*%
%TO.N,unconnected-(J1-Pad4)*%
X59210000Y-86700000D03*
%TO.P,J1,5,GND*%
%TO.N,GND*%
X59210000Y-87350000D03*
D24*
%TO.P,J1,6,Shield*%
X56510000Y-87050000D03*
X56510000Y-85050000D03*
D25*
X56510000Y-88950000D03*
D26*
X59210000Y-83550000D03*
D27*
X56510000Y-82550000D03*
X56510000Y-89550000D03*
D25*
X56510000Y-83150000D03*
D26*
X59210000Y-88550000D03*
%TD*%
D11*
%TO.P,JP2,1,A*%
%TO.N,CAN_TX*%
X78525000Y-97425000D03*
D12*
%TO.P,JP2,2,C*%
%TO.N,Net-(JP2-Pad2)*%
X78525000Y-94885000D03*
%TO.P,JP2,3,B*%
%TO.N,USB_D+*%
X78525000Y-92345000D03*
%TD*%
D28*
%TO.P,FB1,1*%
%TO.N,/VDDA*%
X94400000Y-88775000D03*
%TO.P,FB1,2*%
%TO.N,+3V3*%
X96450000Y-88775000D03*
%TD*%
D29*
%TO.P,U4,1,TXD*%
%TO.N,CAN_TX*%
X73325000Y-88015000D03*
%TO.P,U4,2,VSS*%
%TO.N,GND*%
X73325000Y-86745000D03*
%TO.P,U4,3,VDD*%
%TO.N,+5V*%
X73325000Y-85475000D03*
%TO.P,U4,4,RXD*%
%TO.N,CAN_RX*%
X73325000Y-84205000D03*
%TO.P,U4,5,Vio*%
%TO.N,+3V3*%
X68375000Y-84205000D03*
%TO.P,U4,6,CANL*%
%TO.N,CANL*%
X68375000Y-85475000D03*
%TO.P,U4,7,CANH*%
%TO.N,CANH*%
X68375000Y-86745000D03*
%TO.P,U4,8,STBY*%
%TO.N,CAN_STBY*%
X68375000Y-88015000D03*
%TD*%
D30*
%TO.N,ISO_K_LINE*%
X107600000Y-82260000D03*
%TO.N,GND*%
X107270000Y-84610000D03*
%TO.N,/VBB*%
X95490000Y-77540000D03*
%TO.N,+3V3*%
X98100000Y-84720000D03*
%TO.N,/VBB*%
X104180000Y-86070000D03*
%TO.N,K_LINE_EN*%
X98060000Y-86010000D03*
%TO.N,K_LINE_TX*%
X98030000Y-82240000D03*
%TO.N,K_LINE_RX*%
X98100000Y-83560000D03*
%TO.N,K_LINE_EN*%
X86220000Y-87290000D03*
%TO.N,+12V*%
X79415000Y-77215000D03*
%TO.N,GND*%
X80450000Y-88350000D03*
X72725000Y-70575000D03*
X93350000Y-91850000D03*
X80600000Y-85425000D03*
X75300000Y-86775000D03*
%TO.N,+3V3*%
X78150000Y-80600000D03*
X85100000Y-88800000D03*
X78750000Y-89250000D03*
X68975000Y-82275000D03*
%TO.N,VBUS*%
X57884502Y-84775000D03*
%TO.N,USB_D-*%
X63750000Y-85825000D03*
%TO.N,USB_D+*%
X63050000Y-86875000D03*
%TO.N,CAN_RX*%
X71525000Y-84850000D03*
%TO.N,Net-(JP1-Pad2)*%
X80025000Y-89475000D03*
%TO.N,CAN_TX*%
X75400000Y-88550000D03*
%TO.N,Net-(JP2-Pad2)*%
X80950000Y-90450000D03*
%TO.N,CAN_STBY*%
X70550000Y-87450000D03*
X79650000Y-87500000D03*
%TO.N,K_LINE_TX*%
X90200000Y-86924500D03*
%TO.N,K_LINE_RX*%
X91640000Y-86080000D03*
%TO.N,~{RESET}*%
X90475000Y-90300000D03*
%TD*%
D31*
%TO.N,K_LINE_TX*%
X90200000Y-86924500D02*
X90125500Y-86850000D01*
X90125500Y-86850000D02*
X88125000Y-86850000D01*
%TO.N,K_LINE_RX*%
X91640000Y-86080000D02*
X91520000Y-86200000D01*
X91520000Y-86200000D02*
X88125000Y-86200000D01*
D32*
%TO.N,ISO_K_LINE*%
X107600000Y-82260000D02*
X105539150Y-82260000D01*
X105539150Y-82260000D02*
X105484150Y-82205000D01*
D31*
%TO.N,GND*%
X106135000Y-83475000D02*
X107270000Y-84610000D01*
X105484150Y-83475000D02*
X106135000Y-83475000D01*
%TO.N,+3V3*%
X98125000Y-84745000D02*
X98100000Y-84720000D01*
X100035850Y-84745000D02*
X98125000Y-84745000D01*
%TO.N,/VBB*%
X104235000Y-86015000D02*
X104180000Y-86070000D01*
D33*
X105484150Y-86015000D02*
X104235000Y-86015000D01*
D31*
%TO.N,K_LINE_EN*%
X98065000Y-86015000D02*
X98060000Y-86010000D01*
X100035850Y-86015000D02*
X98065000Y-86015000D01*
%TO.N,K_LINE_TX*%
X98065000Y-82205000D02*
X98030000Y-82240000D01*
X100035850Y-82205000D02*
X98065000Y-82205000D01*
%TO.N,K_LINE_RX*%
X98185000Y-83475000D02*
X98100000Y-83560000D01*
X100035850Y-83475000D02*
X98185000Y-83475000D01*
%TO.N,K_LINE_EN*%
X86220000Y-87290000D02*
X87080000Y-88150000D01*
X87080000Y-88150000D02*
X88125000Y-88150000D01*
D34*
%TO.N,GND*%
X70225000Y-70050000D02*
X72200000Y-70050000D01*
D31*
X75300000Y-86775000D02*
X73355000Y-86775000D01*
X92337500Y-90837500D02*
X93350000Y-91850000D01*
D34*
X72200000Y-70050000D02*
X72725000Y-70575000D01*
D31*
X78975000Y-84725000D02*
X80175000Y-84725000D01*
X80600000Y-85150000D02*
X80600000Y-85425000D01*
X73355000Y-86775000D02*
X73325000Y-86745000D01*
X92325000Y-90837500D02*
X92337500Y-90837500D01*
X80175000Y-84725000D02*
X80600000Y-85150000D01*
X56510000Y-87050000D02*
X56510000Y-89550000D01*
X56510000Y-85050000D02*
X56510000Y-82550000D01*
X59210000Y-87350000D02*
X59210000Y-88550000D01*
X80650000Y-88150000D02*
X80450000Y-88350000D01*
X82400000Y-88150000D02*
X80650000Y-88150000D01*
%TO.N,+3V3*%
X77175000Y-89250000D02*
X76475000Y-88550000D01*
X68375000Y-82875000D02*
X68975000Y-82275000D01*
X68375000Y-84205000D02*
X68375000Y-82875000D01*
X76475000Y-88550000D02*
X76475000Y-87525000D01*
X82400000Y-88800000D02*
X84700000Y-88800000D01*
X84700000Y-88800000D02*
X85100000Y-88800000D01*
X78750000Y-89250000D02*
X77175000Y-89250000D01*
D34*
%TO.N,+12V*%
X71397600Y-75922600D02*
X75247300Y-75922600D01*
X67450000Y-71775000D02*
X68850000Y-73175000D01*
X68850000Y-73175000D02*
X70225000Y-73175000D01*
X70225000Y-74750000D02*
X71397600Y-75922600D01*
X70225000Y-73175000D02*
X70225000Y-74750000D01*
D31*
%TO.N,+5V*%
X73325000Y-85475000D02*
X75350000Y-85475000D01*
X75350000Y-85475000D02*
X76100000Y-84725000D01*
%TO.N,+BATT*%
X59625000Y-78110000D02*
X59660000Y-78075000D01*
D34*
X59660000Y-72840000D02*
X60725000Y-71775000D01*
X59660000Y-78075000D02*
X59660000Y-72840000D01*
X60725000Y-71775000D02*
X63000000Y-71775000D01*
D31*
%TO.N,VBUS*%
X57909502Y-84750000D02*
X57884502Y-84775000D01*
X59210000Y-84750000D02*
X57909502Y-84750000D01*
D35*
%TO.N,USB_D-*%
X59210000Y-85400000D02*
X63325000Y-85400000D01*
X63325000Y-85400000D02*
X63750000Y-85825000D01*
%TO.N,USB_D+*%
X62225000Y-86050000D02*
X63050000Y-86875000D01*
X59210000Y-86050000D02*
X62225000Y-86050000D01*
D31*
%TO.N,CANH*%
X65700000Y-87200000D02*
X65700000Y-89000000D01*
X65700000Y-89000000D02*
X62165000Y-92535000D01*
X66155000Y-86745000D02*
X65700000Y-87200000D01*
X68375000Y-86745000D02*
X66155000Y-86745000D01*
X62165000Y-92535000D02*
X62165000Y-94100000D01*
%TO.N,CANL*%
X64740000Y-82240000D02*
X64740000Y-78075000D01*
X65700000Y-83200000D02*
X64740000Y-82240000D01*
X65700000Y-85200000D02*
X65700000Y-83200000D01*
X68375000Y-85475000D02*
X65975000Y-85475000D01*
X65975000Y-85475000D02*
X65700000Y-85200000D01*
%TO.N,CAN_RX*%
X73325000Y-84205000D02*
X72170000Y-84205000D01*
X72170000Y-84205000D02*
X71525000Y-84850000D01*
%TO.N,Net-(JP1-Pad2)*%
X80050000Y-89450000D02*
X82400000Y-89450000D01*
X80025000Y-89475000D02*
X80050000Y-89450000D01*
%TO.N,CAN_TX*%
X74865000Y-88015000D02*
X75400000Y-88550000D01*
X73325000Y-88015000D02*
X74865000Y-88015000D01*
%TO.N,Net-(JP2-Pad2)*%
X81300000Y-90100000D02*
X80950000Y-90450000D01*
X82400000Y-90100000D02*
X81300000Y-90100000D01*
%TO.N,Net-(R1-Pad1)*%
X88125000Y-91400000D02*
X90315600Y-91400000D01*
X91914400Y-92998800D02*
X91914400Y-99501200D01*
X90315600Y-91400000D02*
X91914400Y-92998800D01*
%TO.N,CAN_STBY*%
X68375000Y-88015000D02*
X69985000Y-88015000D01*
X78475000Y-87525000D02*
X79625000Y-87525000D01*
X69985000Y-88015000D02*
X70550000Y-87450000D01*
X79625000Y-87525000D02*
X79650000Y-87500000D01*
X78100000Y-87500000D02*
X79650000Y-87500000D01*
X82400000Y-87500000D02*
X79650000Y-87500000D01*
%TO.N,SWDIO*%
X82400000Y-90750000D02*
X83850000Y-90750000D01*
X83850000Y-90750000D02*
X87490000Y-94390000D01*
X87490000Y-94390000D02*
X87490000Y-96350000D01*
%TO.N,SWDCLK*%
X82400000Y-91400000D02*
X82410000Y-91410000D01*
X82410000Y-91410000D02*
X82410000Y-96350000D01*
%TO.N,~{RESET}*%
X89625000Y-89450000D02*
X90475000Y-90300000D01*
X99439400Y-90323800D02*
X99439400Y-96826200D01*
X88125000Y-89450000D02*
X89625000Y-89450000D01*
%TO.N,/VDDA*%
X92287500Y-88800000D02*
X92325000Y-88762500D01*
X88125000Y-88800000D02*
X92287500Y-88800000D01*
X94400000Y-88775000D02*
X92337500Y-88775000D01*
X92337500Y-88775000D02*
X92325000Y-88762500D01*
%TD*%
%TA.AperFunction,Conductor*%
%TO.N,+5V*%
G36*
X77266451Y-77245371D02*
G01*
X77313281Y-77298733D01*
X77325000Y-77351797D01*
X77325000Y-80181961D01*
X77315143Y-80228337D01*
X77315473Y-80228444D01*
X77256458Y-80410072D01*
X77236496Y-80600000D01*
X77256458Y-80789928D01*
X77314454Y-80968420D01*
X77315473Y-80971556D01*
X77315143Y-80971663D01*
X77325000Y-81018039D01*
X77325000Y-83611515D01*
X77304998Y-83679636D01*
X77251342Y-83726129D01*
X77181068Y-83736233D01*
X77120908Y-83710397D01*
X77104260Y-83697249D01*
X76966257Y-83612184D01*
X76953076Y-83606037D01*
X76798790Y-83554862D01*
X76785414Y-83551995D01*
X76691062Y-83542328D01*
X76684645Y-83542000D01*
X76372115Y-83542000D01*
X76356876Y-83546475D01*
X76355671Y-83547865D01*
X76354000Y-83555548D01*
X76354000Y-85889884D01*
X76358475Y-85905123D01*
X76359865Y-85906328D01*
X76367548Y-85907999D01*
X76684595Y-85907999D01*
X76691114Y-85907662D01*
X76786706Y-85897743D01*
X76800100Y-85894851D01*
X76954284Y-85843412D01*
X76967462Y-85837239D01*
X77105312Y-85751934D01*
X77120738Y-85739708D01*
X77186548Y-85713072D01*
X77256312Y-85726244D01*
X77307880Y-85775042D01*
X77325000Y-85838455D01*
X77325000Y-86268699D01*
X77304998Y-86336820D01*
X77251342Y-86383313D01*
X77181068Y-86393417D01*
X77149624Y-86384048D01*
X77147738Y-86382885D01*
X77140793Y-86380582D01*
X77140790Y-86380580D01*
X76986389Y-86329368D01*
X76986387Y-86329368D01*
X76979861Y-86327203D01*
X76973025Y-86326503D01*
X76973022Y-86326502D01*
X76929969Y-86322091D01*
X76875400Y-86316500D01*
X76157076Y-86316500D01*
X76088955Y-86296498D01*
X76047958Y-86253502D01*
X76042341Y-86243774D01*
X76039040Y-86238056D01*
X75922388Y-86108500D01*
X75915675Y-86101045D01*
X75915674Y-86101044D01*
X75911253Y-86096134D01*
X75878093Y-86072041D01*
X75834739Y-86015820D01*
X75828664Y-85945084D01*
X75840003Y-85922020D01*
X75846000Y-85894452D01*
X75846000Y-83560116D01*
X75841525Y-83544877D01*
X75840135Y-83543672D01*
X75832452Y-83542001D01*
X75515405Y-83542001D01*
X75508886Y-83542338D01*
X75413294Y-83552257D01*
X75399900Y-83555149D01*
X75245716Y-83606588D01*
X75232538Y-83612761D01*
X75094693Y-83698063D01*
X75083292Y-83707099D01*
X74963590Y-83827009D01*
X74961681Y-83825103D01*
X74913976Y-83858925D01*
X74843053Y-83862156D01*
X74781641Y-83826531D01*
X74759711Y-83793347D01*
X74759145Y-83791399D01*
X74751323Y-83778172D01*
X74678491Y-83655020D01*
X74678489Y-83655017D01*
X74674453Y-83648193D01*
X74556807Y-83530547D01*
X74549983Y-83526511D01*
X74549980Y-83526509D01*
X74420427Y-83449892D01*
X74420428Y-83449892D01*
X74413601Y-83445855D01*
X74405990Y-83443644D01*
X74405988Y-83443643D01*
X74343541Y-83425501D01*
X74253831Y-83399438D01*
X74247426Y-83398934D01*
X74247421Y-83398933D01*
X74218958Y-83396693D01*
X74218950Y-83396693D01*
X74216502Y-83396500D01*
X72433498Y-83396500D01*
X72431050Y-83396693D01*
X72431042Y-83396693D01*
X72402579Y-83398933D01*
X72402574Y-83398934D01*
X72396169Y-83399438D01*
X72306459Y-83425501D01*
X72244012Y-83443643D01*
X72244010Y-83443644D01*
X72236399Y-83445855D01*
X72229572Y-83449892D01*
X72229573Y-83449892D01*
X72100020Y-83526509D01*
X72100017Y-83526511D01*
X72093193Y-83530547D01*
X72069194Y-83554546D01*
X72013675Y-83586214D01*
X72011203Y-83586526D01*
X72003834Y-83589443D01*
X72003832Y-83589444D01*
X71970092Y-83602802D01*
X71958865Y-83606646D01*
X71916407Y-83618982D01*
X71909581Y-83623019D01*
X71898972Y-83629293D01*
X71881224Y-83637988D01*
X71862383Y-83645448D01*
X71855967Y-83650110D01*
X71855966Y-83650110D01*
X71826613Y-83671436D01*
X71816693Y-83677952D01*
X71785465Y-83696420D01*
X71785462Y-83696422D01*
X71778638Y-83700458D01*
X71764317Y-83714779D01*
X71749284Y-83727619D01*
X71732893Y-83739528D01*
X71727840Y-83745636D01*
X71704708Y-83773598D01*
X71696718Y-83782378D01*
X71574501Y-83904595D01*
X71512189Y-83938621D01*
X71485406Y-83941500D01*
X71429513Y-83941500D01*
X71423061Y-83942872D01*
X71423056Y-83942872D01*
X71336113Y-83961353D01*
X71242712Y-83981206D01*
X71236682Y-83983891D01*
X71236681Y-83983891D01*
X71074278Y-84056197D01*
X71074276Y-84056198D01*
X71068248Y-84058882D01*
X70913747Y-84171134D01*
X70909326Y-84176044D01*
X70909325Y-84176045D01*
X70813267Y-84282729D01*
X70785960Y-84313056D01*
X70749820Y-84375652D01*
X70701797Y-84458831D01*
X70690473Y-84478444D01*
X70631458Y-84660072D01*
X70630768Y-84666633D01*
X70630768Y-84666635D01*
X70617644Y-84791502D01*
X70611496Y-84850000D01*
X70612186Y-84856565D01*
X70628372Y-85010562D01*
X70631458Y-85039928D01*
X70690473Y-85221556D01*
X70693776Y-85227278D01*
X70693777Y-85227279D01*
X70727686Y-85286010D01*
X70785960Y-85386944D01*
X70790378Y-85391851D01*
X70790379Y-85391852D01*
X70909325Y-85523955D01*
X70913747Y-85528866D01*
X71068248Y-85641118D01*
X71074276Y-85643802D01*
X71074278Y-85643803D01*
X71186929Y-85693958D01*
X71242712Y-85718794D01*
X71336113Y-85738647D01*
X71423056Y-85757128D01*
X71423061Y-85757128D01*
X71429513Y-85758500D01*
X71620487Y-85758500D01*
X71626939Y-85757128D01*
X71626944Y-85757128D01*
X71708896Y-85739708D01*
X71725494Y-85736180D01*
X71796284Y-85741582D01*
X71852916Y-85784399D01*
X71872687Y-85824273D01*
X71889107Y-85880790D01*
X71895352Y-85895221D01*
X71971911Y-86024677D01*
X71977871Y-86032360D01*
X72003820Y-86098444D01*
X71989922Y-86168067D01*
X71979579Y-86184161D01*
X71975547Y-86188193D01*
X71890855Y-86331399D01*
X71888644Y-86339010D01*
X71888643Y-86339012D01*
X71881981Y-86361944D01*
X71844438Y-86491169D01*
X71843934Y-86497574D01*
X71843933Y-86497579D01*
X71842587Y-86514687D01*
X71841500Y-86528498D01*
X71841500Y-86961502D01*
X71844438Y-86998831D01*
X71890855Y-87158601D01*
X71975547Y-87301807D01*
X71978229Y-87304489D01*
X72003502Y-87368861D01*
X71989600Y-87438484D01*
X71979428Y-87454312D01*
X71975547Y-87458193D01*
X71890855Y-87601399D01*
X71844438Y-87761169D01*
X71841500Y-87798498D01*
X71841500Y-88231502D01*
X71844438Y-88268831D01*
X71890855Y-88428601D01*
X71898677Y-88441827D01*
X71971509Y-88564980D01*
X71971511Y-88564983D01*
X71975547Y-88571807D01*
X72093193Y-88689453D01*
X72100017Y-88693489D01*
X72100020Y-88693491D01*
X72174598Y-88737596D01*
X72236399Y-88774145D01*
X72244010Y-88776356D01*
X72244012Y-88776357D01*
X72296231Y-88791528D01*
X72396169Y-88820562D01*
X72402574Y-88821066D01*
X72402579Y-88821067D01*
X72431042Y-88823307D01*
X72431050Y-88823307D01*
X72433498Y-88823500D01*
X74216502Y-88823500D01*
X74218950Y-88823307D01*
X74218958Y-88823307D01*
X74247421Y-88821067D01*
X74247426Y-88821066D01*
X74253831Y-88820562D01*
X74260003Y-88818769D01*
X74260008Y-88818768D01*
X74325149Y-88799843D01*
X74391355Y-88780608D01*
X74462349Y-88780811D01*
X74521966Y-88819365D01*
X74546339Y-88862668D01*
X74565473Y-88921556D01*
X74660960Y-89086944D01*
X74665378Y-89091851D01*
X74665379Y-89091852D01*
X74693295Y-89122856D01*
X74788747Y-89228866D01*
X74873020Y-89290094D01*
X74911110Y-89317768D01*
X74943248Y-89341118D01*
X74949276Y-89343802D01*
X74949278Y-89343803D01*
X75111681Y-89416109D01*
X75117712Y-89418794D01*
X75211112Y-89438647D01*
X75298056Y-89457128D01*
X75298061Y-89457128D01*
X75304513Y-89458500D01*
X75495487Y-89458500D01*
X75501939Y-89457128D01*
X75501944Y-89457128D01*
X75588888Y-89438647D01*
X75682288Y-89418794D01*
X75688319Y-89416109D01*
X75850722Y-89343803D01*
X75850724Y-89343802D01*
X75856752Y-89341118D01*
X75888891Y-89317768D01*
X76002728Y-89235060D01*
X76011253Y-89228866D01*
X76039299Y-89197718D01*
X76099745Y-89160479D01*
X76170729Y-89161831D01*
X76222030Y-89192934D01*
X76562739Y-89533643D01*
X76596765Y-89595955D01*
X76591700Y-89666770D01*
X76549153Y-89723606D01*
X76482633Y-89748417D01*
X76473457Y-89748738D01*
X69330670Y-89738157D01*
X66166438Y-89733469D01*
X66098348Y-89713366D01*
X66051935Y-89659641D01*
X66041935Y-89589353D01*
X66071524Y-89524816D01*
X66077531Y-89518374D01*
X66092253Y-89503652D01*
X66100539Y-89496112D01*
X66107018Y-89492000D01*
X66153644Y-89442348D01*
X66156398Y-89439507D01*
X66176135Y-89419770D01*
X66178615Y-89416573D01*
X66186320Y-89407551D01*
X66211159Y-89381100D01*
X66216586Y-89375321D01*
X66220405Y-89368375D01*
X66220407Y-89368372D01*
X66226348Y-89357566D01*
X66237199Y-89341047D01*
X66244758Y-89331301D01*
X66249614Y-89325041D01*
X66252759Y-89317772D01*
X66252762Y-89317768D01*
X66267174Y-89284463D01*
X66272391Y-89273813D01*
X66293695Y-89235060D01*
X66298733Y-89215437D01*
X66305137Y-89196734D01*
X66310033Y-89185420D01*
X66310033Y-89185419D01*
X66313181Y-89178145D01*
X66314420Y-89170322D01*
X66314423Y-89170312D01*
X66320099Y-89134476D01*
X66322505Y-89122856D01*
X66331528Y-89087711D01*
X66331528Y-89087710D01*
X66333500Y-89080030D01*
X66333500Y-89059776D01*
X66335051Y-89040065D01*
X66336980Y-89027886D01*
X66338220Y-89020057D01*
X66334059Y-88976038D01*
X66333500Y-88964181D01*
X66333500Y-88379197D01*
X66353502Y-88311076D01*
X66407158Y-88264583D01*
X66419623Y-88259674D01*
X66467002Y-88243867D01*
X66467004Y-88243866D01*
X66473946Y-88241550D01*
X66490184Y-88231502D01*
X66618120Y-88152332D01*
X66624348Y-88148478D01*
X66629521Y-88143296D01*
X66629526Y-88143292D01*
X66676327Y-88096409D01*
X66738609Y-88062329D01*
X66809429Y-88067332D01*
X66866302Y-88109829D01*
X66891171Y-88176327D01*
X66891500Y-88185426D01*
X66891500Y-88231502D01*
X66894438Y-88268831D01*
X66940855Y-88428601D01*
X66948677Y-88441827D01*
X67021509Y-88564980D01*
X67021511Y-88564983D01*
X67025547Y-88571807D01*
X67143193Y-88689453D01*
X67150017Y-88693489D01*
X67150020Y-88693491D01*
X67224598Y-88737596D01*
X67286399Y-88774145D01*
X67294010Y-88776356D01*
X67294012Y-88776357D01*
X67346231Y-88791528D01*
X67446169Y-88820562D01*
X67452574Y-88821066D01*
X67452579Y-88821067D01*
X67481042Y-88823307D01*
X67481050Y-88823307D01*
X67483498Y-88823500D01*
X69266502Y-88823500D01*
X69268950Y-88823307D01*
X69268958Y-88823307D01*
X69297421Y-88821067D01*
X69297426Y-88821066D01*
X69303831Y-88820562D01*
X69403769Y-88791528D01*
X69455988Y-88776357D01*
X69455990Y-88776356D01*
X69463601Y-88774145D01*
X69525402Y-88737596D01*
X69599980Y-88693491D01*
X69599983Y-88693489D01*
X69606807Y-88689453D01*
X69612416Y-88683844D01*
X69618675Y-88678989D01*
X69619844Y-88680496D01*
X69673167Y-88651379D01*
X69699950Y-88648500D01*
X69906233Y-88648500D01*
X69917416Y-88649027D01*
X69924909Y-88650702D01*
X69932835Y-88650453D01*
X69932836Y-88650453D01*
X69992986Y-88648562D01*
X69996945Y-88648500D01*
X70024856Y-88648500D01*
X70028791Y-88648003D01*
X70028856Y-88647995D01*
X70040693Y-88647062D01*
X70072951Y-88646048D01*
X70076970Y-88645922D01*
X70084889Y-88645673D01*
X70104343Y-88640021D01*
X70123700Y-88636013D01*
X70135930Y-88634468D01*
X70135931Y-88634468D01*
X70143797Y-88633474D01*
X70151168Y-88630555D01*
X70151170Y-88630555D01*
X70184912Y-88617196D01*
X70196142Y-88613351D01*
X70230983Y-88603229D01*
X70230984Y-88603229D01*
X70238593Y-88601018D01*
X70245412Y-88596985D01*
X70245417Y-88596983D01*
X70256028Y-88590707D01*
X70273776Y-88582012D01*
X70292617Y-88574552D01*
X70328387Y-88548564D01*
X70338307Y-88542048D01*
X70369535Y-88523580D01*
X70369538Y-88523578D01*
X70376362Y-88519542D01*
X70390683Y-88505221D01*
X70405717Y-88492380D01*
X70415694Y-88485131D01*
X70422107Y-88480472D01*
X70450298Y-88446395D01*
X70458288Y-88437616D01*
X70500499Y-88395405D01*
X70562811Y-88361379D01*
X70589594Y-88358500D01*
X70645487Y-88358500D01*
X70651939Y-88357128D01*
X70651944Y-88357128D01*
X70738888Y-88338647D01*
X70832288Y-88318794D01*
X70849623Y-88311076D01*
X71000722Y-88243803D01*
X71000724Y-88243802D01*
X71006752Y-88241118D01*
X71161253Y-88128866D01*
X71178394Y-88109829D01*
X71284621Y-87991852D01*
X71284622Y-87991851D01*
X71289040Y-87986944D01*
X71384527Y-87821556D01*
X71443542Y-87639928D01*
X71446792Y-87609012D01*
X71462814Y-87456565D01*
X71463504Y-87450000D01*
X71448030Y-87302775D01*
X71444232Y-87266635D01*
X71444232Y-87266633D01*
X71443542Y-87260072D01*
X71384527Y-87078444D01*
X71289040Y-86913056D01*
X71260686Y-86881565D01*
X71165675Y-86776045D01*
X71165674Y-86776044D01*
X71161253Y-86771134D01*
X71047673Y-86688613D01*
X71012094Y-86662763D01*
X71012093Y-86662762D01*
X71006752Y-86658882D01*
X71000724Y-86656198D01*
X71000722Y-86656197D01*
X70838319Y-86583891D01*
X70838318Y-86583891D01*
X70832288Y-86581206D01*
X70738888Y-86561353D01*
X70651944Y-86542872D01*
X70651939Y-86542872D01*
X70645487Y-86541500D01*
X70454513Y-86541500D01*
X70448061Y-86542872D01*
X70448056Y-86542872D01*
X70361112Y-86561353D01*
X70267712Y-86581206D01*
X70261682Y-86583891D01*
X70261681Y-86583891D01*
X70099278Y-86656197D01*
X70099276Y-86656198D01*
X70093248Y-86658882D01*
X70058559Y-86684085D01*
X69991694Y-86707942D01*
X69922543Y-86691862D01*
X69873062Y-86640949D01*
X69858500Y-86582148D01*
X69858500Y-86528498D01*
X69857413Y-86514687D01*
X69856067Y-86497579D01*
X69856066Y-86497574D01*
X69855562Y-86491169D01*
X69818019Y-86361944D01*
X69811357Y-86339012D01*
X69811356Y-86339010D01*
X69809145Y-86331399D01*
X69724453Y-86188193D01*
X69721771Y-86185511D01*
X69696498Y-86121139D01*
X69710400Y-86051516D01*
X69720572Y-86035688D01*
X69724453Y-86031807D01*
X69809145Y-85888601D01*
X69811415Y-85880790D01*
X69839418Y-85784399D01*
X69855562Y-85728831D01*
X69856564Y-85716109D01*
X69858307Y-85693958D01*
X69858307Y-85693950D01*
X69858500Y-85691502D01*
X69858500Y-85258498D01*
X69855562Y-85221169D01*
X69809145Y-85061399D01*
X69724453Y-84918193D01*
X69721771Y-84915511D01*
X69696498Y-84851139D01*
X69710400Y-84781516D01*
X69720572Y-84765688D01*
X69724453Y-84761807D01*
X69809145Y-84618601D01*
X69855562Y-84458831D01*
X69858500Y-84421502D01*
X69858500Y-83988498D01*
X69858307Y-83986042D01*
X69856067Y-83957579D01*
X69856066Y-83957574D01*
X69855562Y-83951169D01*
X69809145Y-83791399D01*
X69771426Y-83727620D01*
X69728491Y-83655020D01*
X69728489Y-83655017D01*
X69724453Y-83648193D01*
X69606807Y-83530547D01*
X69599983Y-83526511D01*
X69599980Y-83526509D01*
X69470427Y-83449892D01*
X69470428Y-83449892D01*
X69463601Y-83445855D01*
X69455990Y-83443644D01*
X69455988Y-83443643D01*
X69393541Y-83425501D01*
X69303831Y-83399438D01*
X69297426Y-83398934D01*
X69297421Y-83398933D01*
X69268956Y-83396693D01*
X69268952Y-83396693D01*
X69266502Y-83396500D01*
X69264029Y-83396500D01*
X69262166Y-83396427D01*
X69194881Y-83373773D01*
X69150525Y-83318337D01*
X69143181Y-83247722D01*
X69175181Y-83184345D01*
X69240901Y-83147278D01*
X69250826Y-83145168D01*
X69250830Y-83145167D01*
X69257288Y-83143794D01*
X69337616Y-83108030D01*
X69425722Y-83068803D01*
X69425724Y-83068802D01*
X69431752Y-83066118D01*
X69438384Y-83061300D01*
X69538091Y-82988858D01*
X69586253Y-82953866D01*
X69592969Y-82946407D01*
X69709621Y-82816852D01*
X69709622Y-82816851D01*
X69714040Y-82811944D01*
X69802018Y-82659562D01*
X69806223Y-82652279D01*
X69806224Y-82652278D01*
X69809527Y-82646556D01*
X69868542Y-82464928D01*
X69871785Y-82434079D01*
X69887814Y-82281565D01*
X69888504Y-82275000D01*
X69868542Y-82085072D01*
X69809527Y-81903444D01*
X69805962Y-81897269D01*
X73889301Y-81897269D01*
X73889671Y-81904090D01*
X73895195Y-81954952D01*
X73898821Y-81970204D01*
X73943976Y-82090654D01*
X73952514Y-82106249D01*
X74029015Y-82208324D01*
X74041576Y-82220885D01*
X74143651Y-82297386D01*
X74159246Y-82305924D01*
X74279694Y-82351078D01*
X74294949Y-82354705D01*
X74345814Y-82360231D01*
X74352628Y-82360600D01*
X74975185Y-82360600D01*
X74990424Y-82356125D01*
X74991629Y-82354735D01*
X74993300Y-82347052D01*
X74993300Y-82342484D01*
X75501300Y-82342484D01*
X75505775Y-82357723D01*
X75507165Y-82358928D01*
X75514848Y-82360599D01*
X76141969Y-82360599D01*
X76148790Y-82360229D01*
X76199652Y-82354705D01*
X76214904Y-82351079D01*
X76335354Y-82305924D01*
X76350949Y-82297386D01*
X76453024Y-82220885D01*
X76465585Y-82208324D01*
X76542086Y-82106249D01*
X76550624Y-82090654D01*
X76595778Y-81970206D01*
X76599405Y-81954951D01*
X76604931Y-81904086D01*
X76605300Y-81897272D01*
X76605300Y-81274715D01*
X76600825Y-81259476D01*
X76599435Y-81258271D01*
X76591752Y-81256600D01*
X75519415Y-81256600D01*
X75504176Y-81261075D01*
X75502971Y-81262465D01*
X75501300Y-81270148D01*
X75501300Y-82342484D01*
X74993300Y-82342484D01*
X74993300Y-81274715D01*
X74988825Y-81259476D01*
X74987435Y-81258271D01*
X74979752Y-81256600D01*
X73907416Y-81256600D01*
X73892177Y-81261075D01*
X73890972Y-81262465D01*
X73889301Y-81270148D01*
X73889301Y-81897269D01*
X69805962Y-81897269D01*
X69714040Y-81738056D01*
X69586253Y-81596134D01*
X69431752Y-81483882D01*
X69425724Y-81481198D01*
X69425722Y-81481197D01*
X69263319Y-81408891D01*
X69263318Y-81408891D01*
X69257288Y-81406206D01*
X69163888Y-81386353D01*
X69076944Y-81367872D01*
X69076939Y-81367872D01*
X69070487Y-81366500D01*
X68879513Y-81366500D01*
X68873061Y-81367872D01*
X68873056Y-81367872D01*
X68786112Y-81386353D01*
X68692712Y-81406206D01*
X68686682Y-81408891D01*
X68686681Y-81408891D01*
X68524278Y-81481197D01*
X68524276Y-81481198D01*
X68518248Y-81483882D01*
X68363747Y-81596134D01*
X68235960Y-81738056D01*
X68140473Y-81903444D01*
X68081458Y-82085072D01*
X68080768Y-82091633D01*
X68080768Y-82091635D01*
X68064093Y-82250292D01*
X68037080Y-82315949D01*
X68027878Y-82326217D01*
X67982747Y-82371348D01*
X67974461Y-82378888D01*
X67967982Y-82383000D01*
X67962557Y-82388777D01*
X67921357Y-82432651D01*
X67918602Y-82435493D01*
X67898865Y-82455230D01*
X67896385Y-82458427D01*
X67888682Y-82467447D01*
X67858414Y-82499679D01*
X67854595Y-82506625D01*
X67854593Y-82506628D01*
X67848652Y-82517434D01*
X67837801Y-82533953D01*
X67825386Y-82549959D01*
X67822241Y-82557228D01*
X67822238Y-82557232D01*
X67807826Y-82590537D01*
X67802609Y-82601187D01*
X67781305Y-82639940D01*
X67779334Y-82647615D01*
X67779334Y-82647616D01*
X67776267Y-82659562D01*
X67769863Y-82678266D01*
X67761819Y-82696855D01*
X67760580Y-82704678D01*
X67760577Y-82704688D01*
X67754901Y-82740524D01*
X67752495Y-82752144D01*
X67743472Y-82787289D01*
X67741500Y-82794970D01*
X67741500Y-82815224D01*
X67739949Y-82834934D01*
X67736780Y-82854943D01*
X67737526Y-82862835D01*
X67740941Y-82898961D01*
X67741500Y-82910819D01*
X67741500Y-83270500D01*
X67721498Y-83338621D01*
X67667842Y-83385114D01*
X67615500Y-83396500D01*
X67483498Y-83396500D01*
X67481050Y-83396693D01*
X67481042Y-83396693D01*
X67452579Y-83398933D01*
X67452574Y-83398934D01*
X67446169Y-83399438D01*
X67356459Y-83425501D01*
X67294012Y-83443643D01*
X67294010Y-83443644D01*
X67286399Y-83445855D01*
X67279572Y-83449892D01*
X67279573Y-83449892D01*
X67150020Y-83526509D01*
X67150017Y-83526511D01*
X67143193Y-83530547D01*
X67025547Y-83648193D01*
X67021511Y-83655017D01*
X67021509Y-83655020D01*
X66978574Y-83727620D01*
X66940855Y-83791399D01*
X66894438Y-83951169D01*
X66893934Y-83957574D01*
X66893933Y-83957579D01*
X66891693Y-83986042D01*
X66891500Y-83988498D01*
X66891500Y-84214608D01*
X66871498Y-84282729D01*
X66817842Y-84329222D01*
X66747568Y-84339326D01*
X66682988Y-84309832D01*
X66676483Y-84303781D01*
X66628488Y-84255870D01*
X66628483Y-84255866D01*
X66623303Y-84250695D01*
X66617072Y-84246854D01*
X66478968Y-84161725D01*
X66478966Y-84161724D01*
X66472738Y-84157885D01*
X66419832Y-84140337D01*
X66361473Y-84099906D01*
X66334236Y-84034342D01*
X66333500Y-84020744D01*
X66333500Y-83278767D01*
X66334027Y-83267584D01*
X66335702Y-83260091D01*
X66333562Y-83192014D01*
X66333500Y-83188055D01*
X66333500Y-83160144D01*
X66332995Y-83156144D01*
X66332062Y-83144301D01*
X66330922Y-83108030D01*
X66330673Y-83100111D01*
X66325021Y-83080657D01*
X66321013Y-83061300D01*
X66319468Y-83049070D01*
X66319468Y-83049069D01*
X66318474Y-83041203D01*
X66315555Y-83033830D01*
X66302196Y-83000088D01*
X66298351Y-82988858D01*
X66288229Y-82954017D01*
X66288229Y-82954016D01*
X66286018Y-82946407D01*
X66281985Y-82939588D01*
X66281983Y-82939583D01*
X66275707Y-82928972D01*
X66267012Y-82911224D01*
X66259552Y-82892383D01*
X66238085Y-82862835D01*
X66233564Y-82856613D01*
X66227048Y-82846693D01*
X66208580Y-82815465D01*
X66208578Y-82815462D01*
X66204542Y-82808638D01*
X66190221Y-82794317D01*
X66177380Y-82779283D01*
X66170131Y-82769306D01*
X66165472Y-82762893D01*
X66159368Y-82757843D01*
X66159363Y-82757838D01*
X66131402Y-82734707D01*
X66122621Y-82726717D01*
X65410404Y-82014499D01*
X65376379Y-81952187D01*
X65373500Y-81925404D01*
X65373500Y-79783874D01*
X65393502Y-79715753D01*
X65447158Y-79669260D01*
X65498436Y-79657878D01*
X67353689Y-79642244D01*
X69381887Y-79625153D01*
X69381888Y-79625153D01*
X69400000Y-79625000D01*
X69400000Y-77400207D01*
X69420002Y-77332086D01*
X69473658Y-77285593D01*
X69525205Y-77274210D01*
X70018557Y-77271097D01*
X74236713Y-77244485D01*
X74304959Y-77264056D01*
X74351789Y-77317418D01*
X74362336Y-77387626D01*
X74328603Y-77457532D01*
X74187929Y-77604738D01*
X74062043Y-77789280D01*
X73967988Y-77991905D01*
X73908289Y-78207170D01*
X73884551Y-78429295D01*
X73884848Y-78434448D01*
X73884848Y-78434451D01*
X73890311Y-78529190D01*
X73897410Y-78652315D01*
X73898547Y-78657361D01*
X73898548Y-78657367D01*
X73918419Y-78745539D01*
X73946522Y-78870239D01*
X74030566Y-79077216D01*
X74147287Y-79267688D01*
X74293550Y-79436538D01*
X74297525Y-79439838D01*
X74297531Y-79439844D01*
X74302725Y-79444156D01*
X74342359Y-79503060D01*
X74343855Y-79574041D01*
X74306739Y-79634562D01*
X74266468Y-79659080D01*
X74159246Y-79699276D01*
X74143651Y-79707814D01*
X74041576Y-79784315D01*
X74029015Y-79796876D01*
X73952514Y-79898951D01*
X73943976Y-79914546D01*
X73898822Y-80034994D01*
X73895195Y-80050249D01*
X73889669Y-80101114D01*
X73889300Y-80107928D01*
X73889300Y-80730485D01*
X73893775Y-80745724D01*
X73895165Y-80746929D01*
X73902848Y-80748600D01*
X76587184Y-80748600D01*
X76602423Y-80744125D01*
X76603628Y-80742735D01*
X76605299Y-80735052D01*
X76605299Y-80107931D01*
X76604929Y-80101110D01*
X76599405Y-80050248D01*
X76595779Y-80034996D01*
X76550624Y-79914546D01*
X76542086Y-79898951D01*
X76465585Y-79796876D01*
X76453024Y-79784315D01*
X76350949Y-79707814D01*
X76335354Y-79699276D01*
X76225113Y-79657948D01*
X76168349Y-79615306D01*
X76143649Y-79548745D01*
X76158857Y-79479396D01*
X76180404Y-79450715D01*
X76281730Y-79349744D01*
X76281740Y-79349732D01*
X76285396Y-79346089D01*
X76344894Y-79263289D01*
X76412735Y-79168877D01*
X76415753Y-79164677D01*
X76454432Y-79086417D01*
X76512436Y-78969053D01*
X76512437Y-78969051D01*
X76514730Y-78964411D01*
X76579670Y-78750669D01*
X76608829Y-78529190D01*
X76610456Y-78462600D01*
X76592152Y-78239961D01*
X76537731Y-78023302D01*
X76448654Y-77818440D01*
X76327314Y-77630877D01*
X76176970Y-77465651D01*
X76165641Y-77456704D01*
X76124581Y-77398787D01*
X76121350Y-77327864D01*
X76156976Y-77266453D01*
X76220147Y-77234052D01*
X76242941Y-77231827D01*
X77198205Y-77225800D01*
X77266451Y-77245371D01*
G37*
%TD.AperFunction*%
%TD*%
%TA.AperFunction,Conductor*%
%TO.N,+3V3*%
G36*
X99961286Y-69127468D02*
G01*
X99976119Y-69129778D01*
X99976123Y-69129778D01*
X99984992Y-69131159D01*
X99993894Y-69129995D01*
X99993896Y-69129995D01*
X100001692Y-69128975D01*
X100008105Y-69128137D01*
X100028397Y-69127135D01*
X100583286Y-69144573D01*
X100591185Y-69145070D01*
X101001408Y-69183847D01*
X101176931Y-69200439D01*
X101184770Y-69201429D01*
X101431794Y-69240554D01*
X101765900Y-69293471D01*
X101773656Y-69294950D01*
X102347874Y-69423304D01*
X102355495Y-69425261D01*
X102920514Y-69589414D01*
X102928017Y-69591852D01*
X103043561Y-69633450D01*
X103481597Y-69791153D01*
X103488956Y-69794067D01*
X104028916Y-70027727D01*
X104036064Y-70031090D01*
X104513980Y-70274600D01*
X104560317Y-70298210D01*
X104567253Y-70302024D01*
X105073667Y-70601517D01*
X105080335Y-70605748D01*
X105289876Y-70748152D01*
X105566950Y-70936451D01*
X105573354Y-70941103D01*
X106038271Y-71301729D01*
X106044340Y-71306751D01*
X106277473Y-71512285D01*
X106485676Y-71695841D01*
X106491446Y-71701259D01*
X106907479Y-72117291D01*
X106912898Y-72123062D01*
X107301974Y-72564382D01*
X107307020Y-72570481D01*
X107338136Y-72610595D01*
X107615565Y-72968255D01*
X107667629Y-73035376D01*
X107672276Y-73041772D01*
X107752597Y-73159961D01*
X108002989Y-73528401D01*
X108007230Y-73535085D01*
X108306714Y-74041483D01*
X108310528Y-74048419D01*
X108577648Y-74572672D01*
X108581004Y-74579804D01*
X108814679Y-75119795D01*
X108817581Y-75127123D01*
X109016742Y-75680316D01*
X109016883Y-75680707D01*
X109019325Y-75688223D01*
X109087418Y-75922600D01*
X109183472Y-76253219D01*
X109185440Y-76260886D01*
X109313787Y-76835076D01*
X109315270Y-76842844D01*
X109403256Y-77398365D01*
X109407309Y-77423957D01*
X109408300Y-77431801D01*
X109422335Y-77580271D01*
X109463670Y-78017550D01*
X109464167Y-78025450D01*
X109481366Y-78572749D01*
X109479928Y-78596089D01*
X109477577Y-78611192D01*
X109478741Y-78620094D01*
X109478741Y-78620096D01*
X109481704Y-78642751D01*
X109482768Y-78659089D01*
X109482768Y-93568101D01*
X109481268Y-93587486D01*
X109478958Y-93602319D01*
X109478958Y-93602323D01*
X109477577Y-93611192D01*
X109478741Y-93620094D01*
X109478741Y-93620096D01*
X109479218Y-93623744D01*
X109480379Y-93632617D01*
X109480599Y-93634302D01*
X109481601Y-93654597D01*
X109464163Y-94209486D01*
X109463666Y-94217385D01*
X109424704Y-94629570D01*
X109409566Y-94789715D01*
X109408298Y-94803125D01*
X109407307Y-94810970D01*
X109378714Y-94991500D01*
X109315265Y-95392100D01*
X109313786Y-95399856D01*
X109185432Y-95974073D01*
X109183475Y-95981694D01*
X109019888Y-96544767D01*
X109019326Y-96546701D01*
X109016884Y-96554217D01*
X108948124Y-96745205D01*
X108817583Y-97107797D01*
X108814669Y-97115156D01*
X108581009Y-97655116D01*
X108577646Y-97662264D01*
X108398761Y-98013344D01*
X108310531Y-98186504D01*
X108306718Y-98193440D01*
X108007221Y-98699863D01*
X108002979Y-98706547D01*
X107954693Y-98777598D01*
X107777809Y-99037875D01*
X107672279Y-99193157D01*
X107667632Y-99199553D01*
X107307007Y-99664469D01*
X107301985Y-99670538D01*
X106979627Y-100036182D01*
X106912888Y-100111882D01*
X106907469Y-100117652D01*
X106491452Y-100533669D01*
X106485683Y-100539087D01*
X106044338Y-100928185D01*
X106038269Y-100933207D01*
X105885778Y-101051491D01*
X105573360Y-101293827D01*
X105566957Y-101298479D01*
X105080347Y-101629179D01*
X105073663Y-101633421D01*
X104567240Y-101932918D01*
X104560306Y-101936730D01*
X104036064Y-102203846D01*
X104028916Y-102207209D01*
X103488956Y-102440869D01*
X103481597Y-102443783D01*
X103204813Y-102543431D01*
X102928017Y-102643084D01*
X102920513Y-102645522D01*
X102355494Y-102809675D01*
X102347873Y-102811632D01*
X101773656Y-102939986D01*
X101765900Y-102941465D01*
X101431794Y-102994382D01*
X101184770Y-103033507D01*
X101176931Y-103034497D01*
X101011993Y-103050088D01*
X100591185Y-103089866D01*
X100583286Y-103090363D01*
X100035968Y-103107563D01*
X100012626Y-103106125D01*
X100006418Y-103105158D01*
X100006413Y-103105158D01*
X99997544Y-103103777D01*
X99988642Y-103104941D01*
X99988640Y-103104941D01*
X99974434Y-103106799D01*
X99965982Y-103107904D01*
X99949647Y-103108968D01*
X65040635Y-103108968D01*
X65021250Y-103107468D01*
X65006417Y-103105158D01*
X65006413Y-103105158D01*
X64997544Y-103103777D01*
X64988642Y-103104941D01*
X64988640Y-103104941D01*
X64980844Y-103105961D01*
X64974431Y-103106799D01*
X64954139Y-103107801D01*
X64399250Y-103090363D01*
X64391350Y-103089866D01*
X64054857Y-103058058D01*
X63805603Y-103034496D01*
X63797767Y-103033506D01*
X63216645Y-102941466D01*
X63208877Y-102939983D01*
X62634687Y-102811636D01*
X62627020Y-102809668D01*
X62356581Y-102731098D01*
X62062024Y-102645521D01*
X62054521Y-102643083D01*
X61500925Y-102443777D01*
X61493597Y-102440875D01*
X60953606Y-102207200D01*
X60946474Y-102203844D01*
X60422233Y-101936730D01*
X60415297Y-101932917D01*
X60347544Y-101892848D01*
X59908859Y-101633411D01*
X59902207Y-101629189D01*
X59415574Y-101298473D01*
X59409185Y-101293831D01*
X58944269Y-100933206D01*
X58938200Y-100928184D01*
X58496856Y-100539087D01*
X58491086Y-100533668D01*
X58075069Y-100117651D01*
X58069650Y-100111881D01*
X57680567Y-99670552D01*
X57675521Y-99664453D01*
X57364777Y-99263844D01*
X57314907Y-99199552D01*
X57310260Y-99193155D01*
X56979560Y-98706544D01*
X56975318Y-98699861D01*
X56675821Y-98193439D01*
X56672008Y-98186503D01*
X56583779Y-98013344D01*
X56404894Y-97662263D01*
X56401538Y-97655131D01*
X56167864Y-97115141D01*
X56164962Y-97107811D01*
X55965655Y-96554215D01*
X55963217Y-96546712D01*
X55839604Y-96121233D01*
X55799071Y-95981717D01*
X55797103Y-95974050D01*
X55668756Y-95399860D01*
X55667272Y-95392085D01*
X55665652Y-95381857D01*
X55575233Y-94810969D01*
X55574242Y-94803125D01*
X55572975Y-94789715D01*
X55537960Y-94419297D01*
X55518874Y-94217386D01*
X55518377Y-94209486D01*
X55501176Y-93662149D01*
X55502614Y-93638805D01*
X55503578Y-93632617D01*
X55503578Y-93632612D01*
X55504959Y-93623744D01*
X55502753Y-93606870D01*
X55500832Y-93592185D01*
X55499768Y-93575847D01*
X55499768Y-90479761D01*
X55519770Y-90411640D01*
X55573426Y-90365147D01*
X55643700Y-90355043D01*
X55698038Y-90376548D01*
X55712427Y-90386623D01*
X55770238Y-90411640D01*
X55858883Y-90450000D01*
X55890204Y-90463554D01*
X55896452Y-90464859D01*
X55896451Y-90464859D01*
X56075073Y-90502176D01*
X56075077Y-90502176D01*
X56079818Y-90503167D01*
X56086172Y-90503500D01*
X56888408Y-90503500D01*
X56934161Y-90498853D01*
X57026368Y-90489487D01*
X57026370Y-90489487D01*
X57032716Y-90488842D01*
X57217561Y-90430915D01*
X57386982Y-90337003D01*
X57391824Y-90332853D01*
X57391831Y-90332848D01*
X57487901Y-90250506D01*
X57552640Y-90221362D01*
X57568826Y-90220179D01*
X63327466Y-90171377D01*
X63395753Y-90190801D01*
X63442699Y-90244060D01*
X63453398Y-90314246D01*
X63424453Y-90379075D01*
X63417628Y-90386467D01*
X61772747Y-92031348D01*
X61764461Y-92038888D01*
X61757982Y-92043000D01*
X61752557Y-92048777D01*
X61711357Y-92092651D01*
X61708602Y-92095493D01*
X61688865Y-92115230D01*
X61686385Y-92118427D01*
X61678682Y-92127447D01*
X61648414Y-92159679D01*
X61644595Y-92166625D01*
X61644593Y-92166628D01*
X61638652Y-92177434D01*
X61627801Y-92193953D01*
X61615386Y-92209959D01*
X61612241Y-92217228D01*
X61612238Y-92217232D01*
X61597826Y-92250537D01*
X61592609Y-92261187D01*
X61571305Y-92299940D01*
X61569334Y-92307615D01*
X61569334Y-92307616D01*
X61566267Y-92319562D01*
X61559863Y-92338266D01*
X61551819Y-92356855D01*
X61550580Y-92364678D01*
X61550577Y-92364688D01*
X61544901Y-92400524D01*
X61542495Y-92412144D01*
X61533472Y-92447289D01*
X61531500Y-92454970D01*
X61531500Y-92475224D01*
X61529949Y-92494934D01*
X61526780Y-92514943D01*
X61527526Y-92522835D01*
X61530941Y-92558961D01*
X61531500Y-92570819D01*
X61531500Y-92591454D01*
X61511498Y-92659575D01*
X61462703Y-92703721D01*
X61459846Y-92705177D01*
X61455268Y-92707073D01*
X61451044Y-92709662D01*
X61451043Y-92709662D01*
X61277788Y-92815832D01*
X61209255Y-92834370D01*
X61141578Y-92812913D01*
X61111128Y-92783965D01*
X61098179Y-92766687D01*
X61038261Y-92686739D01*
X60921705Y-92599385D01*
X60785316Y-92548255D01*
X60723134Y-92541500D01*
X58526866Y-92541500D01*
X58464684Y-92548255D01*
X58328295Y-92599385D01*
X58211739Y-92686739D01*
X58124385Y-92803295D01*
X58073255Y-92939684D01*
X58066500Y-93001866D01*
X58066500Y-95198134D01*
X58073255Y-95260316D01*
X58124385Y-95396705D01*
X58211739Y-95513261D01*
X58328295Y-95600615D01*
X58464684Y-95651745D01*
X58526866Y-95658500D01*
X60723134Y-95658500D01*
X60785316Y-95651745D01*
X60921705Y-95600615D01*
X61038261Y-95513261D01*
X61111128Y-95416035D01*
X61167988Y-95373521D01*
X61238806Y-95368496D01*
X61277788Y-95384168D01*
X61303395Y-95399860D01*
X61455268Y-95492927D01*
X61526946Y-95522617D01*
X61677335Y-95584911D01*
X61677337Y-95584912D01*
X61681908Y-95586805D01*
X61716997Y-95595229D01*
X61915630Y-95642917D01*
X61915636Y-95642918D01*
X61920443Y-95644072D01*
X62165000Y-95663319D01*
X62409557Y-95644072D01*
X62414364Y-95642918D01*
X62414370Y-95642917D01*
X62613003Y-95595229D01*
X62648092Y-95586805D01*
X62652663Y-95584912D01*
X62652665Y-95584911D01*
X62803054Y-95522617D01*
X62874732Y-95492927D01*
X63026605Y-95399860D01*
X63079670Y-95367342D01*
X63079673Y-95367340D01*
X63083896Y-95364752D01*
X63101347Y-95349848D01*
X63266677Y-95208641D01*
X63270433Y-95205433D01*
X63319358Y-95148150D01*
X63339189Y-95124931D01*
X63398640Y-95086122D01*
X63469635Y-95085616D01*
X63530811Y-95124931D01*
X63550642Y-95148150D01*
X63599567Y-95205433D01*
X63603323Y-95208641D01*
X63768654Y-95349848D01*
X63786104Y-95364752D01*
X63790327Y-95367340D01*
X63790330Y-95367342D01*
X63843395Y-95399860D01*
X63995268Y-95492927D01*
X64066946Y-95522617D01*
X64217335Y-95584911D01*
X64217337Y-95584912D01*
X64221908Y-95586805D01*
X64256997Y-95595229D01*
X64455630Y-95642917D01*
X64455636Y-95642918D01*
X64460443Y-95644072D01*
X64705000Y-95663319D01*
X64949557Y-95644072D01*
X64954364Y-95642918D01*
X64954370Y-95642917D01*
X65153003Y-95595229D01*
X65188092Y-95586805D01*
X65192663Y-95584912D01*
X65192665Y-95584911D01*
X65343054Y-95522617D01*
X65414732Y-95492927D01*
X65566605Y-95399860D01*
X65619670Y-95367342D01*
X65619673Y-95367340D01*
X65623896Y-95364752D01*
X65641347Y-95349848D01*
X65806677Y-95208641D01*
X65810433Y-95205433D01*
X65859358Y-95148150D01*
X65879189Y-95124931D01*
X65938640Y-95086122D01*
X66009635Y-95085616D01*
X66070811Y-95124931D01*
X66090642Y-95148150D01*
X66139567Y-95205433D01*
X66143323Y-95208641D01*
X66308654Y-95349848D01*
X66326104Y-95364752D01*
X66330327Y-95367340D01*
X66330330Y-95367342D01*
X66383395Y-95399860D01*
X66535268Y-95492927D01*
X66606946Y-95522617D01*
X66757335Y-95584911D01*
X66757337Y-95584912D01*
X66761908Y-95586805D01*
X66796997Y-95595229D01*
X66995630Y-95642917D01*
X66995636Y-95642918D01*
X67000443Y-95644072D01*
X67245000Y-95663319D01*
X67489557Y-95644072D01*
X67494364Y-95642918D01*
X67494370Y-95642917D01*
X67693003Y-95595229D01*
X67728092Y-95586805D01*
X67732663Y-95584912D01*
X67732665Y-95584911D01*
X67883054Y-95522617D01*
X67954732Y-95492927D01*
X68106605Y-95399860D01*
X68159670Y-95367342D01*
X68159673Y-95367340D01*
X68163896Y-95364752D01*
X68181347Y-95349848D01*
X68346677Y-95208641D01*
X68350433Y-95205433D01*
X68399358Y-95148150D01*
X68506535Y-95022663D01*
X68506537Y-95022660D01*
X68509752Y-95018896D01*
X68513718Y-95012425D01*
X68562008Y-94933621D01*
X68637927Y-94809732D01*
X68714617Y-94624588D01*
X68729911Y-94587665D01*
X68729912Y-94587663D01*
X68731805Y-94583092D01*
X68735742Y-94566695D01*
X72037251Y-94566695D01*
X72037548Y-94571848D01*
X72037548Y-94571851D01*
X72043202Y-94669908D01*
X72050110Y-94789715D01*
X72051247Y-94794761D01*
X72051248Y-94794767D01*
X72062921Y-94846562D01*
X72099222Y-95007639D01*
X72137461Y-95101811D01*
X72177174Y-95199612D01*
X72183266Y-95214616D01*
X72211271Y-95260316D01*
X72295362Y-95397540D01*
X72299987Y-95405088D01*
X72446250Y-95573938D01*
X72450230Y-95577242D01*
X72454981Y-95581187D01*
X72494616Y-95640090D01*
X72496113Y-95711071D01*
X72458997Y-95771593D01*
X72418724Y-95796112D01*
X72303295Y-95839385D01*
X72186739Y-95926739D01*
X72099385Y-96043295D01*
X72048255Y-96179684D01*
X72041500Y-96241866D01*
X72041500Y-98038134D01*
X72048255Y-98100316D01*
X72099385Y-98236705D01*
X72186739Y-98353261D01*
X72303295Y-98440615D01*
X72439684Y-98491745D01*
X72501866Y-98498500D01*
X74298134Y-98498500D01*
X74360316Y-98491745D01*
X74496705Y-98440615D01*
X74613261Y-98353261D01*
X74700615Y-98236705D01*
X74751745Y-98100316D01*
X74758500Y-98038134D01*
X74758500Y-96241866D01*
X74751745Y-96179684D01*
X74700615Y-96043295D01*
X74613261Y-95926739D01*
X74496705Y-95839385D01*
X74484132Y-95834672D01*
X74378203Y-95794960D01*
X74321439Y-95752318D01*
X74296739Y-95685756D01*
X74311947Y-95616408D01*
X74333493Y-95587727D01*
X74403186Y-95518277D01*
X74438096Y-95483489D01*
X74489107Y-95412500D01*
X74565435Y-95306277D01*
X74568453Y-95302077D01*
X74589093Y-95260316D01*
X74665136Y-95106453D01*
X74665137Y-95106451D01*
X74667430Y-95101811D01*
X74701351Y-94990165D01*
X74730865Y-94893023D01*
X74730865Y-94893021D01*
X74732370Y-94888069D01*
X74737159Y-94851695D01*
X77162251Y-94851695D01*
X77162548Y-94856848D01*
X77162548Y-94856851D01*
X77173960Y-95054771D01*
X77175110Y-95074715D01*
X77176247Y-95079761D01*
X77176248Y-95079767D01*
X77196119Y-95167939D01*
X77224222Y-95292639D01*
X77283313Y-95438163D01*
X77306319Y-95494820D01*
X77308266Y-95499616D01*
X77319925Y-95518642D01*
X77419648Y-95681375D01*
X77424987Y-95690088D01*
X77571250Y-95858938D01*
X77575230Y-95862242D01*
X77579981Y-95866187D01*
X77619616Y-95925090D01*
X77621113Y-95996071D01*
X77583997Y-96056593D01*
X77543725Y-96081112D01*
X77458486Y-96113067D01*
X77428295Y-96124385D01*
X77311739Y-96211739D01*
X77224385Y-96328295D01*
X77173255Y-96464684D01*
X77166500Y-96526866D01*
X77166500Y-98323134D01*
X77173255Y-98385316D01*
X77224385Y-98521705D01*
X77311739Y-98638261D01*
X77428295Y-98725615D01*
X77564684Y-98776745D01*
X77626866Y-98783500D01*
X79423134Y-98783500D01*
X79485316Y-98776745D01*
X79621705Y-98725615D01*
X79738261Y-98638261D01*
X79825615Y-98521705D01*
X79876745Y-98385316D01*
X79883500Y-98323134D01*
X79883500Y-96526866D01*
X79876745Y-96464684D01*
X79825615Y-96328295D01*
X79738261Y-96211739D01*
X79621705Y-96124385D01*
X79609132Y-96119672D01*
X79503203Y-96079960D01*
X79446439Y-96037318D01*
X79421739Y-95970756D01*
X79436947Y-95901408D01*
X79458493Y-95872727D01*
X79559435Y-95772137D01*
X79563096Y-95768489D01*
X79622594Y-95685689D01*
X79690435Y-95591277D01*
X79693453Y-95587077D01*
X79725863Y-95521501D01*
X79790136Y-95391453D01*
X79790137Y-95391451D01*
X79792430Y-95386811D01*
X79844747Y-95214616D01*
X79855865Y-95178023D01*
X79855865Y-95178021D01*
X79857370Y-95173069D01*
X79886529Y-94951590D01*
X79888156Y-94885000D01*
X79869852Y-94662361D01*
X79815431Y-94445702D01*
X79726354Y-94240840D01*
X79654199Y-94129305D01*
X79607822Y-94057617D01*
X79607820Y-94057614D01*
X79605014Y-94053277D01*
X79454670Y-93888051D01*
X79450619Y-93884852D01*
X79450615Y-93884848D01*
X79283414Y-93752800D01*
X79283410Y-93752798D01*
X79279359Y-93749598D01*
X79238053Y-93726796D01*
X79188084Y-93676364D01*
X79173312Y-93606921D01*
X79198428Y-93540516D01*
X79225780Y-93513909D01*
X79290422Y-93467800D01*
X79404860Y-93386173D01*
X79427906Y-93363208D01*
X79559435Y-93232137D01*
X79563096Y-93228489D01*
X79569573Y-93219476D01*
X79690435Y-93051277D01*
X79693453Y-93047077D01*
X79710982Y-93011611D01*
X79790136Y-92851453D01*
X79790137Y-92851451D01*
X79792430Y-92846811D01*
X79845162Y-92673250D01*
X79855865Y-92638023D01*
X79855865Y-92638021D01*
X79857370Y-92633069D01*
X79886529Y-92411590D01*
X79886656Y-92406389D01*
X79888074Y-92348365D01*
X79888074Y-92348361D01*
X79888156Y-92345000D01*
X79869852Y-92122361D01*
X79815431Y-91905702D01*
X79726354Y-91700840D01*
X79651288Y-91584806D01*
X79607822Y-91517617D01*
X79607820Y-91517614D01*
X79605014Y-91513277D01*
X79454670Y-91348051D01*
X79450619Y-91344852D01*
X79450615Y-91344848D01*
X79283414Y-91212800D01*
X79283410Y-91212798D01*
X79279359Y-91209598D01*
X79083789Y-91101638D01*
X79078920Y-91099914D01*
X79078916Y-91099912D01*
X78878087Y-91028795D01*
X78878083Y-91028794D01*
X78873212Y-91027069D01*
X78868119Y-91026162D01*
X78868116Y-91026161D01*
X78658373Y-90988800D01*
X78658367Y-90988799D01*
X78653284Y-90987894D01*
X78575525Y-90986944D01*
X78435081Y-90985228D01*
X78435079Y-90985228D01*
X78429911Y-90985165D01*
X78209091Y-91018955D01*
X77996756Y-91088357D01*
X77966443Y-91104137D01*
X77809169Y-91186009D01*
X77798607Y-91191507D01*
X77794474Y-91194610D01*
X77794471Y-91194612D01*
X77632652Y-91316109D01*
X77619965Y-91325635D01*
X77465629Y-91487138D01*
X77462715Y-91491410D01*
X77462714Y-91491411D01*
X77444838Y-91517617D01*
X77339743Y-91671680D01*
X77324993Y-91703456D01*
X77253923Y-91856565D01*
X77245688Y-91874305D01*
X77185989Y-92089570D01*
X77162251Y-92311695D01*
X77162548Y-92316848D01*
X77162548Y-92316851D01*
X77168011Y-92411590D01*
X77175110Y-92534715D01*
X77176247Y-92539761D01*
X77176248Y-92539767D01*
X77198215Y-92637237D01*
X77224222Y-92752639D01*
X77271467Y-92868990D01*
X77301718Y-92943489D01*
X77308266Y-92959616D01*
X77351416Y-93030031D01*
X77403108Y-93114384D01*
X77424987Y-93150088D01*
X77571250Y-93318938D01*
X77743126Y-93461632D01*
X77813595Y-93502811D01*
X77816445Y-93504476D01*
X77865169Y-93556114D01*
X77878240Y-93625897D01*
X77851509Y-93691669D01*
X77811055Y-93725027D01*
X77798607Y-93731507D01*
X77794474Y-93734610D01*
X77794471Y-93734612D01*
X77626968Y-93860377D01*
X77619965Y-93865635D01*
X77616393Y-93869373D01*
X77506554Y-93984313D01*
X77465629Y-94027138D01*
X77462715Y-94031410D01*
X77462714Y-94031411D01*
X77458822Y-94037117D01*
X77339743Y-94211680D01*
X77306873Y-94282493D01*
X77273635Y-94354099D01*
X77245688Y-94414305D01*
X77185989Y-94629570D01*
X77162251Y-94851695D01*
X74737159Y-94851695D01*
X74761529Y-94666590D01*
X74762555Y-94624588D01*
X74763074Y-94603365D01*
X74763074Y-94603361D01*
X74763156Y-94600000D01*
X74744852Y-94377361D01*
X74690431Y-94160702D01*
X74601354Y-93955840D01*
X74480014Y-93768277D01*
X74329670Y-93603051D01*
X74325619Y-93599852D01*
X74325615Y-93599848D01*
X74158414Y-93467800D01*
X74158410Y-93467798D01*
X74154359Y-93464598D01*
X74113053Y-93441796D01*
X74063084Y-93391364D01*
X74048312Y-93321921D01*
X74073428Y-93255516D01*
X74100780Y-93228909D01*
X74155794Y-93189668D01*
X74279860Y-93101173D01*
X74306056Y-93075069D01*
X74382591Y-92998800D01*
X74438096Y-92943489D01*
X74497594Y-92860689D01*
X74565435Y-92766277D01*
X74568453Y-92762077D01*
X74571541Y-92755830D01*
X74665136Y-92566453D01*
X74665137Y-92566451D01*
X74667430Y-92561811D01*
X74712063Y-92414908D01*
X74730865Y-92353023D01*
X74730865Y-92353021D01*
X74732370Y-92348069D01*
X74761529Y-92126590D01*
X74762150Y-92101171D01*
X74763074Y-92063365D01*
X74763074Y-92063361D01*
X74763156Y-92060000D01*
X74744852Y-91837361D01*
X74690431Y-91620702D01*
X74601354Y-91415840D01*
X74497967Y-91256028D01*
X74482822Y-91232617D01*
X74482820Y-91232614D01*
X74480014Y-91228277D01*
X74329670Y-91063051D01*
X74325619Y-91059852D01*
X74325615Y-91059848D01*
X74158414Y-90927800D01*
X74158410Y-90927798D01*
X74154359Y-90924598D01*
X73958789Y-90816638D01*
X73953920Y-90814914D01*
X73953916Y-90814912D01*
X73753087Y-90743795D01*
X73753083Y-90743794D01*
X73748212Y-90742069D01*
X73743119Y-90741162D01*
X73743116Y-90741161D01*
X73533373Y-90703800D01*
X73533367Y-90703799D01*
X73528284Y-90702894D01*
X73454452Y-90701992D01*
X73310081Y-90700228D01*
X73310079Y-90700228D01*
X73304911Y-90700165D01*
X73084091Y-90733955D01*
X72871756Y-90803357D01*
X72841443Y-90819137D01*
X72697685Y-90893973D01*
X72673607Y-90906507D01*
X72669474Y-90909610D01*
X72669471Y-90909612D01*
X72513418Y-91026780D01*
X72494965Y-91040635D01*
X72491393Y-91044373D01*
X72398911Y-91141150D01*
X72340629Y-91202138D01*
X72214743Y-91386680D01*
X72199003Y-91420590D01*
X72128677Y-91572095D01*
X72120688Y-91589305D01*
X72060989Y-91804570D01*
X72037251Y-92026695D01*
X72037548Y-92031848D01*
X72037548Y-92031851D01*
X72045942Y-92177434D01*
X72050110Y-92249715D01*
X72051247Y-92254761D01*
X72051248Y-92254767D01*
X72063236Y-92307958D01*
X72099222Y-92467639D01*
X72151438Y-92596233D01*
X72177159Y-92659575D01*
X72183266Y-92674616D01*
X72208693Y-92716109D01*
X72280115Y-92832659D01*
X72299987Y-92865088D01*
X72446250Y-93033938D01*
X72618126Y-93176632D01*
X72659921Y-93201055D01*
X72691445Y-93219476D01*
X72740169Y-93271114D01*
X72753240Y-93340897D01*
X72726509Y-93406669D01*
X72686055Y-93440027D01*
X72673607Y-93446507D01*
X72669474Y-93449610D01*
X72669471Y-93449612D01*
X72501342Y-93575847D01*
X72494965Y-93580635D01*
X72340629Y-93742138D01*
X72337715Y-93746410D01*
X72337714Y-93746411D01*
X72286853Y-93820971D01*
X72214743Y-93926680D01*
X72199599Y-93959305D01*
X72129448Y-94110434D01*
X72120688Y-94129305D01*
X72060989Y-94344570D01*
X72037251Y-94566695D01*
X68735742Y-94566695D01*
X68761372Y-94459938D01*
X68787917Y-94349370D01*
X68787918Y-94349364D01*
X68789072Y-94344557D01*
X68808319Y-94100000D01*
X68789072Y-93855443D01*
X68780372Y-93819202D01*
X68740853Y-93654597D01*
X68731805Y-93616908D01*
X68729438Y-93611192D01*
X68668568Y-93464242D01*
X68637927Y-93390268D01*
X68538789Y-93228489D01*
X68512342Y-93185330D01*
X68512340Y-93185327D01*
X68509752Y-93181104D01*
X68486595Y-93153990D01*
X68353641Y-92998323D01*
X68350433Y-92994567D01*
X68309511Y-92959616D01*
X68167663Y-92838465D01*
X68167660Y-92838463D01*
X68163896Y-92835248D01*
X68159671Y-92832659D01*
X68159670Y-92832658D01*
X68043458Y-92761444D01*
X67954732Y-92707073D01*
X67779266Y-92634392D01*
X67732665Y-92615089D01*
X67732663Y-92615088D01*
X67728092Y-92613195D01*
X67637534Y-92591454D01*
X67494370Y-92557083D01*
X67494364Y-92557082D01*
X67489557Y-92555928D01*
X67245000Y-92536681D01*
X67000443Y-92555928D01*
X66995636Y-92557082D01*
X66995630Y-92557083D01*
X66852466Y-92591454D01*
X66761908Y-92613195D01*
X66757337Y-92615088D01*
X66757335Y-92615089D01*
X66710734Y-92634392D01*
X66535268Y-92707073D01*
X66446542Y-92761444D01*
X66330330Y-92832658D01*
X66330329Y-92832659D01*
X66326104Y-92835248D01*
X66322340Y-92838463D01*
X66322337Y-92838465D01*
X66180489Y-92959616D01*
X66139567Y-92994567D01*
X66136359Y-92998323D01*
X66070811Y-93075069D01*
X66011360Y-93113878D01*
X65940365Y-93114384D01*
X65879189Y-93075069D01*
X65813641Y-92998323D01*
X65810433Y-92994567D01*
X65769511Y-92959616D01*
X65627663Y-92838465D01*
X65627660Y-92838463D01*
X65623896Y-92835248D01*
X65619671Y-92832659D01*
X65619670Y-92832658D01*
X65503458Y-92761444D01*
X65414732Y-92707073D01*
X65239266Y-92634392D01*
X65192665Y-92615089D01*
X65192663Y-92615088D01*
X65188092Y-92613195D01*
X65097534Y-92591454D01*
X64954370Y-92557083D01*
X64954364Y-92557082D01*
X64949557Y-92555928D01*
X64705000Y-92536681D01*
X64460443Y-92555928D01*
X64455636Y-92557082D01*
X64455630Y-92557083D01*
X64312466Y-92591454D01*
X64221908Y-92613195D01*
X64217337Y-92615088D01*
X64217335Y-92615089D01*
X64170734Y-92634392D01*
X63995268Y-92707073D01*
X63906542Y-92761444D01*
X63790330Y-92832658D01*
X63790329Y-92832659D01*
X63786104Y-92835248D01*
X63782340Y-92838463D01*
X63782337Y-92838465D01*
X63640489Y-92959616D01*
X63599567Y-92994567D01*
X63596359Y-92998323D01*
X63530811Y-93075069D01*
X63471360Y-93113878D01*
X63400365Y-93114384D01*
X63339189Y-93075069D01*
X63273641Y-92998323D01*
X63270433Y-92994567D01*
X63239854Y-92968450D01*
X63087655Y-92838458D01*
X63087651Y-92838455D01*
X63083896Y-92835248D01*
X63079683Y-92832666D01*
X63079673Y-92832659D01*
X63019752Y-92795939D01*
X62972120Y-92743291D01*
X62960514Y-92673250D01*
X62988618Y-92608052D01*
X62996492Y-92599412D01*
X65405988Y-90189917D01*
X65468300Y-90155891D01*
X65494015Y-90153017D01*
X77631885Y-90050154D01*
X77631887Y-90050154D01*
X77650000Y-90050000D01*
X77650000Y-88791154D01*
X77670002Y-88723033D01*
X77723658Y-88676540D01*
X77793932Y-88666436D01*
X77815665Y-88671560D01*
X77970139Y-88722797D01*
X77976975Y-88723497D01*
X77976978Y-88723498D01*
X78020031Y-88727909D01*
X78074600Y-88733500D01*
X78875400Y-88733500D01*
X78878646Y-88733163D01*
X78878650Y-88733163D01*
X78974308Y-88723238D01*
X78974312Y-88723237D01*
X78981166Y-88722526D01*
X78987702Y-88720345D01*
X78987704Y-88720345D01*
X79141998Y-88668868D01*
X79148946Y-88666550D01*
X79264535Y-88595021D01*
X79332987Y-88576183D01*
X79400756Y-88597344D01*
X79446328Y-88651785D01*
X79455232Y-88722221D01*
X79424641Y-88786289D01*
X79417637Y-88793308D01*
X79413747Y-88796134D01*
X79409326Y-88801044D01*
X79409325Y-88801045D01*
X79299913Y-88922560D01*
X79285960Y-88938056D01*
X79190473Y-89103444D01*
X79131458Y-89285072D01*
X79130768Y-89291633D01*
X79130768Y-89291635D01*
X79118130Y-89411880D01*
X79111496Y-89475000D01*
X79112186Y-89481565D01*
X79127427Y-89626571D01*
X79131458Y-89664928D01*
X79190473Y-89846556D01*
X79285960Y-90011944D01*
X79290378Y-90016851D01*
X79290379Y-90016852D01*
X79398398Y-90136819D01*
X79413747Y-90153866D01*
X79494864Y-90212801D01*
X79532142Y-90239885D01*
X79568248Y-90266118D01*
X79574276Y-90268802D01*
X79574278Y-90268803D01*
X79727459Y-90337003D01*
X79742712Y-90343794D01*
X79813545Y-90358850D01*
X79923056Y-90382128D01*
X79923061Y-90382128D01*
X79929513Y-90383500D01*
X79930873Y-90383500D01*
X79994731Y-90409772D01*
X80035362Y-90467993D01*
X80041215Y-90494899D01*
X80054972Y-90625785D01*
X80056458Y-90639928D01*
X80115473Y-90821556D01*
X80118776Y-90827278D01*
X80118777Y-90827279D01*
X80141438Y-90866528D01*
X80210960Y-90986944D01*
X80215378Y-90991851D01*
X80215379Y-90991852D01*
X80310388Y-91097370D01*
X80338747Y-91128866D01*
X80493248Y-91241118D01*
X80499276Y-91243802D01*
X80499278Y-91243803D01*
X80654824Y-91313056D01*
X80667712Y-91318794D01*
X80761113Y-91338647D01*
X80848056Y-91357128D01*
X80848061Y-91357128D01*
X80854513Y-91358500D01*
X81028001Y-91358500D01*
X81096122Y-91378502D01*
X81142615Y-91432158D01*
X81154001Y-91484499D01*
X81154001Y-91539884D01*
X81154539Y-91543969D01*
X81154539Y-91543973D01*
X81166443Y-91634401D01*
X81169662Y-91658850D01*
X81176853Y-91676210D01*
X81227605Y-91798737D01*
X81230976Y-91806876D01*
X81236002Y-91813426D01*
X81323485Y-91927434D01*
X81328513Y-91933987D01*
X81335063Y-91939013D01*
X81335066Y-91939016D01*
X81392069Y-91982755D01*
X81455625Y-92031524D01*
X81603650Y-92092838D01*
X81611838Y-92093916D01*
X81666946Y-92101171D01*
X81731873Y-92129893D01*
X81770965Y-92189158D01*
X81776500Y-92226093D01*
X81776500Y-95071692D01*
X81756498Y-95139813D01*
X81708683Y-95183453D01*
X81683607Y-95196507D01*
X81679474Y-95199610D01*
X81679471Y-95199612D01*
X81509100Y-95327530D01*
X81504965Y-95330635D01*
X81475436Y-95361535D01*
X81411280Y-95428671D01*
X81350629Y-95492138D01*
X81347720Y-95496403D01*
X81347714Y-95496411D01*
X81287344Y-95584911D01*
X81224743Y-95676680D01*
X81206198Y-95716632D01*
X81141956Y-95855031D01*
X81130688Y-95879305D01*
X81070989Y-96094570D01*
X81047251Y-96316695D01*
X81047548Y-96321848D01*
X81047548Y-96321851D01*
X81055357Y-96457285D01*
X81060110Y-96539715D01*
X81061247Y-96544761D01*
X81061248Y-96544767D01*
X81071182Y-96588844D01*
X81109222Y-96757639D01*
X81193266Y-96964616D01*
X81235482Y-97033507D01*
X81307291Y-97150688D01*
X81309987Y-97155088D01*
X81456250Y-97323938D01*
X81628126Y-97466632D01*
X81821000Y-97579338D01*
X82029692Y-97659030D01*
X82034760Y-97660061D01*
X82034763Y-97660062D01*
X82133278Y-97680105D01*
X82248597Y-97703567D01*
X82253772Y-97703757D01*
X82253774Y-97703757D01*
X82466673Y-97711564D01*
X82466677Y-97711564D01*
X82471837Y-97711753D01*
X82476957Y-97711097D01*
X82476959Y-97711097D01*
X82688288Y-97684025D01*
X82688289Y-97684025D01*
X82693416Y-97683368D01*
X82763709Y-97662279D01*
X82902429Y-97620661D01*
X82902434Y-97620659D01*
X82907384Y-97619174D01*
X83107994Y-97520896D01*
X83289860Y-97391173D01*
X83448096Y-97233489D01*
X83507594Y-97150689D01*
X83578453Y-97052077D01*
X83579776Y-97053028D01*
X83626645Y-97009857D01*
X83696580Y-96997625D01*
X83762026Y-97025144D01*
X83789875Y-97056994D01*
X83849987Y-97155088D01*
X83996250Y-97323938D01*
X84168126Y-97466632D01*
X84361000Y-97579338D01*
X84569692Y-97659030D01*
X84574760Y-97660061D01*
X84574763Y-97660062D01*
X84673278Y-97680105D01*
X84788597Y-97703567D01*
X84793772Y-97703757D01*
X84793774Y-97703757D01*
X85006673Y-97711564D01*
X85006677Y-97711564D01*
X85011837Y-97711753D01*
X85016957Y-97711097D01*
X85016959Y-97711097D01*
X85228288Y-97684025D01*
X85228289Y-97684025D01*
X85233416Y-97683368D01*
X85303709Y-97662279D01*
X85442429Y-97620661D01*
X85442434Y-97620659D01*
X85447384Y-97619174D01*
X85647994Y-97520896D01*
X85829860Y-97391173D01*
X85938091Y-97283319D01*
X86000462Y-97249404D01*
X86071268Y-97254592D01*
X86128030Y-97297238D01*
X86145012Y-97328341D01*
X86155468Y-97356231D01*
X86189385Y-97446705D01*
X86276739Y-97563261D01*
X86393295Y-97650615D01*
X86529684Y-97701745D01*
X86591866Y-97708500D01*
X88388134Y-97708500D01*
X88450316Y-97701745D01*
X88586705Y-97650615D01*
X88703261Y-97563261D01*
X88790615Y-97446705D01*
X88841745Y-97310316D01*
X88848500Y-97248134D01*
X88848500Y-95451866D01*
X88841745Y-95389684D01*
X88790615Y-95253295D01*
X88703261Y-95136739D01*
X88586705Y-95049385D01*
X88450316Y-94998255D01*
X88388134Y-94991500D01*
X88249500Y-94991500D01*
X88181379Y-94971498D01*
X88134886Y-94917842D01*
X88123500Y-94865500D01*
X88123500Y-94468763D01*
X88124027Y-94457579D01*
X88125701Y-94450091D01*
X88123562Y-94382032D01*
X88123500Y-94378075D01*
X88123500Y-94350144D01*
X88122994Y-94346138D01*
X88122061Y-94334292D01*
X88120922Y-94298037D01*
X88120673Y-94290110D01*
X88115022Y-94270658D01*
X88111014Y-94251306D01*
X88109468Y-94239068D01*
X88109467Y-94239066D01*
X88108474Y-94231203D01*
X88092194Y-94190086D01*
X88088359Y-94178885D01*
X88076018Y-94136406D01*
X88071985Y-94129587D01*
X88071983Y-94129582D01*
X88065707Y-94118971D01*
X88057010Y-94101221D01*
X88049552Y-94082383D01*
X88023571Y-94046623D01*
X88017053Y-94036701D01*
X87998578Y-94005460D01*
X87998574Y-94005455D01*
X87994542Y-93998637D01*
X87980218Y-93984313D01*
X87967376Y-93969278D01*
X87961064Y-93960590D01*
X87955472Y-93952893D01*
X87921406Y-93924711D01*
X87912627Y-93916722D01*
X84353652Y-90357747D01*
X84346112Y-90349461D01*
X84342000Y-90342982D01*
X84325157Y-90327165D01*
X84292349Y-90296357D01*
X84289507Y-90293602D01*
X84269770Y-90273865D01*
X84266573Y-90271385D01*
X84257551Y-90263680D01*
X84225321Y-90233414D01*
X84218375Y-90229595D01*
X84218372Y-90229593D01*
X84207566Y-90223652D01*
X84191047Y-90212801D01*
X84190583Y-90212441D01*
X84175041Y-90200386D01*
X84167772Y-90197241D01*
X84167768Y-90197238D01*
X84134463Y-90182826D01*
X84123813Y-90177609D01*
X84085060Y-90156305D01*
X84065437Y-90151267D01*
X84046734Y-90144863D01*
X84035420Y-90139967D01*
X84035419Y-90139967D01*
X84028145Y-90136819D01*
X84020322Y-90135580D01*
X84020312Y-90135577D01*
X83984476Y-90129901D01*
X83972856Y-90127495D01*
X83937711Y-90118472D01*
X83937710Y-90118472D01*
X83930030Y-90116500D01*
X83909776Y-90116500D01*
X83890065Y-90114949D01*
X83877886Y-90113020D01*
X83870057Y-90111780D01*
X83862165Y-90112526D01*
X83826039Y-90115941D01*
X83814181Y-90116500D01*
X83771999Y-90116500D01*
X83703878Y-90096498D01*
X83657385Y-90042842D01*
X83645999Y-89990500D01*
X83645999Y-89960116D01*
X83640339Y-89917115D01*
X83631416Y-89849337D01*
X83631416Y-89849335D01*
X83630338Y-89841150D01*
X83622911Y-89823219D01*
X83615321Y-89752630D01*
X83622911Y-89726780D01*
X83627178Y-89716480D01*
X83627179Y-89716477D01*
X83630338Y-89708850D01*
X83631595Y-89699305D01*
X83645462Y-89593972D01*
X83645462Y-89593971D01*
X83646000Y-89589885D01*
X83645999Y-89310116D01*
X83641905Y-89279011D01*
X83631416Y-89199337D01*
X83631416Y-89199335D01*
X83630338Y-89191150D01*
X83622640Y-89172565D01*
X83615050Y-89101977D01*
X83622640Y-89076126D01*
X83626689Y-89066351D01*
X83630928Y-89050531D01*
X83635216Y-89017960D01*
X83633005Y-89003778D01*
X83619848Y-89000000D01*
X83598069Y-89000000D01*
X83529948Y-88979998D01*
X83498107Y-88950705D01*
X83471487Y-88916013D01*
X83450568Y-88899961D01*
X83408702Y-88842622D01*
X83404482Y-88771751D01*
X83439247Y-88709848D01*
X83450570Y-88700038D01*
X83464933Y-88689017D01*
X83464937Y-88689013D01*
X83471487Y-88683987D01*
X83498108Y-88649295D01*
X83555446Y-88607428D01*
X83598069Y-88600000D01*
X83619465Y-88600000D01*
X83633236Y-88595956D01*
X83635265Y-88582417D01*
X83630928Y-88549467D01*
X83626690Y-88533652D01*
X83622640Y-88523874D01*
X83615050Y-88453285D01*
X83622640Y-88427434D01*
X83627178Y-88416479D01*
X83630338Y-88408850D01*
X83646000Y-88289885D01*
X83645999Y-88010116D01*
X83644749Y-88000615D01*
X83631416Y-87899337D01*
X83631416Y-87899335D01*
X83630338Y-87891150D01*
X83622911Y-87873219D01*
X83615321Y-87802630D01*
X83622911Y-87776780D01*
X83627178Y-87766480D01*
X83627179Y-87766477D01*
X83630338Y-87758850D01*
X83646000Y-87639885D01*
X83645999Y-87360116D01*
X83638320Y-87301779D01*
X83636769Y-87290000D01*
X85306496Y-87290000D01*
X85307186Y-87296565D01*
X85324174Y-87458193D01*
X85326458Y-87479928D01*
X85385473Y-87661556D01*
X85480960Y-87826944D01*
X85485378Y-87831851D01*
X85485379Y-87831852D01*
X85556028Y-87910316D01*
X85608747Y-87968866D01*
X85763248Y-88081118D01*
X85769276Y-88083802D01*
X85769278Y-88083803D01*
X85916399Y-88149305D01*
X85937712Y-88158794D01*
X86030157Y-88178444D01*
X86118056Y-88197128D01*
X86118061Y-88197128D01*
X86124513Y-88198500D01*
X86180406Y-88198500D01*
X86248527Y-88218502D01*
X86269501Y-88235405D01*
X86576343Y-88542247D01*
X86583887Y-88550537D01*
X86588000Y-88557018D01*
X86593777Y-88562443D01*
X86637667Y-88603658D01*
X86640509Y-88606413D01*
X86660231Y-88626135D01*
X86663355Y-88628558D01*
X86663359Y-88628562D01*
X86663424Y-88628612D01*
X86672445Y-88636317D01*
X86704679Y-88666586D01*
X86711627Y-88670405D01*
X86711629Y-88670407D01*
X86722432Y-88676346D01*
X86738959Y-88687202D01*
X86748698Y-88694757D01*
X86748700Y-88694758D01*
X86754960Y-88699614D01*
X86795540Y-88717174D01*
X86806183Y-88722388D01*
X86813703Y-88726522D01*
X86863760Y-88776868D01*
X86879000Y-88836935D01*
X86879001Y-88898780D01*
X86879001Y-88939884D01*
X86879539Y-88943969D01*
X86879539Y-88943973D01*
X86892516Y-89042548D01*
X86894662Y-89058850D01*
X86897822Y-89066478D01*
X86902089Y-89076780D01*
X86909679Y-89147370D01*
X86902089Y-89173220D01*
X86897822Y-89183520D01*
X86897821Y-89183523D01*
X86894662Y-89191150D01*
X86879000Y-89310115D01*
X86879001Y-89589884D01*
X86879539Y-89593969D01*
X86879539Y-89593973D01*
X86893405Y-89699305D01*
X86894662Y-89708850D01*
X86902089Y-89726780D01*
X86909679Y-89797370D01*
X86902090Y-89823218D01*
X86900663Y-89826661D01*
X86897822Y-89833520D01*
X86897821Y-89833523D01*
X86894662Y-89841150D01*
X86879000Y-89960115D01*
X86879001Y-90239884D01*
X86879539Y-90243969D01*
X86879539Y-90243973D01*
X86893361Y-90348968D01*
X86894662Y-90358850D01*
X86897822Y-90366478D01*
X86902089Y-90376780D01*
X86909679Y-90447370D01*
X86902090Y-90473218D01*
X86894662Y-90491150D01*
X86879000Y-90610115D01*
X86879001Y-90889884D01*
X86879539Y-90893969D01*
X86879539Y-90893973D01*
X86892424Y-90991852D01*
X86894662Y-91008850D01*
X86902089Y-91026780D01*
X86909679Y-91097370D01*
X86902090Y-91123218D01*
X86900663Y-91126661D01*
X86898142Y-91132749D01*
X86894662Y-91141150D01*
X86893584Y-91149338D01*
X86881148Y-91243803D01*
X86879000Y-91260115D01*
X86879001Y-91539884D01*
X86879539Y-91543969D01*
X86879539Y-91543973D01*
X86891443Y-91634401D01*
X86894662Y-91658850D01*
X86901853Y-91676210D01*
X86952605Y-91798737D01*
X86955976Y-91806876D01*
X86961002Y-91813426D01*
X87048485Y-91927434D01*
X87053513Y-91933987D01*
X87060063Y-91939013D01*
X87060066Y-91939016D01*
X87117069Y-91982755D01*
X87180625Y-92031524D01*
X87328650Y-92092838D01*
X87336838Y-92093916D01*
X87443521Y-92107961D01*
X87447615Y-92108500D01*
X88124917Y-92108500D01*
X88802384Y-92108499D01*
X88806469Y-92107961D01*
X88806473Y-92107961D01*
X88913163Y-92093916D01*
X88913165Y-92093916D01*
X88921350Y-92092838D01*
X89041450Y-92043091D01*
X89089668Y-92033500D01*
X90001006Y-92033500D01*
X90069127Y-92053502D01*
X90090101Y-92070405D01*
X90491217Y-92471521D01*
X90525243Y-92533833D01*
X90523539Y-92594288D01*
X90486877Y-92726485D01*
X90486328Y-92731619D01*
X90486328Y-92731621D01*
X90483569Y-92757438D01*
X90461570Y-92963294D01*
X90461867Y-92968446D01*
X90461867Y-92968450D01*
X90467902Y-93073113D01*
X90475279Y-93201055D01*
X90476416Y-93206101D01*
X90476417Y-93206107D01*
X90500965Y-93315031D01*
X90527637Y-93433385D01*
X90529579Y-93438167D01*
X90529580Y-93438171D01*
X90615198Y-93649023D01*
X90617237Y-93654044D01*
X90741674Y-93857106D01*
X90897604Y-94037117D01*
X90996198Y-94118971D01*
X91075215Y-94184572D01*
X91080842Y-94189244D01*
X91085294Y-94191846D01*
X91085299Y-94191849D01*
X91218471Y-94269668D01*
X91267194Y-94321307D01*
X91280900Y-94378456D01*
X91280900Y-98121647D01*
X91260898Y-98189768D01*
X91213083Y-98233408D01*
X91139990Y-98271458D01*
X91135857Y-98274561D01*
X91135854Y-98274563D01*
X90953675Y-98411347D01*
X90949540Y-98414452D01*
X90785002Y-98586631D01*
X90782088Y-98590903D01*
X90782087Y-98590904D01*
X90707760Y-98699863D01*
X90650794Y-98783372D01*
X90550522Y-98999391D01*
X90486877Y-99228885D01*
X90486328Y-99234019D01*
X90486328Y-99234021D01*
X90480849Y-99285289D01*
X90461570Y-99465694D01*
X90461867Y-99470846D01*
X90461867Y-99470850D01*
X90467902Y-99575513D01*
X90475279Y-99703455D01*
X90476416Y-99708501D01*
X90476417Y-99708507D01*
X90509511Y-99855356D01*
X90527637Y-99935785D01*
X90529579Y-99940567D01*
X90529580Y-99940571D01*
X90599142Y-100111881D01*
X90617237Y-100156444D01*
X90741674Y-100359506D01*
X90897604Y-100539517D01*
X91080842Y-100691644D01*
X91085294Y-100694246D01*
X91085299Y-100694249D01*
X91183733Y-100751769D01*
X91286465Y-100811801D01*
X91508952Y-100896760D01*
X91514018Y-100897791D01*
X91514019Y-100897791D01*
X91568356Y-100908846D01*
X91742328Y-100944241D01*
X91876521Y-100949162D01*
X91975160Y-100952779D01*
X91975164Y-100952779D01*
X91980324Y-100952968D01*
X91985444Y-100952312D01*
X91985446Y-100952312D01*
X92211423Y-100923364D01*
X92211424Y-100923364D01*
X92216551Y-100922707D01*
X92299600Y-100897791D01*
X92439716Y-100855754D01*
X92439717Y-100855753D01*
X92444662Y-100854270D01*
X92658533Y-100749495D01*
X92662736Y-100746497D01*
X92662741Y-100746494D01*
X92848216Y-100614196D01*
X92848218Y-100614194D01*
X92852420Y-100611197D01*
X93021116Y-100443089D01*
X93160090Y-100249686D01*
X93206174Y-100156444D01*
X93263317Y-100040824D01*
X93263318Y-100040822D01*
X93265611Y-100036182D01*
X93334843Y-99808311D01*
X93349328Y-99698286D01*
X93365492Y-99575513D01*
X93365492Y-99575509D01*
X93365929Y-99572192D01*
X93367664Y-99501200D01*
X93364745Y-99465694D01*
X94982770Y-99465694D01*
X94983067Y-99470846D01*
X94983067Y-99470850D01*
X94989102Y-99575513D01*
X94996479Y-99703455D01*
X94997616Y-99708501D01*
X94997617Y-99708507D01*
X95030711Y-99855356D01*
X95048837Y-99935785D01*
X95050779Y-99940567D01*
X95050780Y-99940571D01*
X95120342Y-100111881D01*
X95138437Y-100156444D01*
X95262874Y-100359506D01*
X95418804Y-100539517D01*
X95602042Y-100691644D01*
X95606494Y-100694246D01*
X95606499Y-100694249D01*
X95704933Y-100751769D01*
X95807665Y-100811801D01*
X96030152Y-100896760D01*
X96035218Y-100897791D01*
X96035219Y-100897791D01*
X96089556Y-100908846D01*
X96263528Y-100944241D01*
X96397721Y-100949162D01*
X96496360Y-100952779D01*
X96496364Y-100952779D01*
X96501524Y-100952968D01*
X96506644Y-100952312D01*
X96506646Y-100952312D01*
X96732623Y-100923364D01*
X96732624Y-100923364D01*
X96737751Y-100922707D01*
X96820800Y-100897791D01*
X96960916Y-100855754D01*
X96960917Y-100855753D01*
X96965862Y-100854270D01*
X97179733Y-100749495D01*
X97183936Y-100746497D01*
X97183941Y-100746494D01*
X97369416Y-100614196D01*
X97369418Y-100614194D01*
X97373620Y-100611197D01*
X97542316Y-100443089D01*
X97681290Y-100249686D01*
X97727374Y-100156444D01*
X97784517Y-100040824D01*
X97784518Y-100040822D01*
X97786811Y-100036182D01*
X97856043Y-99808311D01*
X97870528Y-99698286D01*
X97886692Y-99575513D01*
X97886692Y-99575509D01*
X97887129Y-99572192D01*
X97888864Y-99501200D01*
X97869350Y-99263844D01*
X97811331Y-99032863D01*
X97716367Y-98814459D01*
X97699294Y-98788067D01*
X97589816Y-98618842D01*
X97587006Y-98614498D01*
X97426724Y-98438350D01*
X97422673Y-98435151D01*
X97422669Y-98435147D01*
X97243878Y-98293947D01*
X97243873Y-98293944D01*
X97239824Y-98290746D01*
X97235308Y-98288253D01*
X97235305Y-98288251D01*
X97035850Y-98178146D01*
X97035846Y-98178144D01*
X97031326Y-98175649D01*
X97026457Y-98173925D01*
X97026453Y-98173923D01*
X96811705Y-98097876D01*
X96811701Y-98097875D01*
X96806830Y-98096150D01*
X96801740Y-98095243D01*
X96801735Y-98095242D01*
X96674414Y-98072564D01*
X96572364Y-98054386D01*
X96483237Y-98053297D01*
X96339395Y-98051539D01*
X96339393Y-98051539D01*
X96334225Y-98051476D01*
X96098809Y-98087500D01*
X95872438Y-98161489D01*
X95789458Y-98204686D01*
X95714146Y-98243891D01*
X95661190Y-98271458D01*
X95657057Y-98274561D01*
X95657054Y-98274563D01*
X95474875Y-98411347D01*
X95470740Y-98414452D01*
X95306202Y-98586631D01*
X95303288Y-98590903D01*
X95303287Y-98590904D01*
X95228960Y-98699863D01*
X95171994Y-98783372D01*
X95071722Y-98999391D01*
X95008077Y-99228885D01*
X95007528Y-99234019D01*
X95007528Y-99234021D01*
X95002049Y-99285289D01*
X94982770Y-99465694D01*
X93364745Y-99465694D01*
X93348150Y-99263844D01*
X93290131Y-99032863D01*
X93195167Y-98814459D01*
X93178094Y-98788067D01*
X93068616Y-98618842D01*
X93065806Y-98614498D01*
X92905524Y-98438350D01*
X92901473Y-98435151D01*
X92901469Y-98435147D01*
X92763936Y-98326531D01*
X92718624Y-98290746D01*
X92613005Y-98232441D01*
X92563036Y-98182010D01*
X92547900Y-98122134D01*
X92547900Y-96790694D01*
X97986570Y-96790694D01*
X97986867Y-96795846D01*
X97986867Y-96795850D01*
X97992902Y-96900513D01*
X98000279Y-97028455D01*
X98001416Y-97033501D01*
X98001417Y-97033507D01*
X98027825Y-97150688D01*
X98052637Y-97260785D01*
X98054579Y-97265567D01*
X98054580Y-97265571D01*
X98104102Y-97387529D01*
X98142237Y-97481444D01*
X98266674Y-97684506D01*
X98422604Y-97864517D01*
X98605842Y-98016644D01*
X98610294Y-98019246D01*
X98610299Y-98019249D01*
X98807007Y-98134196D01*
X98811465Y-98136801D01*
X99033952Y-98221760D01*
X99039018Y-98222791D01*
X99039019Y-98222791D01*
X99066082Y-98228297D01*
X99267328Y-98269241D01*
X99401521Y-98274162D01*
X99500160Y-98277779D01*
X99500164Y-98277779D01*
X99505324Y-98277968D01*
X99510444Y-98277312D01*
X99510446Y-98277312D01*
X99736423Y-98248364D01*
X99736424Y-98248364D01*
X99741551Y-98247707D01*
X99746501Y-98246222D01*
X99964716Y-98180754D01*
X99964717Y-98180753D01*
X99969662Y-98179270D01*
X100183533Y-98074495D01*
X100187736Y-98071497D01*
X100187741Y-98071494D01*
X100373216Y-97939196D01*
X100373218Y-97939194D01*
X100377420Y-97936197D01*
X100546116Y-97768089D01*
X100685090Y-97574686D01*
X100710550Y-97523173D01*
X100788317Y-97365824D01*
X100788318Y-97365822D01*
X100790611Y-97361182D01*
X100859843Y-97133311D01*
X100862233Y-97115156D01*
X100890492Y-96900513D01*
X100890492Y-96900509D01*
X100890929Y-96897192D01*
X100892038Y-96851811D01*
X100892582Y-96829565D01*
X100892582Y-96829561D01*
X100892664Y-96826200D01*
X100889745Y-96790694D01*
X102507770Y-96790694D01*
X102508067Y-96795846D01*
X102508067Y-96795850D01*
X102514102Y-96900513D01*
X102521479Y-97028455D01*
X102522616Y-97033501D01*
X102522617Y-97033507D01*
X102549025Y-97150688D01*
X102573837Y-97260785D01*
X102575779Y-97265567D01*
X102575780Y-97265571D01*
X102625302Y-97387529D01*
X102663437Y-97481444D01*
X102787874Y-97684506D01*
X102943804Y-97864517D01*
X103127042Y-98016644D01*
X103131494Y-98019246D01*
X103131499Y-98019249D01*
X103328207Y-98134196D01*
X103332665Y-98136801D01*
X103555152Y-98221760D01*
X103560218Y-98222791D01*
X103560219Y-98222791D01*
X103587282Y-98228297D01*
X103788528Y-98269241D01*
X103922721Y-98274162D01*
X104021360Y-98277779D01*
X104021364Y-98277779D01*
X104026524Y-98277968D01*
X104031644Y-98277312D01*
X104031646Y-98277312D01*
X104257623Y-98248364D01*
X104257624Y-98248364D01*
X104262751Y-98247707D01*
X104267701Y-98246222D01*
X104485916Y-98180754D01*
X104485917Y-98180753D01*
X104490862Y-98179270D01*
X104704733Y-98074495D01*
X104708936Y-98071497D01*
X104708941Y-98071494D01*
X104894416Y-97939196D01*
X104894418Y-97939194D01*
X104898620Y-97936197D01*
X105067316Y-97768089D01*
X105206290Y-97574686D01*
X105231750Y-97523173D01*
X105309517Y-97365824D01*
X105309518Y-97365822D01*
X105311811Y-97361182D01*
X105381043Y-97133311D01*
X105383433Y-97115156D01*
X105411692Y-96900513D01*
X105411692Y-96900509D01*
X105412129Y-96897192D01*
X105413238Y-96851811D01*
X105413782Y-96829565D01*
X105413782Y-96829561D01*
X105413864Y-96826200D01*
X105394350Y-96588844D01*
X105336331Y-96357863D01*
X105241367Y-96139459D01*
X105237490Y-96133465D01*
X105139309Y-95981702D01*
X105112006Y-95939498D01*
X104951724Y-95763350D01*
X104947673Y-95760151D01*
X104947669Y-95760147D01*
X104768878Y-95618947D01*
X104768873Y-95618944D01*
X104764824Y-95615746D01*
X104760308Y-95613253D01*
X104760305Y-95613251D01*
X104560850Y-95503146D01*
X104560846Y-95503144D01*
X104556326Y-95500649D01*
X104551457Y-95498925D01*
X104551453Y-95498923D01*
X104336705Y-95422876D01*
X104336701Y-95422875D01*
X104331830Y-95421150D01*
X104326740Y-95420243D01*
X104326735Y-95420242D01*
X104168741Y-95392100D01*
X104097364Y-95379386D01*
X104008237Y-95378297D01*
X103864395Y-95376539D01*
X103864393Y-95376539D01*
X103859225Y-95376476D01*
X103623809Y-95412500D01*
X103397438Y-95486489D01*
X103314458Y-95529686D01*
X103196143Y-95591277D01*
X103186190Y-95596458D01*
X103182057Y-95599561D01*
X103182054Y-95599563D01*
X103026133Y-95716632D01*
X102995740Y-95739452D01*
X102992168Y-95743190D01*
X102868380Y-95872727D01*
X102831202Y-95911631D01*
X102828288Y-95915903D01*
X102828287Y-95915904D01*
X102785991Y-95977908D01*
X102696994Y-96108372D01*
X102684578Y-96135121D01*
X102635029Y-96241866D01*
X102596722Y-96324391D01*
X102533077Y-96553885D01*
X102532528Y-96559019D01*
X102532528Y-96559021D01*
X102527049Y-96610289D01*
X102507770Y-96790694D01*
X100889745Y-96790694D01*
X100873150Y-96588844D01*
X100815131Y-96357863D01*
X100720167Y-96139459D01*
X100716290Y-96133465D01*
X100618109Y-95981702D01*
X100590806Y-95939498D01*
X100430524Y-95763350D01*
X100426473Y-95760151D01*
X100426469Y-95760147D01*
X100247682Y-95618951D01*
X100243624Y-95615746D01*
X100138005Y-95557441D01*
X100088036Y-95507010D01*
X100072900Y-95447134D01*
X100072900Y-91704874D01*
X100092902Y-91636753D01*
X100143466Y-91591724D01*
X100183533Y-91572095D01*
X100187736Y-91569097D01*
X100187741Y-91569094D01*
X100373216Y-91436796D01*
X100373218Y-91436794D01*
X100377420Y-91433797D01*
X100546116Y-91265689D01*
X100685090Y-91072286D01*
X100689655Y-91063051D01*
X100788317Y-90863424D01*
X100788318Y-90863422D01*
X100790611Y-90858782D01*
X100855196Y-90646206D01*
X100858341Y-90635855D01*
X100858341Y-90635854D01*
X100859843Y-90630911D01*
X100876661Y-90503167D01*
X100890492Y-90398113D01*
X100890492Y-90398109D01*
X100890929Y-90394792D01*
X100891129Y-90386623D01*
X100892582Y-90327165D01*
X100892582Y-90327161D01*
X100892664Y-90323800D01*
X100889745Y-90288294D01*
X102507770Y-90288294D01*
X102508067Y-90293446D01*
X102508067Y-90293450D01*
X102518131Y-90467993D01*
X102521479Y-90526055D01*
X102522616Y-90531101D01*
X102522617Y-90531107D01*
X102547141Y-90639928D01*
X102573837Y-90758385D01*
X102575779Y-90763167D01*
X102575780Y-90763171D01*
X102661493Y-90974257D01*
X102663437Y-90979044D01*
X102787874Y-91182106D01*
X102943804Y-91362117D01*
X103127042Y-91514244D01*
X103131494Y-91516846D01*
X103131499Y-91516849D01*
X103321218Y-91627712D01*
X103332665Y-91634401D01*
X103555152Y-91719360D01*
X103560218Y-91720391D01*
X103560219Y-91720391D01*
X103614556Y-91731446D01*
X103788528Y-91766841D01*
X103922721Y-91771762D01*
X104021360Y-91775379D01*
X104021364Y-91775379D01*
X104026524Y-91775568D01*
X104031644Y-91774912D01*
X104031646Y-91774912D01*
X104257623Y-91745964D01*
X104257624Y-91745964D01*
X104262751Y-91745307D01*
X104345800Y-91720391D01*
X104485916Y-91678354D01*
X104485917Y-91678353D01*
X104490862Y-91676870D01*
X104704733Y-91572095D01*
X104708936Y-91569097D01*
X104708941Y-91569094D01*
X104894416Y-91436796D01*
X104894418Y-91436794D01*
X104898620Y-91433797D01*
X105067316Y-91265689D01*
X105206290Y-91072286D01*
X105210855Y-91063051D01*
X105309517Y-90863424D01*
X105309518Y-90863422D01*
X105311811Y-90858782D01*
X105376396Y-90646206D01*
X105379541Y-90635855D01*
X105379541Y-90635854D01*
X105381043Y-90630911D01*
X105397861Y-90503167D01*
X105411692Y-90398113D01*
X105411692Y-90398109D01*
X105412129Y-90394792D01*
X105412329Y-90386623D01*
X105413782Y-90327165D01*
X105413782Y-90327161D01*
X105413864Y-90323800D01*
X105394350Y-90086444D01*
X105336331Y-89855463D01*
X105268073Y-89698478D01*
X105243427Y-89641796D01*
X105243425Y-89641793D01*
X105241367Y-89637059D01*
X105224294Y-89610667D01*
X105132279Y-89468435D01*
X105112006Y-89437098D01*
X105089060Y-89411880D01*
X105031737Y-89348883D01*
X104951724Y-89260950D01*
X104947673Y-89257751D01*
X104947669Y-89257747D01*
X104768878Y-89116547D01*
X104768873Y-89116544D01*
X104764824Y-89113346D01*
X104760308Y-89110853D01*
X104760305Y-89110851D01*
X104560850Y-89000746D01*
X104560846Y-89000744D01*
X104556326Y-88998249D01*
X104551457Y-88996525D01*
X104551453Y-88996523D01*
X104336705Y-88920476D01*
X104336701Y-88920475D01*
X104331830Y-88918750D01*
X104326740Y-88917843D01*
X104326735Y-88917842D01*
X104199414Y-88895164D01*
X104097364Y-88876986D01*
X104008237Y-88875897D01*
X103864395Y-88874139D01*
X103864393Y-88874139D01*
X103859225Y-88874076D01*
X103623809Y-88910100D01*
X103397438Y-88984089D01*
X103392846Y-88986479D01*
X103392847Y-88986479D01*
X103219381Y-89076780D01*
X103186190Y-89094058D01*
X103182057Y-89097161D01*
X103182054Y-89097163D01*
X102999875Y-89233947D01*
X102995740Y-89237052D01*
X102992168Y-89240790D01*
X102859269Y-89379861D01*
X102831202Y-89409231D01*
X102828288Y-89413503D01*
X102828287Y-89413504D01*
X102824013Y-89419770D01*
X102696994Y-89605972D01*
X102656023Y-89694238D01*
X102603270Y-89807885D01*
X102596722Y-89821991D01*
X102533077Y-90051485D01*
X102532528Y-90056619D01*
X102532528Y-90056621D01*
X102528758Y-90091903D01*
X102507770Y-90288294D01*
X100889745Y-90288294D01*
X100873150Y-90086444D01*
X100815131Y-89855463D01*
X100746873Y-89698478D01*
X100722227Y-89641796D01*
X100722225Y-89641793D01*
X100720167Y-89637059D01*
X100703094Y-89610667D01*
X100611079Y-89468435D01*
X100590806Y-89437098D01*
X100567860Y-89411880D01*
X100510537Y-89348883D01*
X100430524Y-89260950D01*
X100426473Y-89257751D01*
X100426469Y-89257747D01*
X100247678Y-89116547D01*
X100247673Y-89116544D01*
X100243624Y-89113346D01*
X100239108Y-89110853D01*
X100239105Y-89110851D01*
X100039650Y-89000746D01*
X100039646Y-89000744D01*
X100035126Y-88998249D01*
X100030257Y-88996525D01*
X100030253Y-88996523D01*
X99815505Y-88920476D01*
X99815501Y-88920475D01*
X99810630Y-88918750D01*
X99805540Y-88917843D01*
X99805535Y-88917842D01*
X99678214Y-88895164D01*
X99576164Y-88876986D01*
X99487037Y-88875897D01*
X99343195Y-88874139D01*
X99343193Y-88874139D01*
X99338025Y-88874076D01*
X99102609Y-88910100D01*
X98876238Y-88984089D01*
X98871646Y-88986479D01*
X98871647Y-88986479D01*
X98698181Y-89076780D01*
X98664990Y-89094058D01*
X98660857Y-89097161D01*
X98660854Y-89097163D01*
X98478675Y-89233947D01*
X98474540Y-89237052D01*
X98470968Y-89240790D01*
X98338069Y-89379861D01*
X98310002Y-89409231D01*
X98307088Y-89413503D01*
X98307087Y-89413504D01*
X98302813Y-89419770D01*
X98175794Y-89605972D01*
X98134823Y-89694238D01*
X98082070Y-89807885D01*
X98075522Y-89821991D01*
X98011877Y-90051485D01*
X98011328Y-90056619D01*
X98011328Y-90056621D01*
X98007558Y-90091903D01*
X97986570Y-90288294D01*
X97986867Y-90293446D01*
X97986867Y-90293450D01*
X97996931Y-90467993D01*
X98000279Y-90526055D01*
X98001416Y-90531101D01*
X98001417Y-90531107D01*
X98025941Y-90639928D01*
X98052637Y-90758385D01*
X98054579Y-90763167D01*
X98054580Y-90763171D01*
X98140293Y-90974257D01*
X98142237Y-90979044D01*
X98266674Y-91182106D01*
X98422604Y-91362117D01*
X98605842Y-91514244D01*
X98610294Y-91516846D01*
X98610299Y-91516849D01*
X98698578Y-91568435D01*
X98737001Y-91590887D01*
X98743471Y-91594668D01*
X98792194Y-91646307D01*
X98805900Y-91703456D01*
X98805900Y-95446647D01*
X98785898Y-95514768D01*
X98738083Y-95558408D01*
X98664990Y-95596458D01*
X98660857Y-95599561D01*
X98660854Y-95599563D01*
X98504933Y-95716632D01*
X98474540Y-95739452D01*
X98470968Y-95743190D01*
X98347180Y-95872727D01*
X98310002Y-95911631D01*
X98307088Y-95915903D01*
X98307087Y-95915904D01*
X98264791Y-95977908D01*
X98175794Y-96108372D01*
X98163378Y-96135121D01*
X98113829Y-96241866D01*
X98075522Y-96324391D01*
X98011877Y-96553885D01*
X98011328Y-96559019D01*
X98011328Y-96559021D01*
X98005849Y-96610289D01*
X97986570Y-96790694D01*
X92547900Y-96790694D01*
X92547900Y-94379874D01*
X92567902Y-94311753D01*
X92618466Y-94266724D01*
X92658533Y-94247095D01*
X92662736Y-94244097D01*
X92662741Y-94244094D01*
X92739555Y-94189303D01*
X95609926Y-94189303D01*
X95615207Y-94196358D01*
X95803421Y-94306341D01*
X95812708Y-94310791D01*
X96025461Y-94392033D01*
X96035363Y-94394910D01*
X96258511Y-94440310D01*
X96268763Y-94441533D01*
X96496338Y-94449877D01*
X96506624Y-94449410D01*
X96732515Y-94420473D01*
X96742601Y-94418330D01*
X96960728Y-94352888D01*
X96970323Y-94349128D01*
X97174837Y-94248937D01*
X97183683Y-94243663D01*
X97249231Y-94196908D01*
X97257632Y-94186208D01*
X97250645Y-94173056D01*
X96448411Y-93370821D01*
X96434468Y-93363208D01*
X96432634Y-93363339D01*
X96426020Y-93367590D01*
X95616683Y-94176928D01*
X95609926Y-94189303D01*
X92739555Y-94189303D01*
X92848216Y-94111796D01*
X92848218Y-94111794D01*
X92852420Y-94108797D01*
X93021116Y-93940689D01*
X93031183Y-93926680D01*
X93085830Y-93850630D01*
X93160090Y-93747286D01*
X93162635Y-93742138D01*
X93263317Y-93538424D01*
X93263318Y-93538422D01*
X93265611Y-93533782D01*
X93334843Y-93305911D01*
X93345036Y-93228489D01*
X93365492Y-93073113D01*
X93365492Y-93073109D01*
X93365929Y-93069792D01*
X93366012Y-93066415D01*
X93367582Y-93002165D01*
X93367582Y-93002161D01*
X93367664Y-92998800D01*
X93365170Y-92968462D01*
X94983569Y-92968462D01*
X94996678Y-93195817D01*
X94998114Y-93206037D01*
X95048180Y-93428193D01*
X95051259Y-93438021D01*
X95136938Y-93649023D01*
X95141591Y-93658234D01*
X95236753Y-93813523D01*
X95247211Y-93822985D01*
X95255987Y-93819202D01*
X96063579Y-93011611D01*
X96069956Y-92999932D01*
X96800008Y-92999932D01*
X96800139Y-93001766D01*
X96804390Y-93008380D01*
X97610426Y-93814415D01*
X97622432Y-93820971D01*
X97634171Y-93812002D01*
X97677841Y-93751229D01*
X97683151Y-93742392D01*
X97784050Y-93538238D01*
X97787849Y-93528643D01*
X97854049Y-93310757D01*
X97856228Y-93300676D01*
X97886191Y-93073088D01*
X97886710Y-93066415D01*
X97888280Y-93002165D01*
X97888086Y-92995446D01*
X97869279Y-92766687D01*
X97867594Y-92756507D01*
X97812115Y-92535637D01*
X97808795Y-92525886D01*
X97717984Y-92317033D01*
X97713118Y-92307958D01*
X97633608Y-92185056D01*
X97622922Y-92175852D01*
X97613355Y-92180256D01*
X96807621Y-92985989D01*
X96800008Y-92999932D01*
X96069956Y-92999932D01*
X96071192Y-92997668D01*
X96071061Y-92995834D01*
X96066810Y-92989220D01*
X95260820Y-92183231D01*
X95249288Y-92176934D01*
X95237006Y-92186557D01*
X95175347Y-92276946D01*
X95170254Y-92285910D01*
X95074368Y-92492479D01*
X95070811Y-92502147D01*
X95009952Y-92721597D01*
X95008021Y-92731716D01*
X94983821Y-92958173D01*
X94983569Y-92968462D01*
X93365170Y-92968462D01*
X93358670Y-92889401D01*
X93373023Y-92819870D01*
X93422689Y-92769137D01*
X93458049Y-92755830D01*
X93517039Y-92743291D01*
X93632288Y-92718794D01*
X93666143Y-92703721D01*
X93800722Y-92643803D01*
X93800724Y-92643802D01*
X93806752Y-92641118D01*
X93817831Y-92633069D01*
X93919831Y-92558961D01*
X93961253Y-92528866D01*
X94000622Y-92485142D01*
X94084621Y-92391852D01*
X94084622Y-92391851D01*
X94089040Y-92386944D01*
X94184527Y-92221556D01*
X94243542Y-92039928D01*
X94245473Y-92021562D01*
X94262814Y-91856565D01*
X94263504Y-91850000D01*
X94259414Y-91811085D01*
X95612681Y-91811085D01*
X95619425Y-91823414D01*
X96422789Y-92626779D01*
X96436732Y-92634392D01*
X96438566Y-92634261D01*
X96445180Y-92630010D01*
X97252931Y-91822258D01*
X97259948Y-91809407D01*
X97252174Y-91798737D01*
X97243604Y-91791969D01*
X97235017Y-91786264D01*
X97035655Y-91676210D01*
X97026243Y-91671980D01*
X96811571Y-91595960D01*
X96801614Y-91593330D01*
X96577405Y-91553391D01*
X96567154Y-91552422D01*
X96339430Y-91549640D01*
X96329146Y-91550360D01*
X96104037Y-91584806D01*
X96094010Y-91587195D01*
X95877551Y-91657944D01*
X95868042Y-91661941D01*
X95666051Y-91767092D01*
X95657316Y-91772593D01*
X95621135Y-91799758D01*
X95612681Y-91811085D01*
X94259414Y-91811085D01*
X94258170Y-91799248D01*
X94244232Y-91666635D01*
X94244232Y-91666633D01*
X94243542Y-91660072D01*
X94184527Y-91478444D01*
X94160482Y-91436796D01*
X94107395Y-91344848D01*
X94089040Y-91313056D01*
X94026685Y-91243803D01*
X93965675Y-91176045D01*
X93965674Y-91176044D01*
X93961253Y-91171134D01*
X93845109Y-91086750D01*
X93812094Y-91062763D01*
X93812093Y-91062762D01*
X93806752Y-91058882D01*
X93800726Y-91056199D01*
X93800719Y-91056195D01*
X93633252Y-90981635D01*
X93579156Y-90935655D01*
X93558500Y-90866528D01*
X93558500Y-90449600D01*
X93556760Y-90432826D01*
X93548238Y-90350692D01*
X93548237Y-90350688D01*
X93547526Y-90343834D01*
X93531687Y-90296357D01*
X93493868Y-90183002D01*
X93491550Y-90176054D01*
X93398478Y-90025652D01*
X93273303Y-89900695D01*
X93269084Y-89898094D01*
X93228583Y-89840970D01*
X93225351Y-89770047D01*
X93260976Y-89708635D01*
X93268530Y-89702078D01*
X93274348Y-89698478D01*
X93287263Y-89685540D01*
X93349544Y-89651460D01*
X93420364Y-89656462D01*
X93474183Y-89695568D01*
X93476522Y-89699348D01*
X93601697Y-89824305D01*
X93607927Y-89828145D01*
X93607928Y-89828146D01*
X93745288Y-89912816D01*
X93752262Y-89917115D01*
X93786418Y-89928444D01*
X93913611Y-89970632D01*
X93913613Y-89970632D01*
X93920139Y-89972797D01*
X93926975Y-89973497D01*
X93926978Y-89973498D01*
X93970031Y-89977909D01*
X94024600Y-89983500D01*
X94775400Y-89983500D01*
X94778646Y-89983163D01*
X94778650Y-89983163D01*
X94874308Y-89973238D01*
X94874312Y-89973237D01*
X94881166Y-89972526D01*
X94887702Y-89970345D01*
X94887704Y-89970345D01*
X95019806Y-89926272D01*
X95048946Y-89916550D01*
X95199348Y-89823478D01*
X95324305Y-89698303D01*
X95327102Y-89693765D01*
X95384353Y-89653176D01*
X95455276Y-89649946D01*
X95516687Y-89685572D01*
X95524062Y-89694068D01*
X95532098Y-89704207D01*
X95646829Y-89818739D01*
X95658240Y-89827751D01*
X95796243Y-89912816D01*
X95809424Y-89918963D01*
X95963710Y-89970138D01*
X95977086Y-89973005D01*
X96071438Y-89982672D01*
X96077854Y-89983000D01*
X96177885Y-89983000D01*
X96193124Y-89978525D01*
X96194329Y-89977135D01*
X96196000Y-89969452D01*
X96196000Y-89964884D01*
X96704000Y-89964884D01*
X96708475Y-89980123D01*
X96709865Y-89981328D01*
X96717548Y-89982999D01*
X96822095Y-89982999D01*
X96828614Y-89982662D01*
X96924206Y-89972743D01*
X96937600Y-89969851D01*
X97091784Y-89918412D01*
X97104962Y-89912239D01*
X97242807Y-89826937D01*
X97254208Y-89817901D01*
X97368739Y-89703171D01*
X97377751Y-89691760D01*
X97462816Y-89553757D01*
X97468963Y-89540576D01*
X97520138Y-89386290D01*
X97523005Y-89372914D01*
X97532672Y-89278562D01*
X97533000Y-89272146D01*
X97533000Y-89047115D01*
X97528525Y-89031876D01*
X97527135Y-89030671D01*
X97519452Y-89029000D01*
X96722115Y-89029000D01*
X96706876Y-89033475D01*
X96705671Y-89034865D01*
X96704000Y-89042548D01*
X96704000Y-89964884D01*
X96196000Y-89964884D01*
X96196000Y-88502885D01*
X96704000Y-88502885D01*
X96708475Y-88518124D01*
X96709865Y-88519329D01*
X96717548Y-88521000D01*
X97514884Y-88521000D01*
X97530123Y-88516525D01*
X97531328Y-88515135D01*
X97532999Y-88507452D01*
X97532999Y-88277905D01*
X97532662Y-88271386D01*
X97522743Y-88175794D01*
X97519851Y-88162400D01*
X97468412Y-88008216D01*
X97462239Y-87995038D01*
X97376937Y-87857193D01*
X97367901Y-87845792D01*
X97253171Y-87731261D01*
X97241760Y-87722249D01*
X97103757Y-87637184D01*
X97090576Y-87631037D01*
X96936290Y-87579862D01*
X96922914Y-87576995D01*
X96828562Y-87567328D01*
X96822145Y-87567000D01*
X96722115Y-87567000D01*
X96706876Y-87571475D01*
X96705671Y-87572865D01*
X96704000Y-87580548D01*
X96704000Y-88502885D01*
X96196000Y-88502885D01*
X96196000Y-87585116D01*
X96191525Y-87569877D01*
X96190135Y-87568672D01*
X96182452Y-87567001D01*
X96077905Y-87567001D01*
X96071386Y-87567338D01*
X95975794Y-87577257D01*
X95962400Y-87580149D01*
X95808216Y-87631588D01*
X95795038Y-87637761D01*
X95657193Y-87723063D01*
X95645792Y-87732099D01*
X95531262Y-87846828D01*
X95524206Y-87855762D01*
X95466288Y-87896823D01*
X95395365Y-87900053D01*
X95333954Y-87864426D01*
X95327154Y-87856593D01*
X95323478Y-87850652D01*
X95303658Y-87830866D01*
X95203483Y-87730866D01*
X95198303Y-87725695D01*
X95175659Y-87711737D01*
X95053968Y-87636725D01*
X95053966Y-87636724D01*
X95047738Y-87632885D01*
X94967995Y-87606436D01*
X94886389Y-87579368D01*
X94886387Y-87579368D01*
X94879861Y-87577203D01*
X94873025Y-87576503D01*
X94873022Y-87576502D01*
X94829969Y-87572091D01*
X94775400Y-87566500D01*
X94024600Y-87566500D01*
X94021354Y-87566837D01*
X94021350Y-87566837D01*
X93925692Y-87576762D01*
X93925688Y-87576763D01*
X93918834Y-87577474D01*
X93912298Y-87579655D01*
X93912296Y-87579655D01*
X93780194Y-87623728D01*
X93751054Y-87633450D01*
X93600652Y-87726522D01*
X93595479Y-87731704D01*
X93476694Y-87850696D01*
X93414411Y-87884775D01*
X93343591Y-87879772D01*
X93298503Y-87850851D01*
X93278484Y-87830866D01*
X93278479Y-87830862D01*
X93273303Y-87825695D01*
X93267072Y-87821854D01*
X93128968Y-87736725D01*
X93128966Y-87736724D01*
X93122738Y-87732885D01*
X92962254Y-87679655D01*
X92961389Y-87679368D01*
X92961387Y-87679368D01*
X92954861Y-87677203D01*
X92948025Y-87676503D01*
X92948022Y-87676502D01*
X92904969Y-87672091D01*
X92850400Y-87666500D01*
X91799600Y-87666500D01*
X91796354Y-87666837D01*
X91796350Y-87666837D01*
X91700692Y-87676762D01*
X91700688Y-87676763D01*
X91693834Y-87677474D01*
X91687298Y-87679655D01*
X91687296Y-87679655D01*
X91579503Y-87715618D01*
X91526054Y-87733450D01*
X91375652Y-87826522D01*
X91250695Y-87951697D01*
X91157885Y-88102262D01*
X91156205Y-88101226D01*
X91115879Y-88147031D01*
X91048595Y-88166500D01*
X89496999Y-88166500D01*
X89428878Y-88146498D01*
X89382385Y-88092842D01*
X89370999Y-88040500D01*
X89370999Y-88010116D01*
X89369749Y-88000615D01*
X89356416Y-87899337D01*
X89356416Y-87899335D01*
X89355338Y-87891150D01*
X89347911Y-87873219D01*
X89340321Y-87802630D01*
X89347911Y-87776780D01*
X89352178Y-87766480D01*
X89352179Y-87766477D01*
X89355338Y-87758850D01*
X89367296Y-87668017D01*
X89396018Y-87603091D01*
X89455283Y-87563999D01*
X89526275Y-87563154D01*
X89578197Y-87595399D01*
X89579420Y-87594040D01*
X89584332Y-87598463D01*
X89588747Y-87603366D01*
X89610329Y-87619046D01*
X89690375Y-87677203D01*
X89743248Y-87715618D01*
X89749276Y-87718302D01*
X89749278Y-87718303D01*
X89895714Y-87783500D01*
X89917712Y-87793294D01*
X90011113Y-87813147D01*
X90098056Y-87831628D01*
X90098061Y-87831628D01*
X90104513Y-87833000D01*
X90295487Y-87833000D01*
X90301939Y-87831628D01*
X90301944Y-87831628D01*
X90388887Y-87813147D01*
X90482288Y-87793294D01*
X90504286Y-87783500D01*
X90650722Y-87718303D01*
X90650724Y-87718302D01*
X90656752Y-87715618D01*
X90709626Y-87677203D01*
X90712157Y-87675364D01*
X90811253Y-87603366D01*
X90827685Y-87585116D01*
X90934621Y-87466352D01*
X90934622Y-87466351D01*
X90939040Y-87461444D01*
X91034527Y-87296056D01*
X91093542Y-87114428D01*
X91094863Y-87101866D01*
X91103854Y-87016315D01*
X91130867Y-86950658D01*
X91189089Y-86910028D01*
X91260034Y-86907325D01*
X91280409Y-86914376D01*
X91357712Y-86948794D01*
X91451113Y-86968647D01*
X91538056Y-86987128D01*
X91538061Y-86987128D01*
X91544513Y-86988500D01*
X91735487Y-86988500D01*
X91741939Y-86987128D01*
X91741944Y-86987128D01*
X91828887Y-86968647D01*
X91922288Y-86948794D01*
X91928319Y-86946109D01*
X92090722Y-86873803D01*
X92090724Y-86873802D01*
X92096752Y-86871118D01*
X92130639Y-86846498D01*
X92193098Y-86801118D01*
X92251253Y-86758866D01*
X92298676Y-86706197D01*
X92374621Y-86621852D01*
X92374622Y-86621851D01*
X92379040Y-86616944D01*
X92447203Y-86498882D01*
X92471223Y-86457279D01*
X92471224Y-86457278D01*
X92474527Y-86451556D01*
X92533542Y-86269928D01*
X92535441Y-86251866D01*
X92552814Y-86086565D01*
X92553504Y-86080000D01*
X92546537Y-86013715D01*
X92546147Y-86010000D01*
X97146496Y-86010000D01*
X97147186Y-86016565D01*
X97165225Y-86188193D01*
X97166458Y-86199928D01*
X97225473Y-86381556D01*
X97320960Y-86546944D01*
X97325378Y-86551851D01*
X97325379Y-86551852D01*
X97435068Y-86673674D01*
X97448747Y-86688866D01*
X97483670Y-86714239D01*
X97588221Y-86790200D01*
X97603248Y-86801118D01*
X97609276Y-86803802D01*
X97609278Y-86803803D01*
X97736077Y-86860257D01*
X97777712Y-86878794D01*
X97856665Y-86895576D01*
X97958056Y-86917128D01*
X97958061Y-86917128D01*
X97964513Y-86918500D01*
X98155487Y-86918500D01*
X98161939Y-86917128D01*
X98161944Y-86917128D01*
X98263335Y-86895576D01*
X98342288Y-86878794D01*
X98383923Y-86860257D01*
X98510722Y-86803803D01*
X98510724Y-86803802D01*
X98516752Y-86801118D01*
X98531780Y-86790200D01*
X98664470Y-86693794D01*
X98671253Y-86688866D01*
X98675667Y-86683964D01*
X98679112Y-86680862D01*
X98743120Y-86650146D01*
X98763420Y-86648500D01*
X98905086Y-86648500D01*
X98973207Y-86668502D01*
X98980645Y-86673670D01*
X99058895Y-86732315D01*
X99195284Y-86783445D01*
X99257466Y-86790200D01*
X100814234Y-86790200D01*
X100876416Y-86783445D01*
X101012805Y-86732315D01*
X101129361Y-86644961D01*
X101216715Y-86528405D01*
X101267845Y-86392016D01*
X101274600Y-86329834D01*
X101274600Y-86007575D01*
X103171404Y-86007575D01*
X103173609Y-86031807D01*
X103188910Y-86199928D01*
X103190218Y-86214303D01*
X103191956Y-86220209D01*
X103191957Y-86220213D01*
X103228656Y-86344906D01*
X103248827Y-86413440D01*
X103344999Y-86597400D01*
X103348859Y-86602200D01*
X103348859Y-86602201D01*
X103377466Y-86637781D01*
X103475071Y-86759177D01*
X103479788Y-86763135D01*
X103479790Y-86763137D01*
X103503992Y-86783445D01*
X103634089Y-86892609D01*
X103639481Y-86895573D01*
X103639485Y-86895576D01*
X103810598Y-86989646D01*
X103815995Y-86992613D01*
X104013861Y-87055379D01*
X104019978Y-87056065D01*
X104019982Y-87056066D01*
X104096598Y-87064659D01*
X104175413Y-87073500D01*
X105536387Y-87073500D01*
X105539443Y-87073200D01*
X105539450Y-87073200D01*
X105684616Y-87058966D01*
X105684619Y-87058965D01*
X105690742Y-87058365D01*
X105849891Y-87010316D01*
X105883557Y-87000152D01*
X105883560Y-87000151D01*
X105889465Y-86998368D01*
X105897733Y-86993972D01*
X106067303Y-86903809D01*
X106067305Y-86903808D01*
X106072749Y-86900913D01*
X106077530Y-86897013D01*
X106077534Y-86897011D01*
X106173729Y-86818557D01*
X106239160Y-86791003D01*
X106253364Y-86790200D01*
X106262534Y-86790200D01*
X106324716Y-86783445D01*
X106461105Y-86732315D01*
X106577661Y-86644961D01*
X106665015Y-86528405D01*
X106716145Y-86392016D01*
X106722900Y-86329834D01*
X106722900Y-85700166D01*
X106716145Y-85637984D01*
X106695708Y-85583468D01*
X106690525Y-85512662D01*
X106724446Y-85450293D01*
X106786701Y-85416163D01*
X106857525Y-85421110D01*
X106864939Y-85424132D01*
X106963801Y-85468148D01*
X106987712Y-85478794D01*
X107061170Y-85494408D01*
X107168056Y-85517128D01*
X107168061Y-85517128D01*
X107174513Y-85518500D01*
X107365487Y-85518500D01*
X107371939Y-85517128D01*
X107371944Y-85517128D01*
X107478830Y-85494408D01*
X107552288Y-85478794D01*
X107565890Y-85472738D01*
X107720722Y-85403803D01*
X107720724Y-85403802D01*
X107726752Y-85401118D01*
X107881253Y-85288866D01*
X107902428Y-85265349D01*
X108004621Y-85151852D01*
X108004622Y-85151851D01*
X108009040Y-85146944D01*
X108104527Y-84981556D01*
X108163542Y-84799928D01*
X108183504Y-84610000D01*
X108170821Y-84489329D01*
X108164232Y-84426635D01*
X108164232Y-84426633D01*
X108163542Y-84420072D01*
X108104527Y-84238444D01*
X108090323Y-84213841D01*
X108030703Y-84110577D01*
X108009040Y-84073056D01*
X107925250Y-83979997D01*
X107885675Y-83936045D01*
X107885674Y-83936044D01*
X107881253Y-83931134D01*
X107761544Y-83844160D01*
X107732094Y-83822763D01*
X107732093Y-83822762D01*
X107726752Y-83818882D01*
X107720724Y-83816198D01*
X107720722Y-83816197D01*
X107558319Y-83743891D01*
X107558318Y-83743891D01*
X107552288Y-83741206D01*
X107458888Y-83721353D01*
X107371944Y-83702872D01*
X107371939Y-83702872D01*
X107365487Y-83701500D01*
X107309595Y-83701500D01*
X107241474Y-83681498D01*
X107220500Y-83664595D01*
X106939500Y-83383595D01*
X106905474Y-83321283D01*
X106910539Y-83250468D01*
X106953086Y-83193632D01*
X107019606Y-83168821D01*
X107028595Y-83168500D01*
X107695487Y-83168500D01*
X107735864Y-83159918D01*
X107748872Y-83157857D01*
X107769310Y-83155709D01*
X107783365Y-83154232D01*
X107783367Y-83154232D01*
X107789928Y-83153542D01*
X107796202Y-83151503D01*
X107796209Y-83151502D01*
X107829183Y-83140788D01*
X107841920Y-83137375D01*
X107875831Y-83130167D01*
X107875835Y-83130166D01*
X107882288Y-83128794D01*
X107920006Y-83112001D01*
X107932304Y-83107281D01*
X107965272Y-83096569D01*
X107965273Y-83096568D01*
X107971556Y-83094527D01*
X108007292Y-83073895D01*
X108019041Y-83067908D01*
X108050724Y-83053802D01*
X108050725Y-83053801D01*
X108056752Y-83051118D01*
X108062091Y-83047239D01*
X108062096Y-83047236D01*
X108090149Y-83026854D01*
X108101202Y-83019675D01*
X108136944Y-82999040D01*
X108141853Y-82994620D01*
X108141857Y-82994617D01*
X108167614Y-82971425D01*
X108177857Y-82963129D01*
X108211253Y-82938866D01*
X108227847Y-82920437D01*
X108238871Y-82908194D01*
X108248194Y-82898871D01*
X108273962Y-82875669D01*
X108273964Y-82875667D01*
X108278866Y-82871253D01*
X108303129Y-82837857D01*
X108311425Y-82827614D01*
X108334617Y-82801857D01*
X108334620Y-82801853D01*
X108339040Y-82796944D01*
X108359675Y-82761202D01*
X108366854Y-82750149D01*
X108387236Y-82722096D01*
X108387239Y-82722091D01*
X108391118Y-82716752D01*
X108407909Y-82679039D01*
X108413896Y-82667290D01*
X108431224Y-82637277D01*
X108434527Y-82631556D01*
X108447282Y-82592302D01*
X108452001Y-82580006D01*
X108468794Y-82542288D01*
X108474294Y-82516417D01*
X108477375Y-82501920D01*
X108480788Y-82489183D01*
X108491502Y-82456209D01*
X108491503Y-82456202D01*
X108493542Y-82449928D01*
X108497857Y-82408872D01*
X108499918Y-82395864D01*
X108508500Y-82355487D01*
X108508500Y-82314216D01*
X108509190Y-82301045D01*
X108512814Y-82266565D01*
X108513504Y-82260000D01*
X108509190Y-82218955D01*
X108508500Y-82205784D01*
X108508500Y-82164513D01*
X108499918Y-82124136D01*
X108497856Y-82111122D01*
X108494232Y-82076635D01*
X108494232Y-82076633D01*
X108493542Y-82070072D01*
X108491503Y-82063798D01*
X108491502Y-82063791D01*
X108480788Y-82030817D01*
X108477375Y-82018080D01*
X108470167Y-81984169D01*
X108470166Y-81984165D01*
X108468794Y-81977712D01*
X108452001Y-81939994D01*
X108447281Y-81927696D01*
X108436569Y-81894728D01*
X108436568Y-81894727D01*
X108434527Y-81888444D01*
X108413895Y-81852708D01*
X108407908Y-81840959D01*
X108393802Y-81809276D01*
X108393801Y-81809275D01*
X108391118Y-81803248D01*
X108387239Y-81797909D01*
X108387236Y-81797904D01*
X108366854Y-81769851D01*
X108359675Y-81758798D01*
X108339040Y-81723056D01*
X108334620Y-81718147D01*
X108334617Y-81718143D01*
X108311425Y-81692386D01*
X108303129Y-81682143D01*
X108278866Y-81648747D01*
X108248194Y-81621129D01*
X108238871Y-81611806D01*
X108215669Y-81586038D01*
X108215667Y-81586036D01*
X108211253Y-81581134D01*
X108177857Y-81556871D01*
X108167614Y-81548575D01*
X108141857Y-81525383D01*
X108141853Y-81525380D01*
X108136944Y-81520960D01*
X108101202Y-81500325D01*
X108090149Y-81493146D01*
X108062096Y-81472764D01*
X108062091Y-81472761D01*
X108056752Y-81468882D01*
X108019039Y-81452091D01*
X108007290Y-81446104D01*
X107995556Y-81439329D01*
X107971556Y-81425473D01*
X107932302Y-81412718D01*
X107920006Y-81407999D01*
X107882288Y-81391206D01*
X107875835Y-81389834D01*
X107875831Y-81389833D01*
X107841920Y-81382625D01*
X107829183Y-81379212D01*
X107796209Y-81368498D01*
X107796202Y-81368497D01*
X107789928Y-81366458D01*
X107783367Y-81365768D01*
X107783365Y-81365768D01*
X107769310Y-81364291D01*
X107748872Y-81362143D01*
X107735864Y-81360082D01*
X107695487Y-81351500D01*
X105825605Y-81351500D01*
X105792994Y-81347207D01*
X105633428Y-81304451D01*
X105633426Y-81304451D01*
X105627053Y-81302743D01*
X105620461Y-81302398D01*
X105620458Y-81302397D01*
X105442932Y-81293093D01*
X105442927Y-81293093D01*
X105436340Y-81292748D01*
X105429825Y-81293780D01*
X105429823Y-81293780D01*
X105254239Y-81321590D01*
X105254237Y-81321590D01*
X105247718Y-81322623D01*
X105069428Y-81391062D01*
X105063888Y-81394660D01*
X105041078Y-81409473D01*
X104972454Y-81429800D01*
X104705766Y-81429800D01*
X104643584Y-81436555D01*
X104507195Y-81487685D01*
X104390639Y-81575039D01*
X104303285Y-81691595D01*
X104252155Y-81827984D01*
X104245400Y-81890166D01*
X104245400Y-82519834D01*
X104252155Y-82582016D01*
X104303285Y-82718405D01*
X104337784Y-82764437D01*
X104362631Y-82830941D01*
X104347578Y-82900323D01*
X104337790Y-82915555D01*
X104303285Y-82961595D01*
X104252155Y-83097984D01*
X104245400Y-83160166D01*
X104245400Y-83789834D01*
X104252155Y-83852016D01*
X104303285Y-83988405D01*
X104337784Y-84034437D01*
X104362631Y-84100941D01*
X104347578Y-84170323D01*
X104337790Y-84185555D01*
X104303285Y-84231595D01*
X104252155Y-84367984D01*
X104245400Y-84430166D01*
X104245400Y-84836108D01*
X104225398Y-84904229D01*
X104171742Y-84950722D01*
X104131696Y-84961507D01*
X104034534Y-84971034D01*
X104034531Y-84971035D01*
X104028408Y-84971635D01*
X103922947Y-85003475D01*
X103835593Y-85029848D01*
X103835590Y-85029849D01*
X103829685Y-85031632D01*
X103824240Y-85034527D01*
X103824238Y-85034528D01*
X103651847Y-85126191D01*
X103651845Y-85126192D01*
X103646401Y-85129087D01*
X103594397Y-85171500D01*
X103490311Y-85256390D01*
X103490308Y-85256393D01*
X103485536Y-85260285D01*
X103481608Y-85265033D01*
X103481607Y-85265034D01*
X103442694Y-85312072D01*
X103353217Y-85420230D01*
X103350288Y-85425647D01*
X103350286Y-85425650D01*
X103257416Y-85597410D01*
X103257414Y-85597415D01*
X103254486Y-85602830D01*
X103193102Y-85801129D01*
X103192458Y-85807254D01*
X103192458Y-85807255D01*
X103181852Y-85908172D01*
X103171404Y-86007575D01*
X101274600Y-86007575D01*
X101274600Y-85700166D01*
X101267845Y-85637984D01*
X101216715Y-85501595D01*
X101197615Y-85476109D01*
X101181905Y-85455148D01*
X101157057Y-85388641D01*
X101172110Y-85319259D01*
X101181905Y-85304018D01*
X101210886Y-85265349D01*
X101219424Y-85249754D01*
X101264578Y-85129306D01*
X101268205Y-85114051D01*
X101273731Y-85063186D01*
X101274100Y-85056372D01*
X101274100Y-85017115D01*
X101269625Y-85001876D01*
X101268235Y-85000671D01*
X101260552Y-84999000D01*
X98815716Y-84999000D01*
X98800477Y-85003475D01*
X98799272Y-85004865D01*
X98797601Y-85012548D01*
X98797601Y-85056369D01*
X98797971Y-85063190D01*
X98803495Y-85114052D01*
X98807122Y-85129306D01*
X98814772Y-85149714D01*
X98819955Y-85220521D01*
X98786034Y-85282890D01*
X98723779Y-85317019D01*
X98652955Y-85312072D01*
X98622729Y-85295879D01*
X98522094Y-85222763D01*
X98522093Y-85222762D01*
X98516752Y-85218882D01*
X98510724Y-85216198D01*
X98510722Y-85216197D01*
X98348319Y-85143891D01*
X98348318Y-85143891D01*
X98342288Y-85141206D01*
X98248887Y-85121353D01*
X98161944Y-85102872D01*
X98161939Y-85102872D01*
X98155487Y-85101500D01*
X97964513Y-85101500D01*
X97958061Y-85102872D01*
X97958056Y-85102872D01*
X97871113Y-85121353D01*
X97777712Y-85141206D01*
X97771682Y-85143891D01*
X97771681Y-85143891D01*
X97609278Y-85216197D01*
X97609276Y-85216198D01*
X97603248Y-85218882D01*
X97597907Y-85222762D01*
X97597906Y-85222763D01*
X97551623Y-85256390D01*
X97448747Y-85331134D01*
X97444326Y-85336044D01*
X97444325Y-85336045D01*
X97350274Y-85440500D01*
X97320960Y-85473056D01*
X97225473Y-85638444D01*
X97166458Y-85820072D01*
X97165768Y-85826633D01*
X97165768Y-85826635D01*
X97158215Y-85898498D01*
X97146496Y-86010000D01*
X92546147Y-86010000D01*
X92534232Y-85896635D01*
X92534232Y-85896633D01*
X92533542Y-85890072D01*
X92474527Y-85708444D01*
X92467787Y-85696769D01*
X92429575Y-85630585D01*
X92379040Y-85543056D01*
X92355695Y-85517128D01*
X92255675Y-85406045D01*
X92255674Y-85406044D01*
X92251253Y-85401134D01*
X92117585Y-85304018D01*
X92102094Y-85292763D01*
X92102093Y-85292762D01*
X92096752Y-85288882D01*
X92090724Y-85286198D01*
X92090722Y-85286197D01*
X91928319Y-85213891D01*
X91928318Y-85213891D01*
X91922288Y-85211206D01*
X91828888Y-85191353D01*
X91741944Y-85172872D01*
X91741939Y-85172872D01*
X91735487Y-85171500D01*
X91544513Y-85171500D01*
X91538061Y-85172872D01*
X91538056Y-85172872D01*
X91451112Y-85191353D01*
X91357712Y-85211206D01*
X91351682Y-85213891D01*
X91351681Y-85213891D01*
X91189278Y-85286197D01*
X91189276Y-85286198D01*
X91183248Y-85288882D01*
X91177907Y-85292762D01*
X91177906Y-85292763D01*
X91162415Y-85304018D01*
X91028747Y-85401134D01*
X91024326Y-85406044D01*
X91024325Y-85406045D01*
X91006673Y-85425650D01*
X90923071Y-85518500D01*
X90917389Y-85524810D01*
X90856943Y-85562050D01*
X90823753Y-85566500D01*
X89496999Y-85566500D01*
X89428878Y-85546498D01*
X89382385Y-85492842D01*
X89370999Y-85440500D01*
X89370999Y-85410116D01*
X89369815Y-85401118D01*
X89356416Y-85299337D01*
X89356416Y-85299335D01*
X89355338Y-85291150D01*
X89305778Y-85171500D01*
X89297184Y-85150752D01*
X89297183Y-85150750D01*
X89294024Y-85143124D01*
X89232685Y-85063186D01*
X89201514Y-85022564D01*
X89201513Y-85022563D01*
X89196487Y-85016013D01*
X89189936Y-85010986D01*
X89189934Y-85010984D01*
X89125454Y-84961507D01*
X89069375Y-84918476D01*
X88921350Y-84857162D01*
X88866949Y-84850000D01*
X88806472Y-84842038D01*
X88806471Y-84842038D01*
X88802385Y-84841500D01*
X88125083Y-84841500D01*
X87447616Y-84841501D01*
X87443531Y-84842039D01*
X87443527Y-84842039D01*
X87336837Y-84856084D01*
X87336835Y-84856084D01*
X87328650Y-84857162D01*
X87275424Y-84879209D01*
X87188252Y-84915316D01*
X87188250Y-84915317D01*
X87180624Y-84918476D01*
X87174074Y-84923502D01*
X87069853Y-85003475D01*
X87053513Y-85016013D01*
X87048487Y-85022563D01*
X87048484Y-85022566D01*
X87004745Y-85079569D01*
X86955976Y-85143125D01*
X86894662Y-85291150D01*
X86893584Y-85299337D01*
X86893584Y-85299338D01*
X86882051Y-85386944D01*
X86879000Y-85410115D01*
X86879001Y-85689884D01*
X86879539Y-85693969D01*
X86879539Y-85693973D01*
X86886714Y-85748478D01*
X86894662Y-85808850D01*
X86902029Y-85826635D01*
X86902089Y-85826780D01*
X86909679Y-85897370D01*
X86902089Y-85923220D01*
X86897822Y-85933520D01*
X86897821Y-85933523D01*
X86894662Y-85941150D01*
X86879000Y-86060115D01*
X86879001Y-86339884D01*
X86885241Y-86387279D01*
X86885259Y-86387419D01*
X86874319Y-86457568D01*
X86827191Y-86510666D01*
X86758837Y-86529856D01*
X86686280Y-86505804D01*
X86682095Y-86502764D01*
X86676752Y-86498882D01*
X86670724Y-86496198D01*
X86670722Y-86496197D01*
X86508319Y-86423891D01*
X86508318Y-86423891D01*
X86502288Y-86421206D01*
X86399770Y-86399415D01*
X86321944Y-86382872D01*
X86321939Y-86382872D01*
X86315487Y-86381500D01*
X86124513Y-86381500D01*
X86118061Y-86382872D01*
X86118056Y-86382872D01*
X86040230Y-86399415D01*
X85937712Y-86421206D01*
X85931682Y-86423891D01*
X85931681Y-86423891D01*
X85769278Y-86496197D01*
X85769276Y-86496198D01*
X85763248Y-86498882D01*
X85757907Y-86502762D01*
X85757906Y-86502763D01*
X85747029Y-86510666D01*
X85608747Y-86611134D01*
X85604326Y-86616044D01*
X85604325Y-86616045D01*
X85533109Y-86695139D01*
X85480960Y-86753056D01*
X85443895Y-86817255D01*
X85391893Y-86907325D01*
X85385473Y-86918444D01*
X85326458Y-87100072D01*
X85325768Y-87106633D01*
X85325768Y-87106635D01*
X85307186Y-87283435D01*
X85306496Y-87290000D01*
X83636769Y-87290000D01*
X83631416Y-87249337D01*
X83631416Y-87249335D01*
X83630338Y-87241150D01*
X83622911Y-87223219D01*
X83615321Y-87152630D01*
X83622911Y-87126780D01*
X83627178Y-87116480D01*
X83627179Y-87116477D01*
X83630338Y-87108850D01*
X83636905Y-87058966D01*
X83645462Y-86993972D01*
X83645462Y-86993971D01*
X83646000Y-86989885D01*
X83645999Y-86710116D01*
X83644028Y-86695139D01*
X83631416Y-86599337D01*
X83631416Y-86599335D01*
X83630338Y-86591150D01*
X83622911Y-86573219D01*
X83615321Y-86502630D01*
X83622911Y-86476780D01*
X83623361Y-86475695D01*
X83627179Y-86466478D01*
X83627179Y-86466477D01*
X83630338Y-86458850D01*
X83639742Y-86387419D01*
X83645462Y-86343972D01*
X83645462Y-86343971D01*
X83646000Y-86339885D01*
X83645999Y-86060116D01*
X83644668Y-86050000D01*
X83631416Y-85949337D01*
X83631416Y-85949335D01*
X83630338Y-85941150D01*
X83622911Y-85923219D01*
X83615321Y-85852630D01*
X83622911Y-85826780D01*
X83627178Y-85816480D01*
X83627179Y-85816477D01*
X83630338Y-85808850D01*
X83644310Y-85702721D01*
X83645462Y-85693972D01*
X83645462Y-85693971D01*
X83646000Y-85689885D01*
X83645999Y-85410116D01*
X83644815Y-85401118D01*
X83631416Y-85299337D01*
X83631416Y-85299335D01*
X83630338Y-85291150D01*
X83580778Y-85171500D01*
X83572184Y-85150752D01*
X83572183Y-85150750D01*
X83569024Y-85143124D01*
X83507685Y-85063186D01*
X83476514Y-85022564D01*
X83476513Y-85022563D01*
X83471487Y-85016013D01*
X83464936Y-85010986D01*
X83464934Y-85010984D01*
X83400454Y-84961507D01*
X83344375Y-84918476D01*
X83196350Y-84857162D01*
X83141949Y-84850000D01*
X83081472Y-84842038D01*
X83081471Y-84842038D01*
X83077385Y-84841500D01*
X82400083Y-84841500D01*
X81722616Y-84841501D01*
X81718531Y-84842039D01*
X81718527Y-84842039D01*
X81611837Y-84856084D01*
X81611835Y-84856084D01*
X81603650Y-84857162D01*
X81596018Y-84860323D01*
X81596019Y-84860323D01*
X81472927Y-84911308D01*
X81402338Y-84918897D01*
X81338851Y-84887117D01*
X81331074Y-84879209D01*
X81215675Y-84751045D01*
X81215674Y-84751044D01*
X81211253Y-84746134D01*
X81056752Y-84633882D01*
X81050724Y-84631198D01*
X81050722Y-84631197D01*
X80939350Y-84581611D01*
X80901504Y-84555599D01*
X80678652Y-84332747D01*
X80671114Y-84324464D01*
X80667000Y-84317982D01*
X80645027Y-84297348D01*
X80617365Y-84271373D01*
X80614519Y-84268615D01*
X80597571Y-84251666D01*
X80594770Y-84248865D01*
X80591573Y-84246385D01*
X80582551Y-84238680D01*
X80582300Y-84238444D01*
X80550321Y-84208414D01*
X80543375Y-84204595D01*
X80543372Y-84204593D01*
X80532566Y-84198652D01*
X80516047Y-84187801D01*
X80513702Y-84185982D01*
X80500041Y-84175386D01*
X80492772Y-84172241D01*
X80492768Y-84172238D01*
X80459463Y-84157826D01*
X80448813Y-84152609D01*
X80410060Y-84131305D01*
X80390437Y-84126267D01*
X80371734Y-84119863D01*
X80360420Y-84114967D01*
X80360419Y-84114967D01*
X80353145Y-84111819D01*
X80345320Y-84110579D01*
X80345311Y-84110577D01*
X80319143Y-84106432D01*
X80254990Y-84076019D01*
X80219332Y-84021860D01*
X80206368Y-83983002D01*
X80204050Y-83976054D01*
X80110978Y-83825652D01*
X79985803Y-83700695D01*
X79944000Y-83674927D01*
X79841468Y-83611725D01*
X79841466Y-83611724D01*
X79835238Y-83607885D01*
X79755495Y-83581436D01*
X79673889Y-83554368D01*
X79673887Y-83554368D01*
X79667361Y-83552203D01*
X79660525Y-83551503D01*
X79660522Y-83551502D01*
X79617469Y-83547091D01*
X79562900Y-83541500D01*
X78387100Y-83541500D01*
X78383854Y-83541837D01*
X78383850Y-83541837D01*
X78288192Y-83551762D01*
X78288188Y-83551763D01*
X78281334Y-83552474D01*
X78274798Y-83554655D01*
X78274796Y-83554655D01*
X78239098Y-83566565D01*
X78113554Y-83608450D01*
X77963152Y-83701522D01*
X77886636Y-83778172D01*
X77865173Y-83799672D01*
X77802891Y-83833751D01*
X77732070Y-83828748D01*
X77675198Y-83786251D01*
X77650329Y-83719752D01*
X77650000Y-83710654D01*
X77650000Y-82240000D01*
X97116496Y-82240000D01*
X97117186Y-82246565D01*
X97135737Y-82423065D01*
X97136458Y-82429928D01*
X97195473Y-82611556D01*
X97290960Y-82776944D01*
X97295378Y-82781851D01*
X97295379Y-82781852D01*
X97360859Y-82854575D01*
X97391577Y-82918582D01*
X97382812Y-82989036D01*
X97369158Y-83012947D01*
X97365380Y-83018148D01*
X97360960Y-83023056D01*
X97321972Y-83090585D01*
X97279827Y-83163583D01*
X97265473Y-83188444D01*
X97206458Y-83370072D01*
X97205768Y-83376633D01*
X97205768Y-83376635D01*
X97189592Y-83530547D01*
X97186496Y-83560000D01*
X97187186Y-83566565D01*
X97201259Y-83700458D01*
X97206458Y-83749928D01*
X97265473Y-83931556D01*
X97268776Y-83937278D01*
X97268777Y-83937279D01*
X97287567Y-83969824D01*
X97360960Y-84096944D01*
X97365378Y-84101851D01*
X97365379Y-84101852D01*
X97452538Y-84198652D01*
X97488747Y-84238866D01*
X97506365Y-84251666D01*
X97617963Y-84332747D01*
X97643248Y-84351118D01*
X97649276Y-84353802D01*
X97649278Y-84353803D01*
X97784021Y-84413794D01*
X97817712Y-84428794D01*
X97911113Y-84448647D01*
X97998056Y-84467128D01*
X97998061Y-84467128D01*
X98004513Y-84468500D01*
X98195487Y-84468500D01*
X98201939Y-84467128D01*
X98201944Y-84467128D01*
X98288887Y-84448647D01*
X98382288Y-84428794D01*
X98415979Y-84413794D01*
X98550722Y-84353803D01*
X98550724Y-84353802D01*
X98556752Y-84351118D01*
X98597922Y-84321206D01*
X98664789Y-84297348D01*
X98733941Y-84313428D01*
X98783421Y-84364341D01*
X98797798Y-84429959D01*
X98797600Y-84433613D01*
X98797600Y-84472885D01*
X98802075Y-84488124D01*
X98803465Y-84489329D01*
X98811148Y-84491000D01*
X101255984Y-84491000D01*
X101271223Y-84486525D01*
X101272428Y-84485135D01*
X101274099Y-84477452D01*
X101274099Y-84433631D01*
X101273729Y-84426810D01*
X101268205Y-84375948D01*
X101264579Y-84360696D01*
X101219424Y-84240246D01*
X101210886Y-84224651D01*
X101181905Y-84185982D01*
X101157057Y-84119475D01*
X101172110Y-84050093D01*
X101181905Y-84034852D01*
X101211329Y-83995592D01*
X101211332Y-83995587D01*
X101216715Y-83988405D01*
X101267845Y-83852016D01*
X101274600Y-83789834D01*
X101274600Y-83160166D01*
X101267845Y-83097984D01*
X101216715Y-82961595D01*
X101182216Y-82915563D01*
X101157369Y-82849059D01*
X101172422Y-82779677D01*
X101182210Y-82764445D01*
X101216715Y-82718405D01*
X101267845Y-82582016D01*
X101274600Y-82519834D01*
X101274600Y-81890166D01*
X101267845Y-81827984D01*
X101216715Y-81691595D01*
X101129361Y-81575039D01*
X101012805Y-81487685D01*
X100876416Y-81436555D01*
X100814234Y-81429800D01*
X99257466Y-81429800D01*
X99195284Y-81436555D01*
X99058895Y-81487685D01*
X99008595Y-81525383D01*
X98980651Y-81546326D01*
X98914145Y-81571174D01*
X98905086Y-81571500D01*
X98696460Y-81571500D01*
X98628339Y-81551498D01*
X98622399Y-81547436D01*
X98620872Y-81546326D01*
X98514280Y-81468882D01*
X98492094Y-81452763D01*
X98492093Y-81452762D01*
X98486752Y-81448882D01*
X98480724Y-81446198D01*
X98480722Y-81446197D01*
X98318319Y-81373891D01*
X98318318Y-81373891D01*
X98312288Y-81371206D01*
X98218887Y-81351353D01*
X98131944Y-81332872D01*
X98131939Y-81332872D01*
X98125487Y-81331500D01*
X97934513Y-81331500D01*
X97928061Y-81332872D01*
X97928056Y-81332872D01*
X97841113Y-81351353D01*
X97747712Y-81371206D01*
X97741682Y-81373891D01*
X97741681Y-81373891D01*
X97579278Y-81446197D01*
X97579276Y-81446198D01*
X97573248Y-81448882D01*
X97567907Y-81452762D01*
X97567906Y-81452763D01*
X97545720Y-81468882D01*
X97418747Y-81561134D01*
X97414326Y-81566044D01*
X97414325Y-81566045D01*
X97301280Y-81691595D01*
X97290960Y-81703056D01*
X97279413Y-81723056D01*
X97211342Y-81840959D01*
X97195473Y-81868444D01*
X97136458Y-82050072D01*
X97116496Y-82240000D01*
X77650000Y-82240000D01*
X77650000Y-77215000D01*
X78501496Y-77215000D01*
X78502186Y-77221565D01*
X78517290Y-77365268D01*
X78521458Y-77404928D01*
X78580473Y-77586556D01*
X78675960Y-77751944D01*
X78680378Y-77756851D01*
X78680379Y-77756852D01*
X78691976Y-77769732D01*
X78803747Y-77893866D01*
X78835972Y-77917279D01*
X78938686Y-77991905D01*
X78958248Y-78006118D01*
X78964276Y-78008802D01*
X78964278Y-78008803D01*
X79126681Y-78081109D01*
X79132712Y-78083794D01*
X79226112Y-78103647D01*
X79313056Y-78122128D01*
X79313061Y-78122128D01*
X79319513Y-78123500D01*
X79510487Y-78123500D01*
X79516939Y-78122128D01*
X79516944Y-78122128D01*
X79603888Y-78103647D01*
X79697288Y-78083794D01*
X79703319Y-78081109D01*
X79865722Y-78008803D01*
X79865724Y-78008802D01*
X79871752Y-78006118D01*
X79891315Y-77991905D01*
X79994028Y-77917279D01*
X80026253Y-77893866D01*
X80138024Y-77769732D01*
X80149621Y-77756852D01*
X80149622Y-77756851D01*
X80154040Y-77751944D01*
X80249527Y-77586556D01*
X80264654Y-77540000D01*
X94576496Y-77540000D01*
X94596458Y-77729928D01*
X94655473Y-77911556D01*
X94750960Y-78076944D01*
X94878747Y-78218866D01*
X94907782Y-78239961D01*
X95017336Y-78319557D01*
X95033248Y-78331118D01*
X95039276Y-78333802D01*
X95039278Y-78333803D01*
X95201681Y-78406109D01*
X95207712Y-78408794D01*
X95301112Y-78428647D01*
X95388056Y-78447128D01*
X95388061Y-78447128D01*
X95394513Y-78448500D01*
X95585487Y-78448500D01*
X95591939Y-78447128D01*
X95591944Y-78447128D01*
X95678888Y-78428647D01*
X95772288Y-78408794D01*
X95778319Y-78406109D01*
X95940722Y-78333803D01*
X95940724Y-78333802D01*
X95946752Y-78331118D01*
X95962665Y-78319557D01*
X96072218Y-78239961D01*
X96101253Y-78218866D01*
X96229040Y-78076944D01*
X96324527Y-77911556D01*
X96383542Y-77729928D01*
X96403504Y-77540000D01*
X96391719Y-77427868D01*
X96384232Y-77356635D01*
X96384232Y-77356633D01*
X96383542Y-77350072D01*
X96324527Y-77168444D01*
X96317403Y-77156104D01*
X96261917Y-77060000D01*
X100906681Y-77060000D01*
X100925928Y-77304557D01*
X100927082Y-77309364D01*
X100927083Y-77309370D01*
X100963351Y-77460437D01*
X100983195Y-77543092D01*
X100985088Y-77547663D01*
X100985089Y-77547665D01*
X101003415Y-77591908D01*
X101077073Y-77769732D01*
X101205248Y-77978896D01*
X101208463Y-77982660D01*
X101208465Y-77982663D01*
X101361359Y-78161677D01*
X101364567Y-78165433D01*
X101551104Y-78324752D01*
X101555327Y-78327340D01*
X101555330Y-78327342D01*
X101561492Y-78331118D01*
X101760268Y-78452927D01*
X101783621Y-78462600D01*
X101982335Y-78544911D01*
X101982337Y-78544912D01*
X101986908Y-78546805D01*
X102033922Y-78558092D01*
X102220630Y-78602917D01*
X102220636Y-78602918D01*
X102225443Y-78604072D01*
X102470000Y-78623319D01*
X102714557Y-78604072D01*
X102719364Y-78602918D01*
X102719370Y-78602917D01*
X102906078Y-78558092D01*
X102953092Y-78546805D01*
X102957663Y-78544912D01*
X102957665Y-78544911D01*
X103156379Y-78462600D01*
X103179732Y-78452927D01*
X103378508Y-78331118D01*
X103384670Y-78327342D01*
X103384673Y-78327340D01*
X103388896Y-78324752D01*
X103575433Y-78165433D01*
X103578641Y-78161677D01*
X103731535Y-77982663D01*
X103731537Y-77982660D01*
X103734752Y-77978896D01*
X103862927Y-77769732D01*
X103936585Y-77591908D01*
X103954911Y-77547665D01*
X103954912Y-77547663D01*
X103956805Y-77543092D01*
X103976649Y-77460437D01*
X104012917Y-77309370D01*
X104012918Y-77309364D01*
X104014072Y-77304557D01*
X104033319Y-77060000D01*
X104014072Y-76815443D01*
X104011827Y-76806089D01*
X103957960Y-76581720D01*
X103956805Y-76576908D01*
X103862927Y-76350268D01*
X103754168Y-76172788D01*
X103735630Y-76104255D01*
X103757087Y-76036578D01*
X103786035Y-76006128D01*
X103808635Y-75989190D01*
X103883261Y-75933261D01*
X103970615Y-75816705D01*
X104021745Y-75680316D01*
X104028500Y-75618134D01*
X104028500Y-73421866D01*
X104021745Y-73359684D01*
X103970615Y-73223295D01*
X103883261Y-73106739D01*
X103766705Y-73019385D01*
X103630316Y-72968255D01*
X103568134Y-72961500D01*
X101371866Y-72961500D01*
X101309684Y-72968255D01*
X101173295Y-73019385D01*
X101056739Y-73106739D01*
X100969385Y-73223295D01*
X100918255Y-73359684D01*
X100911500Y-73421866D01*
X100911500Y-75618134D01*
X100918255Y-75680316D01*
X100969385Y-75816705D01*
X101056739Y-75933261D01*
X101131365Y-75989190D01*
X101153965Y-76006128D01*
X101196479Y-76062988D01*
X101201504Y-76133806D01*
X101185832Y-76172788D01*
X101077073Y-76350268D01*
X100983195Y-76576908D01*
X100982040Y-76581720D01*
X100928174Y-76806089D01*
X100925928Y-76815443D01*
X100906681Y-77060000D01*
X96261917Y-77060000D01*
X96229040Y-77003056D01*
X96205459Y-76976866D01*
X96105675Y-76866045D01*
X96105674Y-76866044D01*
X96101253Y-76861134D01*
X95946752Y-76748882D01*
X95940724Y-76746198D01*
X95940722Y-76746197D01*
X95778319Y-76673891D01*
X95778318Y-76673891D01*
X95772288Y-76671206D01*
X95678888Y-76651353D01*
X95591944Y-76632872D01*
X95591939Y-76632872D01*
X95585487Y-76631500D01*
X95394513Y-76631500D01*
X95388061Y-76632872D01*
X95388056Y-76632872D01*
X95301112Y-76651353D01*
X95207712Y-76671206D01*
X95201682Y-76673891D01*
X95201681Y-76673891D01*
X95039278Y-76746197D01*
X95039276Y-76746198D01*
X95033248Y-76748882D01*
X94878747Y-76861134D01*
X94874326Y-76866044D01*
X94874325Y-76866045D01*
X94774542Y-76976866D01*
X94750960Y-77003056D01*
X94718083Y-77060000D01*
X94662598Y-77156104D01*
X94655473Y-77168444D01*
X94596458Y-77350072D01*
X94595768Y-77356633D01*
X94595768Y-77356635D01*
X94588281Y-77427868D01*
X94576496Y-77540000D01*
X80264654Y-77540000D01*
X80308542Y-77404928D01*
X80312711Y-77365268D01*
X80327814Y-77221565D01*
X80328504Y-77215000D01*
X80308542Y-77025072D01*
X80249527Y-76843444D01*
X80244507Y-76834748D01*
X80157341Y-76683774D01*
X80154040Y-76678056D01*
X80105978Y-76624677D01*
X80030675Y-76541045D01*
X80030674Y-76541044D01*
X80026253Y-76536134D01*
X79871752Y-76423882D01*
X79865724Y-76421198D01*
X79865722Y-76421197D01*
X79703319Y-76348891D01*
X79703318Y-76348891D01*
X79697288Y-76346206D01*
X79603888Y-76326353D01*
X79516944Y-76307872D01*
X79516939Y-76307872D01*
X79510487Y-76306500D01*
X79319513Y-76306500D01*
X79313061Y-76307872D01*
X79313056Y-76307872D01*
X79226112Y-76326353D01*
X79132712Y-76346206D01*
X79126682Y-76348891D01*
X79126681Y-76348891D01*
X78964278Y-76421197D01*
X78964276Y-76421198D01*
X78958248Y-76423882D01*
X78803747Y-76536134D01*
X78799326Y-76541044D01*
X78799325Y-76541045D01*
X78724023Y-76624677D01*
X78675960Y-76678056D01*
X78672659Y-76683774D01*
X78585494Y-76834748D01*
X78580473Y-76843444D01*
X78521458Y-77025072D01*
X78501496Y-77215000D01*
X77650000Y-77215000D01*
X77650000Y-69251968D01*
X77670002Y-69183847D01*
X77723658Y-69137354D01*
X77776000Y-69125968D01*
X99941901Y-69125968D01*
X99961286Y-69127468D01*
G37*
%TD.AperFunction*%
%TD*%
M02*
