%TF.GenerationSoftware,KiCad,Pcbnew,6.0.11-2627ca5db0~126~ubuntu22.04.1*%
%TF.CreationDate,2023-03-05T23:39:48-05:00*%
%TF.ProjectId,canbus-kline-bridge,63616e62-7573-42d6-9b6c-696e652d6272,1.0*%
%TF.SameCoordinates,Original*%
%TF.FileFunction,Copper,L2,Inr*%
%TF.FilePolarity,Positive*%
%FSLAX46Y46*%
G04 Gerber Fmt 4.6, Leading zero omitted, Abs format (unit mm)*
G04 Created by KiCad (PCBNEW 6.0.11-2627ca5db0~126~ubuntu22.04.1) date 2023-03-05 23:39:48*
%MOMM*%
%LPD*%
G01*
G04 APERTURE LIST*
%TA.AperFunction,ComponentPad*%
%ADD10R,1.700000X1.700000*%
%TD*%
%TA.AperFunction,ComponentPad*%
%ADD11O,1.700000X1.700000*%
%TD*%
%TA.AperFunction,ComponentPad*%
%ADD12R,2.100000X2.100000*%
%TD*%
%TA.AperFunction,ComponentPad*%
%ADD13C,2.100000*%
%TD*%
%TA.AperFunction,ComponentPad*%
%ADD14C,1.879600*%
%TD*%
%TA.AperFunction,ComponentPad*%
%ADD15O,0.950000X1.250000*%
%TD*%
%TA.AperFunction,ComponentPad*%
%ADD16O,1.550000X0.890000*%
%TD*%
%TA.AperFunction,ViaPad*%
%ADD17C,0.800000*%
%TD*%
%TA.AperFunction,Conductor*%
%ADD18C,0.250000*%
%TD*%
%TA.AperFunction,Conductor*%
%ADD19C,0.200000*%
%TD*%
%TA.AperFunction,Conductor*%
%ADD20C,0.800000*%
%TD*%
%TA.AperFunction,Conductor*%
%ADD21C,1.200000*%
%TD*%
%TA.AperFunction,Conductor*%
%ADD22C,1.500000*%
%TD*%
G04 APERTURE END LIST*
D10*
%TO.N,+5V*%
%TO.C,U3*%
X75247300Y-81002600D03*
D11*
%TO.N,GND*%
X75247300Y-78462600D03*
%TO.N,+12V*%
X75247300Y-75922600D03*
%TO.N,unconnected-(U3-Pad4)*%
X75247300Y-73382600D03*
%TD*%
D12*
%TO.N,ISO_K_LINE*%
%TO.C,J6*%
X102470000Y-74520000D03*
D13*
%TO.N,GND*%
X102470000Y-77060000D03*
%TD*%
D12*
%TO.N,+BATT*%
%TO.C,J5*%
X59625000Y-94100000D03*
D13*
%TO.N,CANH*%
X62165000Y-94100000D03*
%TO.N,CANL*%
X64705000Y-94100000D03*
%TO.N,GND*%
X67245000Y-94100000D03*
%TD*%
D10*
%TO.N,SWDIO*%
%TO.C,J2*%
X87490000Y-96350000D03*
D11*
%TO.N,GND*%
X84950000Y-96350000D03*
%TO.N,SWDCLK*%
X82410000Y-96350000D03*
%TD*%
D14*
%TO.N,+3V3*%
%TO.C,S1*%
X96435600Y-92998800D03*
X96435600Y-99501200D03*
%TO.N,Net-(R1-Pad1)*%
X91914400Y-92998800D03*
%TO.N,/Net-(R1-Pad1)*%
X91914400Y-99501200D03*
%TD*%
D12*
%TO.N,+BATT*%
%TO.C,J4*%
X59660000Y-78075000D03*
D13*
%TO.N,CANH*%
X62200000Y-78075000D03*
%TO.N,CANL*%
X64740000Y-78075000D03*
%TO.N,GND*%
X67280000Y-78075000D03*
%TD*%
D14*
%TO.N,GND*%
%TO.C,S2*%
X103960600Y-90323800D03*
X103960600Y-96826200D03*
%TO.N,~{RESET}*%
X99439400Y-90323800D03*
X99439400Y-96826200D03*
%TD*%
D15*
%TO.N,GND*%
%TO.C,J1*%
X59210000Y-83550000D03*
D16*
X56510000Y-82550000D03*
X56510000Y-89550000D03*
D15*
X59210000Y-88550000D03*
%TD*%
D17*
%TO.N,~{CAN_INT}*%
X90380000Y-87210000D03*
%TO.N,+3V3*%
X75590000Y-98380000D03*
%TO.N,~{CAN_INT}*%
X75250000Y-96090000D03*
%TO.N,MOSI*%
X84730000Y-86350000D03*
%TO.N,MISO*%
X83900000Y-85410000D03*
%TO.N,SCK*%
X82540000Y-84380000D03*
%TO.N,~{SPI_SS}*%
X86370000Y-85830000D03*
%TO.N,SCK*%
X76670000Y-97330000D03*
%TO.N,MOSI*%
X80450000Y-96050000D03*
%TO.N,MISO*%
X76780000Y-95300000D03*
%TO.N,+3V3*%
X78450000Y-91209500D03*
%TO.N,~{SPI_SS}*%
X80380000Y-92890000D03*
%TO.N,CAN_TX*%
X73550000Y-91209500D03*
%TO.N,CAN_RX*%
X71090000Y-93530000D03*
%TO.N,GND*%
X75320000Y-99800000D03*
%TO.N,+3V3*%
X69070000Y-101470000D03*
%TO.N,Net-(U7-Pad6)*%
X71060000Y-98700000D03*
%TO.N,+3V3*%
X81674500Y-93180000D03*
X88160000Y-93710000D03*
%TO.N,SCL*%
X86311389Y-86913209D03*
%TO.N,SDA*%
X86260000Y-88580000D03*
%TO.N,SCL*%
X86030000Y-90090000D03*
%TO.N,SDA*%
X86120000Y-91150000D03*
%TO.N,+3V3*%
X86010000Y-84250000D03*
%TO.N,ISO_K_LINE*%
X107600000Y-82260000D03*
%TO.N,GND*%
X107270000Y-84610000D03*
%TO.N,/VBB*%
X95490000Y-77540000D03*
%TO.N,+3V3*%
X98100000Y-84720000D03*
%TO.N,/VBB*%
X104180000Y-86070000D03*
%TO.N,K_LINE_EN*%
X98060000Y-86010000D03*
%TO.N,K_LINE_TX*%
X98030000Y-82240000D03*
%TO.N,K_LINE_RX*%
X98100000Y-83560000D03*
%TO.N,K_LINE_EN*%
X92490000Y-87240000D03*
%TO.N,+12V*%
X79415000Y-77215000D03*
%TO.N,GND*%
X80640000Y-88725500D03*
X72725000Y-70575000D03*
X93350000Y-91850000D03*
X79030000Y-83430000D03*
X75300000Y-86775000D03*
%TO.N,+3V3*%
X78150000Y-80600000D03*
X85100000Y-88800000D03*
X78230000Y-86120000D03*
X68975000Y-82275000D03*
%TO.N,VBUS*%
X57884502Y-84775000D03*
%TO.N,USB_D-*%
X63750000Y-85825000D03*
%TO.N,USB_D+*%
X63050000Y-86875000D03*
%TO.N,CAN_RX*%
X71525000Y-84850000D03*
%TO.N,USB_D-*%
X78900000Y-89500000D03*
%TO.N,CAN_TX*%
X75400000Y-88550000D03*
%TO.N,USB_D+*%
X80490000Y-90510000D03*
%TO.N,CAN_STBY*%
X70550000Y-87450000D03*
X79650000Y-87500000D03*
%TO.N,K_LINE_TX*%
X90357299Y-86117299D03*
%TO.N,K_LINE_RX*%
X90090000Y-84970000D03*
%TO.N,~{RESET}*%
X90475000Y-90300000D03*
%TD*%
D18*
%TO.N,K_LINE_EN*%
X92490000Y-87240000D02*
X92530000Y-87280000D01*
X92530000Y-87280000D02*
X96790000Y-87280000D01*
X96790000Y-87280000D02*
X98060000Y-86010000D01*
%TO.N,K_LINE_RX*%
X90090000Y-84970000D02*
X90400000Y-85280000D01*
X96380000Y-85280000D02*
X98100000Y-83560000D01*
X90400000Y-85280000D02*
X96380000Y-85280000D01*
%TO.N,SCK*%
X76670000Y-97330000D02*
X79655000Y-94345000D01*
X82540000Y-89700000D02*
X82540000Y-84380000D01*
X79655000Y-94345000D02*
X79655000Y-92585000D01*
X79655000Y-92585000D02*
X82540000Y-89700000D01*
D19*
%TO.N,USB_D+*%
X64450000Y-86875000D02*
X63050000Y-86875000D01*
X68085000Y-90510000D02*
X64450000Y-86875000D01*
X80490000Y-90510000D02*
X68085000Y-90510000D01*
D18*
%TO.N,MOSI*%
X80450000Y-96050000D02*
X80450000Y-95530000D01*
X80450000Y-95530000D02*
X83230000Y-92750000D01*
X83230000Y-92750000D02*
X83230000Y-87850000D01*
X83230000Y-87850000D02*
X84730000Y-86350000D01*
D19*
%TO.N,USB_D-*%
X78900000Y-89500000D02*
X78420000Y-89980000D01*
X78420000Y-89980000D02*
X68830000Y-89980000D01*
X68830000Y-89980000D02*
X64675000Y-85825000D01*
X64675000Y-85825000D02*
X63750000Y-85825000D01*
D18*
%TO.N,SDA*%
X86120000Y-91150000D02*
X86755000Y-90515000D01*
X86755000Y-90515000D02*
X86755000Y-89075000D01*
X86755000Y-89075000D02*
X86260000Y-88580000D01*
D20*
%TO.N,ISO_K_LINE*%
X102470000Y-74520000D02*
X105180000Y-74520000D01*
X105180000Y-74520000D02*
X107600000Y-76940000D01*
X107600000Y-76940000D02*
X107600000Y-82260000D01*
D21*
%TO.N,/VBB*%
X98100000Y-77540000D02*
X104180000Y-83620000D01*
X95490000Y-77540000D02*
X98100000Y-77540000D01*
X104180000Y-83620000D02*
X104180000Y-86070000D01*
D22*
%TO.N,+BATT*%
X59660000Y-80615000D02*
X59660000Y-78075000D01*
X61175000Y-90600000D02*
X61175000Y-82300000D01*
X61175000Y-82300000D02*
X59575000Y-80700000D01*
X59625000Y-92150000D02*
X61175000Y-90600000D01*
X59625000Y-94100000D02*
X59625000Y-92150000D01*
D18*
X59575000Y-80700000D02*
X59660000Y-80615000D01*
%TO.N,CAN_STBY*%
X70600000Y-87500000D02*
X70550000Y-87450000D01*
X79650000Y-87500000D02*
X70600000Y-87500000D01*
%TO.N,~{RESET}*%
X90498800Y-90323800D02*
X99439400Y-90323800D01*
X90475000Y-90300000D02*
X90498800Y-90323800D01*
%TD*%
M02*
