%TF.GenerationSoftware,KiCad,Pcbnew,6.0.11-2627ca5db0~126~ubuntu22.04.1*%
%TF.CreationDate,2023-03-05T23:39:48-05:00*%
%TF.ProjectId,canbus-kline-bridge,63616e62-7573-42d6-9b6c-696e652d6272,1.0*%
%TF.SameCoordinates,Original*%
%TF.FileFunction,Soldermask,Bot*%
%TF.FilePolarity,Negative*%
%FSLAX46Y46*%
G04 Gerber Fmt 4.6, Leading zero omitted, Abs format (unit mm)*
G04 Created by KiCad (PCBNEW 6.0.11-2627ca5db0~126~ubuntu22.04.1) date 2023-03-05 23:39:48*
%MOMM*%
%LPD*%
G01*
G04 APERTURE LIST*
G04 Aperture macros list*
%AMRoundRect*
0 Rectangle with rounded corners*
0 $1 Rounding radius*
0 $2 $3 $4 $5 $6 $7 $8 $9 X,Y pos of 4 corners*
0 Add a 4 corners polygon primitive as box body*
4,1,4,$2,$3,$4,$5,$6,$7,$8,$9,$2,$3,0*
0 Add four circle primitives for the rounded corners*
1,1,$1+$1,$2,$3*
1,1,$1+$1,$4,$5*
1,1,$1+$1,$6,$7*
1,1,$1+$1,$8,$9*
0 Add four rect primitives between the rounded corners*
20,1,$1+$1,$2,$3,$4,$5,0*
20,1,$1+$1,$4,$5,$6,$7,0*
20,1,$1+$1,$6,$7,$8,$9,0*
20,1,$1+$1,$8,$9,$2,$3,0*%
G04 Aperture macros list end*
%ADD10RoundRect,0.250000X0.450000X-0.350000X0.450000X0.350000X-0.450000X0.350000X-0.450000X-0.350000X0*%
%ADD11RoundRect,0.250000X-0.350000X-0.450000X0.350000X-0.450000X0.350000X0.450000X-0.350000X0.450000X0*%
%ADD12R,2.000000X1.800000*%
%ADD13RoundRect,0.250000X-0.450000X0.350000X-0.450000X-0.350000X0.450000X-0.350000X0.450000X0.350000X0*%
%ADD14RoundRect,0.150000X0.650000X0.150000X-0.650000X0.150000X-0.650000X-0.150000X0.650000X-0.150000X0*%
%ADD15R,1.700000X1.700000*%
%ADD16O,1.700000X1.700000*%
%ADD17R,2.100000X2.100000*%
%ADD18C,2.100000*%
%ADD19R,1.200000X0.900000*%
%ADD20R,0.900000X1.200000*%
%ADD21R,3.500000X1.800000*%
%ADD22RoundRect,0.250000X-0.475000X0.337500X-0.475000X-0.337500X0.475000X-0.337500X0.475000X0.337500X0*%
%ADD23RoundRect,0.250000X0.475000X-0.337500X0.475000X0.337500X-0.475000X0.337500X-0.475000X-0.337500X0*%
%ADD24C,2.082800*%
%ADD25O,0.950000X1.250000*%
%ADD26O,1.550000X0.890000*%
%ADD27RoundRect,0.250000X-0.337500X-0.475000X0.337500X-0.475000X0.337500X0.475000X-0.337500X0.475000X0*%
%ADD28RoundRect,0.150000X-0.150000X0.587500X-0.150000X-0.587500X0.150000X-0.587500X0.150000X0.587500X0*%
%ADD29RoundRect,0.150000X-0.587500X-0.150000X0.587500X-0.150000X0.587500X0.150000X-0.587500X0.150000X0*%
G04 APERTURE END LIST*
D10*
%TO.C,R8*%
X73570000Y-98020000D03*
X73570000Y-96020000D03*
%TD*%
D11*
%TO.C,R3*%
X76410000Y-87570000D03*
X78410000Y-87570000D03*
%TD*%
D12*
%TO.C,X1*%
X66900000Y-101840000D03*
X66900000Y-96760000D03*
X70900000Y-96760000D03*
X70900000Y-101840000D03*
%TD*%
D13*
%TO.C,R7*%
X75870000Y-91620000D03*
X75870000Y-93620000D03*
%TD*%
D10*
%TO.C,R6*%
X88120000Y-92360000D03*
X88120000Y-90360000D03*
%TD*%
D11*
%TO.C,R5*%
X83690000Y-93200000D03*
X85690000Y-93200000D03*
%TD*%
D14*
%TO.C,U6*%
X95230000Y-84315000D03*
X95230000Y-85585000D03*
X95230000Y-86855000D03*
X95230000Y-88125000D03*
X88030000Y-88125000D03*
X88030000Y-86855000D03*
X88030000Y-85585000D03*
X88030000Y-84315000D03*
%TD*%
D15*
%TO.C,U3*%
X75247300Y-81002600D03*
D16*
X75247300Y-78462600D03*
X75247300Y-75922600D03*
X75247300Y-73382600D03*
%TD*%
D17*
%TO.C,J6*%
X102470000Y-74520000D03*
D18*
X102470000Y-77060000D03*
%TD*%
D11*
%TO.C,R4*%
X92000000Y-77590000D03*
X94000000Y-77590000D03*
%TD*%
D19*
%TO.C,D3*%
X108080000Y-83530000D03*
X108080000Y-80230000D03*
%TD*%
D20*
%TO.C,D2*%
X82550000Y-82070000D03*
X85850000Y-82070000D03*
%TD*%
D21*
%TO.C,D1*%
X87110000Y-78980000D03*
X82110000Y-78980000D03*
%TD*%
D22*
%TO.C,C10*%
X105730000Y-83880000D03*
X105730000Y-85955000D03*
%TD*%
D23*
%TO.C,C9*%
X102800000Y-85970000D03*
X102800000Y-83895000D03*
%TD*%
D22*
%TO.C,C8*%
X100480000Y-84720000D03*
X100480000Y-86795000D03*
%TD*%
D17*
%TO.C,J5*%
X59625000Y-94100000D03*
D18*
X62165000Y-94100000D03*
X64705000Y-94100000D03*
X67245000Y-94100000D03*
%TD*%
D15*
%TO.C,J2*%
X87490000Y-96350000D03*
D16*
X84950000Y-96350000D03*
X82410000Y-96350000D03*
%TD*%
D24*
%TO.C,S1*%
X96435600Y-92998800D03*
X96435600Y-99501200D03*
X91914400Y-92998800D03*
X91914400Y-99501200D03*
%TD*%
D17*
%TO.C,J4*%
X59660000Y-78075000D03*
D18*
X62200000Y-78075000D03*
X64740000Y-78075000D03*
X67280000Y-78075000D03*
%TD*%
D24*
%TO.C,S2*%
X103960600Y-90323800D03*
X103960600Y-96826200D03*
X99439400Y-90323800D03*
X99439400Y-96826200D03*
%TD*%
D25*
%TO.C,J1*%
X59210000Y-83550000D03*
D26*
X56510000Y-82550000D03*
X56510000Y-89550000D03*
D25*
X59210000Y-88550000D03*
%TD*%
D27*
%TO.C,C7*%
X77787500Y-82300000D03*
X79862500Y-82300000D03*
%TD*%
D28*
%TO.C,U1*%
X65775000Y-81987500D03*
X67675000Y-81987500D03*
X66725000Y-83862500D03*
%TD*%
D11*
%TO.C,R1*%
X92050000Y-96360000D03*
X94050000Y-96360000D03*
%TD*%
D23*
%TO.C,C1*%
X83450000Y-90887500D03*
X83450000Y-88812500D03*
%TD*%
%TO.C,C4*%
X69900000Y-78712500D03*
X69900000Y-76637500D03*
%TD*%
D22*
%TO.C,C2*%
X68425000Y-83950000D03*
X68425000Y-86025000D03*
%TD*%
D29*
%TO.C,Q2*%
X61437500Y-85525000D03*
X61437500Y-83625000D03*
X63312500Y-84575000D03*
%TD*%
D28*
%TO.C,Q1*%
X70600000Y-81000000D03*
X72500000Y-81000000D03*
X71550000Y-82875000D03*
%TD*%
D11*
%TO.C,R2*%
X98870000Y-93080000D03*
X100870000Y-93080000D03*
%TD*%
M02*
